<svg xmlns="http://www.w3.org/2000/svg" viewBox="0 0 500 500"><defs><style>.cls-1{isolation:isolate;}.cls-2,.cls-20{fill:#fff;}.cls-11,.cls-17,.cls-3{opacity:0.3;}.cls-4,.cls-7{fill:#d7f6f9;}.cls-24,.cls-31,.cls-5{fill:#5bbecb;}.cls-10,.cls-13,.cls-29,.cls-30,.cls-6{fill:none;}.cls-29,.cls-6{stroke:#5bbecb;}.cls-10,.cls-29,.cls-30,.cls-6{stroke-linecap:round;stroke-linejoin:round;}.cls-10,.cls-13,.cls-6{stroke-width:0.75px;}.cls-12,.cls-18,.cls-32,.cls-7{opacity:0.7;}.cls-14,.cls-16,.cls-17,.cls-18,.cls-19,.cls-24,.cls-26,.cls-31,.cls-32,.cls-34,.cls-35,.cls-7{mix-blend-mode:multiply;}.cls-11,.cls-8{fill:#01476b;}.cls-9{fill:#ceb2c7;}.cls-10,.cls-30{stroke:#5e334f;}.cls-12{fill:#def9e5;}.cls-13{stroke:#01476b;stroke-miterlimit:10;}.cls-14,.cls-18,.cls-19{fill:#b2b2b2;}.cls-14{opacity:0.6;}.cls-15,.cls-16{fill:#f1ba68;}.cls-16,.cls-20,.cls-23,.cls-31{opacity:0.5;}.cls-19,.cls-34{opacity:0.2;}.cls-20,.cls-23,.cls-33{mix-blend-mode:overlay;}.cls-21,.cls-34{fill:#5e334f;}.cls-22,.cls-35{fill:#184456;}.cls-24,.cls-26,.cls-33,.cls-35{opacity:0.4;}.cls-25,.cls-26,.cls-32{fill:#ffccb1;}.cls-27{fill:#9b717b;}.cls-28{fill:#296b8d;}.cls-29,.cls-30{stroke-width:0.71px;}</style></defs><g class="cls-1"><g id="BACKGROUND"><rect class="cls-2" width="500" height="500"/></g><g id="OBJECTS"><g class="cls-3"><path class="cls-4" d="M64.91,318.46a218.82,218.82,0,0,1-19.79-39.81,261.76,261.76,0,0,1-12-42.91c-1.36-7.31-2.51-14.66-3.34-22.05s-1.41-14.8-1.62-22.23-.1-14.86.37-22.27c.27-3.71.62-7.4,1.08-11.08s1-7.35,1.71-11a269,269,0,0,0-.82,44.23c.49,7.36,1.14,14.7,2.1,22s2.07,14.59,3.46,21.82,3,14.42,4.88,21.54,4,14.17,6.38,21.15A293,293,0,0,0,64.91,318.46Z"/><path class="cls-4" d="M454.7,241.92a75.53,75.53,0,0,1,17.08,21.3,114.76,114.76,0,0,1,10.29,25.45,128.33,128.33,0,0,1,4.12,27.21,135,135,0,0,1-.09,13.79l-.65,6.88c-.07,1.15-.3,2.28-.48,3.41l-.57,3.41A108.49,108.49,0,0,1,462,393.42c-11.61,14.44-27,25.55-43.87,33.05S383,437.89,364.85,439.88A421.93,421.93,0,0,1,310,443a382,382,0,0,1-54.69-4.36,316.1,316.1,0,0,1-53.2-13,334.82,334.82,0,0,0,53.41,11.59,382,382,0,0,0,54.49,3.5c9.1-.05,18.2-.39,27.29-.95s18.14-1.45,27.18-2.57q6.78-.82,13.49-1.93c4.46-.81,8.91-1.67,13.3-2.79A155,155,0,0,0,417,423.74c16.5-7.26,31.58-18,43-32a103.22,103.22,0,0,0,14.16-22.95,109.52,109.52,0,0,0,4.78-12.65l.52-1.62.43-1.63.84-3.29.85-3.28c.26-1.1.42-2.22.64-3.33l.61-3.33c.19-1.12.43-2.22.52-3.35l.75-6.75A133.55,133.55,0,0,0,484.3,316,127.4,127.4,0,0,0,480.66,289a113.74,113.74,0,0,0-9.58-25.44c-1-2.06-2.23-4-3.39-5.91s-2.54-3.77-3.84-5.64l-1-1.39-1.1-1.3-2.21-2.6a29.11,29.11,0,0,0-2.39-2.45Z"/><path class="cls-4" d="M98.74,47.75a110.77,110.77,0,0,1,11.4-5.08A123.2,123.2,0,0,1,122,38.78c4-1.08,8.12-2,12.24-2.7s8.28-1.21,12.44-1.59,8.35-.55,12.54-.58l6.27.09,1.57,0,1.57.09,3.13.17c2.08.12,4.17.22,6.25.4l6.24.65c1,.11,2.08.2,3.11.34l3.11.46c2.06.32,4.14.6,6.2.95A176.25,176.25,0,0,1,221,43.4,136.25,136.25,0,0,1,243.8,54a117.91,117.91,0,0,1,20.11,15,144.6,144.6,0,0,1,16.8,18.46,167.33,167.33,0,0,0-17.77-17.36,127.29,127.29,0,0,0-20.31-14,142.37,142.37,0,0,0-22.54-9.94A178.64,178.64,0,0,0,196.17,40a227,227,0,0,0-24.56-2.92l-3.09-.23L167,36.77l-1.54-.05-6.18-.19c-4.13,0-8.25.06-12.37.28A144.42,144.42,0,0,0,98.74,47.75Z"/><path class="cls-4" d="M38.92,218.82C21.86,96.35,82,38.62,166.71,42.39S279.87,88.1,315.38,157.81s88.19,50,134.79,89.46c41.54,35.18,53,165.09-78.93,183.35C210.07,452.92,62.47,388,38.92,218.82Z"/><path class="cls-4" d="M453,231a5.43,5.43,0,1,1-5.43-5.43A5.43,5.43,0,0,1,453,231Z"/><circle class="cls-4" cx="435.12" cy="215.89" r="10.29"/><circle class="cls-4" cx="298.21" cy="100.06" r="8.74"/><path class="cls-4" d="M299.4,84a5.28,5.28,0,1,1-5.28-5.28A5.27,5.27,0,0,1,299.4,84Z"/><path class="cls-4" d="M315.6,85.85a6.32,6.32,0,1,1-6.32-6.32A6.32,6.32,0,0,1,315.6,85.85Z"/></g><path class="cls-5" d="M99.2,140.07h-.46l-35,35c0,.14,0,.29,0,.44Z"/><polygon class="cls-5" points="93.33 140.07 92.87 140.07 63.75 169.19 63.75 169.65 93.33 140.07"/><path class="cls-5" d="M105.07,140.07h-.46L65,179.65l.16.3Z"/><polygon class="cls-5" points="87.46 140.07 87 140.07 63.75 163.31 63.75 163.78 87.46 140.07"/><polygon class="cls-5" points="75.72 140.07 75.26 140.07 63.75 151.58 63.75 152.04 75.72 140.07"/><polygon class="cls-5" points="81.59 140.07 81.13 140.07 63.75 157.44 63.75 157.91 81.59 140.07"/><path class="cls-5" d="M116.81,140.07h-.46l-45,45,.36.11Z"/><path class="cls-5" d="M110.94,140.07h-.46L67.64,182.91l.25.21Z"/><polygon class="cls-5" points="129.77 168.19 129.77 167.74 111.93 185.57 112.39 185.57 129.77 168.19"/><polygon class="cls-5" points="129.77 162.32 129.77 161.87 106.06 185.57 106.52 185.57 129.77 162.32"/><polygon class="cls-5" points="129.77 156.46 129.77 156 100.19 185.57 100.65 185.57 129.77 156.46"/><polygon class="cls-5" points="129.77 174.06 129.77 173.6 117.8 185.57 118.26 185.57 129.77 174.06"/><path class="cls-5" d="M128.5,146l-.17-.3L88.45,185.57h.46Z"/><path class="cls-5" d="M125.89,142.73l-.25-.21-43.06,43H83Z"/><path class="cls-5" d="M129.74,150.61c0-.14,0-.29,0-.44l-35.4,35.4h.46Z"/><path class="cls-5" d="M122.13,140.62l-.35-.11L76.71,185.57h.46Z"/><path class="cls-5" d="M413.41,249.84H413l-35,35c0,.14,0,.29,0,.43Z"/><polygon class="cls-5" points="407.54 249.84 407.08 249.84 377.96 278.96 377.96 279.42 407.54 249.84"/><path class="cls-5" d="M419.28,249.84h-.46l-39.58,39.59.16.29Z"/><polygon class="cls-5" points="401.67 249.84 401.21 249.84 377.96 273.09 377.96 273.55 401.67 249.84"/><polygon class="cls-5" points="389.93 249.84 389.47 249.84 377.96 261.35 377.96 261.81 389.93 249.84"/><polygon class="cls-5" points="395.8 249.84 395.34 249.84 377.96 267.22 377.96 267.68 395.8 249.84"/><path class="cls-5" d="M431,249.84h-.46l-45,45,.36.11Z"/><path class="cls-5" d="M425.15,249.84h-.46l-42.84,42.85.25.21Z"/><polygon class="cls-5" points="443.98 277.97 443.98 277.51 426.14 295.35 426.6 295.35 443.98 277.97"/><polygon class="cls-5" points="443.98 272.1 443.98 271.64 420.27 295.35 420.73 295.35 443.98 272.1"/><polygon class="cls-5" points="443.98 266.24 443.98 265.77 414.4 295.35 414.86 295.35 443.98 266.24"/><polygon class="cls-5" points="443.98 283.84 443.98 283.38 432.01 295.35 432.47 295.35 443.98 283.84"/><path class="cls-5" d="M442.71,255.77l-.17-.3-39.88,39.88h.46Z"/><path class="cls-5" d="M440.1,252.51l-.25-.21-43.06,43.05h.46Z"/><path class="cls-5" d="M444,260.39c0-.14,0-.29,0-.44l-35.4,35.4H409Z"/><path class="cls-5" d="M436.34,250.4l-.35-.11-45.07,45.06h.46Z"/><path class="cls-6" d="M107.45,83.8a7,7,0,1,1-7-7A7,7,0,0,1,107.45,83.8Z"/><circle class="cls-6" cx="444.71" cy="307.9" r="7"/><path class="cls-6" d="M460.67,320.27a9.9,9.9,0,0,0-9.9,9.9c0,9.39,9.9,17.66,9.9,17.66s9.91-8.27,9.91-17.66A9.91,9.91,0,0,0,460.67,320.27Zm0,13.17a4.6,4.6,0,1,1,4.6-4.6A4.6,4.6,0,0,1,460.67,333.44Z"/><rect class="cls-6" x="142.23" y="78.29" width="36.69" height="22.05"/><polyline class="cls-6" points="142.23 78.29 160.58 89.31 178.92 78.29"/><line class="cls-6" x1="136.23" y1="92.71" x2="123.7" y2="92.71"/><line class="cls-6" x1="136.23" y1="96.52" x2="119.14" y2="96.52"/><line class="cls-6" x1="136.23" y1="100.34" x2="114.37" y2="100.34"/><path class="cls-6" d="M322.58,408.43a13.45,13.45,0,0,0,1.65-.84l1.94,1.9,5-5.06-1.94-1.9a14.23,14.23,0,0,0,1.38-3.44l2.71,0-.07-7.09-2.72,0a12.52,12.52,0,0,0-.61-1.75,15.17,15.17,0,0,0-.84-1.66l1.9-1.94-5.06-5-1.9,1.94a13.84,13.84,0,0,0-3.44-1.38l0-2.72-7.08.08,0,2.71a15.77,15.77,0,0,0-1.75.61,13.64,13.64,0,0,0-1.66.85l-1.94-1.91-5,5.07,2,1.9a13.77,13.77,0,0,0-1.38,3.43l-2.72,0,.07,7.09,2.72,0a16.51,16.51,0,0,0,.61,1.75,14.18,14.18,0,0,0,.84,1.65l-1.9,1.94,5.07,5,1.9-1.94a14.16,14.16,0,0,0,3.43,1.38l0,2.71,7.09-.07,0-2.72A13.49,13.49,0,0,0,322.58,408.43Zm-9.59-11a4.51,4.51,0,1,1,5.92,2.38A4.52,4.52,0,0,1,313,397.46Z"/><path class="cls-6" d="M347,416.78a10.09,10.09,0,0,0,1.22-.23l.88,1.59,4.14-2.31-.88-1.59a9.55,9.55,0,0,0,1.53-1.94l1.76.49,1.29-4.56-1.75-.5a8.65,8.65,0,0,0-.06-1.24,9.73,9.73,0,0,0-.23-1.22l1.59-.89-2.31-4.14-1.59.89a9.26,9.26,0,0,0-1.94-1.54l.49-1.75-4.56-1.29-.5,1.75a8.65,8.65,0,0,0-1.24.06,10.06,10.06,0,0,0-1.22.22l-.88-1.58-4.15,2.31.89,1.59a9.33,9.33,0,0,0-1.54,1.94l-1.75-.5-1.29,4.57,1.75.49a8.58,8.58,0,0,0,.06,1.24,9.4,9.4,0,0,0,.23,1.22l-1.59.89,2.31,4.14,1.59-.88a9.55,9.55,0,0,0,1.94,1.53l-.49,1.75,4.56,1.3.5-1.75A10.5,10.5,0,0,0,347,416.78Zm-4.08-8.86a3,3,0,1,1,3.35,2.65A3,3,0,0,1,342.91,407.92Z"/><path class="cls-6" d="M344.68,391.8a6.8,6.8,0,0,0,.92-.18l.67,1.2,3.12-1.74-.67-1.2a6.84,6.84,0,0,0,1.16-1.46l1.32.37,1-3.44-1.32-.37a7.25,7.25,0,0,0-.05-.93,6.8,6.8,0,0,0-.17-.92l1.2-.67-1.74-3.12-1.2.67a7.16,7.16,0,0,0-1.47-1.16l.38-1.32-3.44-1-.37,1.32a7.5,7.5,0,0,0-.94.05,5.73,5.73,0,0,0-.92.17l-.67-1.2-3.12,1.74.67,1.2a7.38,7.38,0,0,0-1.16,1.46l-1.32-.37-1,3.44,1.32.37a7.47,7.47,0,0,0,0,.94,9.32,9.32,0,0,0,.17.92l-1.19.67,1.74,3.12,1.2-.67a6.84,6.84,0,0,0,1.46,1.16l-.37,1.31,3.43,1,.38-1.32A7.23,7.23,0,0,0,344.68,391.8Zm-3.07-6.68a2.28,2.28,0,1,1,2.53,2A2.27,2.27,0,0,1,341.61,385.12Z"/><path class="cls-6" d="M127.84,71.36l-6.53-4.93a2.17,2.17,0,0,1-.43-3h0a2.18,2.18,0,0,1,3-.42h0l4.9,3.7,6.84-8.08a2.18,2.18,0,0,1,3.06-.25h0A2.18,2.18,0,0,1,139,61.4h0L130.8,71a2.18,2.18,0,0,1-1.65.76h0a2.13,2.13,0,0,1-1.31-.44Z"/><polygon class="cls-6" points="107.45 125.14 101.14 118.83 107.45 112.52 103.07 108.14 96.76 114.46 90.45 108.14 86.07 112.52 92.39 118.83 86.07 125.14 90.45 129.52 96.76 123.21 103.07 129.52 107.45 125.14"/><path class="cls-7" d="M411,111.83H365v-5.52a4.7,4.7,0,0,0-4.7-4.7h-.11a4.71,4.71,0,0,0-4.71,4.7v5.52H189.85v-5.52a4.7,4.7,0,0,0-4.7-4.7H185a4.71,4.71,0,0,0-4.7,4.7v5.52H134.1a9.49,9.49,0,0,0-9.49,9.49V360.94a9.49,9.49,0,0,0,9.49,9.49H411a9.49,9.49,0,0,0,9.5-9.49V121.32A9.49,9.49,0,0,0,411,111.83Z"/><rect class="cls-8" x="117.23" y="116.45" width="296.65" height="250.35" rx="9.87"/><path class="cls-8" d="M404,116.83a9.49,9.49,0,0,1,9.5,9.49V356.94a9.49,9.49,0,0,1-9.5,9.49H127.1a9.49,9.49,0,0,1-9.49-9.49V126.32a9.49,9.49,0,0,1,9.49-9.49H404m0-.75H127.1a10.25,10.25,0,0,0-10.24,10.24V356.94a10.25,10.25,0,0,0,10.24,10.24H404a10.26,10.26,0,0,0,10.25-10.24V126.32A10.26,10.26,0,0,0,404,116.08Z"/><rect class="cls-2" x="210.2" y="129.52" width="110.72" height="3.78"/><rect class="cls-2" x="195.85" y="139.99" width="139.42" height="3.78"/><rect class="cls-2" x="117.61" y="155.07" width="42.27" height="42.27"/><circle class="cls-9" cx="127.42" cy="164.96" r="5"/><line class="cls-10" x1="131.61" y1="176.62" x2="151.46" y2="176.62"/><line class="cls-10" x1="126.03" y1="176.62" x2="129.12" y2="176.62"/><line class="cls-10" x1="131.61" y1="183.4" x2="151.46" y2="183.4"/><line class="cls-10" x1="126.03" y1="183.4" x2="129.12" y2="183.4"/><rect class="cls-2" x="202.15" y="155.07" width="42.27" height="42.27"/><circle class="cls-9" cx="211.97" cy="164.96" r="5"/><rect class="cls-2" x="244.42" y="155.07" width="42.27" height="42.27"/><circle class="cls-9" cx="254.24" cy="164.96" r="5"/><rect class="cls-2" x="286.69" y="155.07" width="42.27" height="42.27"/><circle class="cls-9" cx="296.51" cy="164.96" r="5"/><line class="cls-10" x1="300.7" y1="176.62" x2="320.54" y2="176.62"/><line class="cls-10" x1="295.12" y1="176.62" x2="298.21" y2="176.62"/><line class="cls-10" x1="300.7" y1="183.4" x2="320.54" y2="183.4"/><line class="cls-10" x1="295.12" y1="183.4" x2="298.21" y2="183.4"/><line class="cls-10" x1="300.7" y1="190.18" x2="320.54" y2="190.18"/><line class="cls-10" x1="295.12" y1="190.18" x2="298.21" y2="190.18"/><rect class="cls-2" x="328.96" y="155.07" width="42.27" height="42.27"/><circle class="cls-9" cx="338.78" cy="164.96" r="5"/><rect class="cls-2" x="371.24" y="155.07" width="42.27" height="42.27"/><circle class="cls-9" cx="381.05" cy="164.96" r="5"/><rect class="cls-2" x="117.61" y="197.34" width="42.27" height="42.27"/><circle class="cls-9" cx="127.42" cy="207.24" r="5"/><rect class="cls-2" x="328.96" y="197.34" width="42.27" height="42.27"/><circle class="cls-9" cx="338.78" cy="207.24" r="5"/><rect class="cls-2" x="371.24" y="197.34" width="42.27" height="42.27"/><circle class="cls-9" cx="381.05" cy="207.24" r="5"/><rect class="cls-2" x="117.61" y="239.61" width="42.27" height="42.27"/><circle class="cls-9" cx="127.42" cy="249.51" r="5"/><rect class="cls-2" x="202.15" y="239.61" width="42.27" height="42.27"/><circle class="cls-9" cx="211.97" cy="249.51" r="5"/><rect class="cls-2" x="244.42" y="239.61" width="42.27" height="42.27"/><circle class="cls-9" cx="254.24" cy="249.51" r="5"/><rect class="cls-2" x="286.69" y="239.61" width="42.27" height="42.27"/><circle class="cls-9" cx="296.51" cy="249.51" r="5"/><rect class="cls-2" x="328.96" y="239.61" width="42.27" height="42.27"/><circle class="cls-9" cx="338.78" cy="249.51" r="5"/><line class="cls-10" x1="342.97" y1="261.17" x2="362.81" y2="261.17"/><line class="cls-10" x1="337.39" y1="261.17" x2="340.48" y2="261.17"/><line class="cls-10" x1="342.97" y1="267.94" x2="362.81" y2="267.94"/><line class="cls-10" x1="337.39" y1="267.94" x2="340.48" y2="267.94"/><rect class="cls-2" x="371.24" y="239.61" width="42.27" height="42.27"/><circle class="cls-9" cx="381.05" cy="249.51" r="5"/><rect class="cls-2" x="117.61" y="281.89" width="42.27" height="42.27"/><circle class="cls-9" cx="127.42" cy="291.78" r="5"/><rect class="cls-2" x="202.15" y="281.89" width="42.27" height="42.27"/><circle class="cls-9" cx="211.97" cy="291.78" r="5"/><line class="cls-10" x1="216.16" y1="303.44" x2="236" y2="303.44"/><line class="cls-10" x1="210.57" y1="303.44" x2="213.66" y2="303.44"/><line class="cls-10" x1="216.16" y1="310.22" x2="236" y2="310.22"/><line class="cls-10" x1="210.57" y1="310.22" x2="213.66" y2="310.22"/><rect class="cls-2" x="286.69" y="281.89" width="42.27" height="42.27"/><circle class="cls-9" cx="296.51" cy="291.78" r="5"/><rect class="cls-2" x="328.96" y="281.89" width="42.27" height="42.27"/><circle class="cls-9" cx="338.78" cy="291.78" r="5"/><rect class="cls-2" x="371.24" y="281.89" width="42.27" height="42.27"/><circle class="cls-9" cx="381.05" cy="291.78" r="5"/><path class="cls-2" d="M117.61,324.16h42.27a0,0,0,0,1,0,0v42.27a0,0,0,0,1,0,0H126.76a9.15,9.15,0,0,1-9.15-9.15V324.16A0,0,0,0,1,117.61,324.16Z"/><circle class="cls-9" cx="127.42" cy="334.05" r="5"/><rect class="cls-2" x="159.88" y="197.34" width="42.27" height="42.27"/><circle class="cls-9" cx="169.7" cy="207.24" r="5"/><rect class="cls-2" x="159.88" y="155.07" width="42.27" height="42.27"/><circle class="cls-9" cx="169.7" cy="164.96" r="5"/><rect class="cls-2" x="159.88" y="239.61" width="42.27" height="42.27"/><circle class="cls-9" cx="169.7" cy="249.51" r="5"/><rect class="cls-2" x="159.88" y="281.89" width="42.27" height="42.27"/><circle class="cls-9" cx="169.7" cy="291.78" r="5"/><rect class="cls-2" x="159.88" y="324.16" width="42.27" height="42.27"/><circle class="cls-9" cx="169.7" cy="334.05" r="5"/><rect class="cls-2" x="202.15" y="324.16" width="42.27" height="42.27"/><circle class="cls-9" cx="211.97" cy="334.05" r="5"/><rect class="cls-2" x="244.42" y="324.16" width="42.27" height="42.27"/><circle class="cls-9" cx="254.24" cy="334.05" r="5"/><rect class="cls-2" x="286.69" y="324.16" width="42.27" height="42.27"/><circle class="cls-9" cx="296.51" cy="334.05" r="5"/><rect class="cls-2" x="328.96" y="324.16" width="42.27" height="42.27"/><rect class="cls-11" x="332.17" y="334.05" width="35.87" height="29.18" rx="3.45"/><circle class="cls-9" cx="338.78" cy="334.05" r="5"/><line class="cls-10" x1="342.97" y1="345.71" x2="362.81" y2="345.71"/><line class="cls-10" x1="337.39" y1="345.71" x2="340.48" y2="345.71"/><path class="cls-2" d="M371.24,324.16h42.27a0,0,0,0,1,0,0v33.08a9.19,9.19,0,0,1-9.19,9.19H371.24a0,0,0,0,1,0,0V324.16a0,0,0,0,1,0,0Z"/><circle class="cls-9" cx="381.05" cy="334.05" r="5"/><rect class="cls-2" x="244.42" y="197.34" width="42.27" height="42.27"/><rect class="cls-11" x="247.62" y="207.24" width="35.87" height="29.18" rx="3.45"/><circle class="cls-9" cx="254.24" cy="207.24" r="5"/><line class="cls-10" x1="258.43" y1="218.89" x2="278.27" y2="218.89"/><line class="cls-10" x1="252.85" y1="218.89" x2="255.94" y2="218.89"/><rect class="cls-2" x="286.69" y="197.34" width="42.27" height="42.27"/><rect class="cls-11" x="289.89" y="207.24" width="35.87" height="29.18" rx="3.45"/><circle class="cls-9" cx="296.51" cy="207.24" r="5"/><line class="cls-10" x1="300.7" y1="218.89" x2="320.54" y2="218.89"/><line class="cls-10" x1="295.12" y1="218.89" x2="298.21" y2="218.89"/><rect class="cls-2" x="244.42" y="281.89" width="42.27" height="42.27"/><rect class="cls-12" x="247.62" y="291.78" width="35.87" height="29.18" rx="3.45"/><circle class="cls-9" cx="254.24" cy="291.78" r="5"/><rect class="cls-2" x="202.15" y="197.34" width="42.27" height="42.27"/><rect class="cls-11" x="205.35" y="207.24" width="35.87" height="29.18" rx="3.45"/><circle class="cls-9" cx="211.97" cy="207.24" r="5"/><line class="cls-10" x1="216.16" y1="218.89" x2="236" y2="218.89"/><line class="cls-10" x1="210.57" y1="218.89" x2="213.66" y2="218.89"/><line class="cls-10" x1="216.16" y1="218.89" x2="236" y2="218.89"/><line class="cls-10" x1="210.57" y1="218.89" x2="213.66" y2="218.89"/><line class="cls-10" x1="216.16" y1="225.67" x2="236" y2="225.67"/><line class="cls-10" x1="210.57" y1="225.67" x2="213.66" y2="225.67"/><line class="cls-10" x1="216.16" y1="232.45" x2="236" y2="232.45"/><line class="cls-10" x1="210.57" y1="232.45" x2="213.66" y2="232.45"/><line class="cls-13" x1="117.61" y1="197.33" x2="413.51" y2="197.33"/><line class="cls-13" x1="117.61" y1="239.61" x2="413.51" y2="239.61"/><line class="cls-13" x1="159.88" y1="155.06" x2="159.88" y2="366.46"/><line class="cls-13" x1="202.15" y1="155.06" x2="202.15" y2="366.46"/><line class="cls-13" x1="244.42" y1="155.06" x2="244.42" y2="366.46"/><line class="cls-13" x1="286.69" y1="155.06" x2="286.69" y2="366.46"/><line class="cls-13" x1="328.96" y1="155.06" x2="328.96" y2="366.46"/><line class="cls-13" x1="371.24" y1="155.06" x2="371.24" y2="366.46"/><line class="cls-13" x1="117.61" y1="281.88" x2="413.51" y2="281.88"/><line class="cls-13" x1="117.61" y1="324.15" x2="413.51" y2="324.15"/><path class="cls-14" d="M171.15,116.83V135a6.86,6.86,0,0,0,6.86,6.86h.17A6.86,6.86,0,0,0,185,135V116.83Z"/><rect class="cls-15" x="173.33" y="106.61" width="9.52" height="31.09" rx="4.7"/><path class="cls-16" d="M178.15,133.82H178a4.71,4.71,0,0,1-4.7-4.71V133a4.7,4.7,0,0,0,4.7,4.7h.12a4.69,4.69,0,0,0,4.7-4.7v-3.89A4.7,4.7,0,0,1,178.15,133.82Z"/><path class="cls-14" d="M346.29,116.83V135a6.86,6.86,0,0,0,6.86,6.86h.17a6.86,6.86,0,0,0,6.86-6.86V116.83Z"/><rect class="cls-15" x="348.47" y="106.61" width="9.52" height="31.09" rx="4.7"/><path class="cls-16" d="M353.29,133.82h-.11a4.71,4.71,0,0,1-4.71-4.71V133a4.7,4.7,0,0,0,4.71,4.7h.11A4.69,4.69,0,0,0,358,133v-3.89A4.7,4.7,0,0,1,353.29,133.82Z"/><g class="cls-17"><path class="cls-18" d="M275.42,330a.5.5,0,0,0,0-.12,0,0,0,0,0,0,0s0,0-.05,0h0l-.07.13h0a4.21,4.21,0,0,0-4.48-4.77l0-.07V325a0,0,0,0,0,0,0s0,0,0,0c-1.19-3.46-3.56-2.86-4.36-2.82a15,15,0,0,0,.61-2.39s0,0,0,0h0c.57-1.53,1.33-3.6,1.92-5.35,1.42-4.19-2.92-7.5-5.83-.38-.62,1.5-9.42,19.6-10.09,19.91s-2.2-1.47-4.12-7.07c-1.77-5.16-5.28-1.57-4.67,1.68.57,3,2.38,12.58,2.64,14h0l0,.18c-.25.57-.5,1.12-.76,1.67-.08.16-.16.33-.23.5l-.42.83c-2.47-1-4-1.43-4-1.43-5.91,6.87-5.15,11.71-5.15,11.71a21.27,21.27,0,0,0,1.51,1.71l-.53.68-.06.07c-.48.57-1,1.13-1.43,1.67a55.81,55.81,0,0,1-6.52,6.3h38.38a16.88,16.88,0,0,0,2-6.57c-1-.89-2.07-1.73-3.13-2.54,5.26-8.16,9.45-15.54,10.79-19.91C279.44,330.32,276.19,330,275.42,330Z"/><path class="cls-18" d="M204.83,362.59l-.8-.69c-3-2.58-6.1-5.48-9.26-8.51l-2.87-2.78-.11-.11c-4.95-4.82-9.83-9.77-14.08-14.07l-1-1c-5.09-8.91-8.78-15.58-11-21.68-.2-.56-.4-1.12-.57-1.67l-.26-.83c30.07,3.82,23.44-26.43,23.44-26.43s4.77-1.93,2.26-5.73-4.46-5.83-5.44-10.18a24.36,24.36,0,0,1-.43-3,62.52,62.52,0,0,1-.13-6.46c.41-.3.83-.61,1.24-.95a26.07,26.07,0,0,0,2.36-2.14,20.29,20.29,0,0,0,3.87-5.48,16.73,16.73,0,0,0,1.58-7.19,4.7,4.7,0,0,0,0-.63l0-.2c0-.16-.07-.33-.11-.49a1.55,1.55,0,0,0-.07-.23,4.11,4.11,0,0,0-.19-.56l-.06-.18c-.11-.26-.22-.52-.35-.79a.59.59,0,0,1,0-.08c-.13-.25-.26-.5-.4-.75,0-.08-.09-.15-.13-.22-.13-.22-.27-.45-.42-.68l-.13-.21-.6-.87,0,0c-.23-.32-.49-.66-.75-1l0,0c-.25-.32-.52-.63-.79-1a1.34,1.34,0,0,1-.11-.14c-.27-.3-.54-.61-.83-.92l-.07-.08c-1-1-2.05-2.1-3.24-3.16l-.06-.06c-1.2-1.07-2.51-2.15-3.92-3.2h0c-15.67-11.76-43.07-21.09-63.64,1.26V356.94a9.49,9.49,0,0,0,9.49,9.49h82.41C208,365.28,206.46,364,204.83,362.59Z"/></g><path class="cls-19" d="M404,116.83h-5.44V342.54a9.49,9.49,0,0,1-9.49,9.49H117.61v4.91a9.49,9.49,0,0,0,9.49,9.49H404a9.49,9.49,0,0,0,9.5-9.49V126.32A9.49,9.49,0,0,0,404,116.83Z"/><circle class="cls-15" cx="398.3" cy="346.51" r="47.16" transform="translate(-128.36 383.13) rotate(-45)"/><circle class="cls-7" cx="401.7" cy="351.05" r="47.16" transform="translate(-130.57 386.87) rotate(-45)"/><circle class="cls-15" cx="398.3" cy="346.51" r="47.16" transform="translate(-128.36 383.13) rotate(-45)"/><path class="cls-20" d="M398.3,301.19a47.14,47.14,0,0,1,47.13,46.24c0-.31,0-.61,0-.92a47.16,47.16,0,1,0-94.32,0c0,.31,0,.61,0,.92A47.15,47.15,0,0,1,398.3,301.19Z"/><circle class="cls-16" cx="398.3" cy="346.51" r="43.09"/><circle class="cls-2" cx="398.3" cy="346.51" r="41.11"/><path class="cls-19" d="M398.3,382.83a41.11,41.11,0,0,1-41-38.72c0,.8-.08,1.59-.08,2.4a41.11,41.11,0,0,0,82.22,0c0-.81,0-1.6-.08-2.4A41.11,41.11,0,0,1,398.3,382.83Z"/><line class="cls-10" x1="398.3" y1="307.9" x2="398.3" y2="310.19"/><line class="cls-10" x1="398.3" y1="382.83" x2="398.3" y2="385.12"/><line class="cls-10" x1="436.91" y1="346.51" x2="434.62" y2="346.51"/><line class="cls-10" x1="361.98" y1="346.51" x2="359.69" y2="346.51"/><polygon class="cls-8" points="412.97 339.08 398.33 345.44 384.56 322.03 397.95 347.89 412.97 339.08"/><path class="cls-21" d="M400.13,346.51a1.84,1.84,0,1,1-1.83-1.84A1.83,1.83,0,0,1,400.13,346.51Z"/><path class="cls-22" d="M187.35,500c1.68-23.85-.66-42.54-14.36-55.49l-92.46-3.27S59.67,460.58,66.3,500Z"/><path class="cls-5" d="M185.7,455.92s-18.79-18.06-9.67-57.75c1.27-5.53,11.38-16.86,12.56-28.71s-27-49.84-32.3-57.36c-9.32-13.23-52.07-5.37-52.07-5.37S88.13,319.8,92.85,366.46c1.84,18.24,1.9,37,.75,45s-15.94,32.15-15.94,32.15S115.05,487.46,185.7,455.92Z"/><g class="cls-23"><path class="cls-2" d="M94.06,406.87c0,.34,0,.67-.08,1h80.31c0-.33.09-.66.13-1Z"/><path class="cls-2" d="M89.42,422.42c-.16.33-.32.66-.49,1h84.74c0-.33,0-.66,0-1Z"/><path class="cls-2" d="M89.53,453.52l1.53,1h93.39c-.24-.28-.5-.62-.78-1Z"/><path class="cls-2" d="M94.32,391.32c0,.33,0,.66,0,1h84.43l.57-1Z"/><path class="cls-2" d="M81,438l-.57,1h96c-.1-.33-.2-.65-.3-1Z"/><path class="cls-2" d="M92.33,360.22c0,.33,0,.65.07,1h94.41c-.13-.33-.25-.66-.39-1Z"/><path class="cls-2" d="M93.63,375.77c0,.33.05.66.07,1h93.14c.11-.33.24-.66.35-1Z"/><path class="cls-2" d="M99.26,313.56c-.17.32-.35.65-.52,1H158c-.26-.35-.49-.68-.71-1Z"/><path class="cls-2" d="M93.92,329.12c-.06.32-.12.65-.19,1h75.2l-.67-1Z"/><path class="cls-2" d="M92.1,344.67l0,1h86.79l-.59-1Z"/></g><path class="cls-24" d="M185.7,455.92s-18.79-18.06-9.67-57.75c1.27-5.53,11.38-16.86,12.56-28.71.4-4-2.52-10.9-6.76-18.62-17.35.74-33.76,3.53-21.06,12.29,23.1,15.93,16.81,27,12.9,28.19s-12.6,0-8,3.69,6.4,15-.23,12.85-14.24,0-4,10.45,9.05,26.15-25.75,27.57c-27.26,1.12-45.65-8-52.33-12-3.1,5.5-5.68,9.72-5.68,9.72S115.05,487.46,185.7,455.92Z"/><path class="cls-25" d="M271.26,324a4.21,4.21,0,0,0-4.48-4.77c-1.47-4.74-5.07-2.42-4.7-3.25,0,0,1.66-4.35,2.75-7.57,1.42-4.19-2.92-7.5-5.83-.38-.62,1.5-9.42,19.6-10.09,19.91s-2.2-1.47-4.12-7.07c-1.77-5.16-5.28-1.57-4.67,1.68s2.68,14.15,2.68,14.15c-7.4,16.87-19.7,26.73-26.31,29S183.3,340,169.23,325.9s-34.22,10.42-21.44,24,34.49,35,53.58,46.39c17.53,10.46,34.57-8,43.87-20.37,11.24-14.93,25.35-35.74,28-44.5C275.72,323.41,271.26,324,271.26,324Z"/><path class="cls-26" d="M242.78,336.72a63.86,63.86,0,0,1-17.85,23.94,154.11,154.11,0,0,0,22.19,12.7c5.91-8,12.36-17.21,17.43-25.32a77.84,77.84,0,0,0-21.8-11.5Z"/><path class="cls-27" d="M259.58,321.62a22.65,22.65,0,0,1,1.45-4c.58-1.28,1.14-2.5,1.85-3.81h0a0,0,0,0,1,.05,0s0,0,0,0a17.64,17.64,0,0,1-1.27,4.09,33.27,33.27,0,0,1-2,3.76s0,0-.05,0a.05.05,0,0,1,0,0Z"/><path class="cls-27" d="M264.45,324.76a9.37,9.37,0,0,0,.79-1.37,11,11,0,0,0,.54-1.34c.17-.46.28-.94.43-1.43s.27-1,.47-1.58h0s0,0,0,0a0,0,0,0,1,0,0,11.07,11.07,0,0,1,0,1.63,7.39,7.39,0,0,1-.31,1.61,4.78,4.78,0,0,1-2,2.55s0,0,0,0a0,0,0,0,1,0,0Z"/><path class="cls-27" d="M269.29,329.05a12.78,12.78,0,0,0,.49-1.32l.41-1.26a12,12,0,0,1,1.18-2.59h0s0,0,.05,0a0,0,0,0,1,0,0,13.07,13.07,0,0,1-.57,2.82,7.66,7.66,0,0,1-.6,1.3,3.55,3.55,0,0,1-.94,1.1h0a.06.06,0,0,1,0,0Z"/><path class="cls-5" d="M237.72,346.18c-7.12,11.11-16,17.74-21.23,19.57-6.61,2.3-33.19-25.73-47.26-39.85s-34.22,10.42-21.44,24,34.49,35,53.58,46.39c17.53,10.46,34.57-8,43.87-20.37,3.86-5.13,8.07-11,12-16.76Z"/><g class="cls-23"><path class="cls-2" d="M188.43,345.13l-.78-.76-11.79,32.76c.27.23.54.46.8.7Z"/><path class="cls-2" d="M176.26,333l-.77-.78-12.05,33.49.78.75Z"/><path class="cls-2" d="M163.59,322.28c-.31-.11-.63-.2-1-.28l-11.35,31.56.76.79Z"/><path class="cls-2" d="M200.83,356.59c-.27-.23-.54-.46-.8-.7l-11.4,31.69.83.62Z"/><path class="cls-2" d="M251,355l-.85-.57-10,27.85c.63-.73,1.24-1.45,1.83-2.17Z"/><path class="cls-2" d="M237.51,346.5c-.71,1.1-1.45,2.15-2.19,3.16l-17.6,48.93q.59-.15,1.17-.33Z"/><path class="cls-2" d="M214.1,365.62q-.43-.14-.93-.33l-11.25,31.28c.29.17.59.34.88.48Z"/></g><path class="cls-24" d="M231.63,354.24a41.93,41.93,0,0,0,15.65,11.05s-16.49,22.06-31.4,26c-12.81,3.41-32-7.49-32-7.49a156.71,156.71,0,0,0,17.53,12.45c17.53,10.46,34.57-8,43.87-20.37,3.86-5.13,8.07-11,12-16.76l-19.55-13A65.75,65.75,0,0,1,231.63,354.24Z"/><path class="cls-28" d="M237.38,338.29s15.94,4.89,28.23,15.57c0,0-.41,8.73-8.42,12.73,0,0-18.52-8.35-25-16.59C232.23,350,231.47,345.16,237.38,338.29Z"/><path class="cls-29" d="M235,350.44c.89-6.3,4.55-8.9,4.55-8.9"/><path class="cls-29" d="M238.35,353.46s1-7.14,5.81-10.87"/><path class="cls-29" d="M242.47,356.43s1.35-7.9,6.45-11.61"/><path class="cls-29" d="M246.25,359.26s4.72-6.21,6.55-12.21"/><path class="cls-29" d="M250.5,362.23a20.2,20.2,0,0,0,6.77-11.79"/><path class="cls-29" d="M255.56,364.19a15.09,15.09,0,0,0,6.35-10.26"/><line class="cls-30" x1="262.67" y1="298.41" x2="269.1" y2="286.13"/><line class="cls-30" x1="266.37" y1="301.56" x2="274.8" y2="293.89"/><line class="cls-30" x1="268.44" y1="305.63" x2="276.32" y2="303.18"/><path class="cls-31" d="M169.23,325.9a14.41,14.41,0,0,0-5.72-3.65c-3.27-4.65-5.93-8.31-7.22-10.15-9.32-13.23-52.07-5.37-52.07-5.37S88.13,319.8,92.85,366.46c.88,8.76,1.35,17.64,1.48,25.39,9.77,2.5,32.12,4.87,53.79.46,27.59-5.62,49.9-18.61,42.65-44.92C183,339.93,175,331.73,169.23,325.9Z"/><path class="cls-25" d="M186.59,273.08c-2.56-3.86-4.46-5.83-5.44-10.18s-.45-12.37-.45-12.37c-36-1.71-70.22,40.47-30,52.47,41.69,12.45,33.66-24.19,33.66-24.19S189.1,276.88,186.59,273.08Z"/><path class="cls-32" d="M180.7,250.53a50.53,50.53,0,0,0-22.34,4.29,84.66,84.66,0,0,0,10.57,6.94,34.44,34.44,0,0,0,11.8-1.87A74.53,74.53,0,0,1,180.7,250.53Z"/><path class="cls-21" d="M162.23,277.06s10.62,1.29,10.18-19.29c0,0,17.24-5.76,17.23-20.11,0-11.07-47.93-49.25-78.39-11.45,0,0-18.76,2.1-18.37,30.57.18,13-2.83,39.24-19.21,68.6-14.93,26.78,0,55,23.06,60.49,37.3,8.85,104.84-5.48,82.27-45.43C161.07,308.72,154.91,301.64,162.23,277.06Z"/><g class="cls-33"><path class="cls-2" d="M150.37,289.34c-.16,3.68-.09,7.36.07,11s.43,7.35.84,11A133.09,133.09,0,0,0,155.37,333a98.39,98.39,0,0,0,3.5,10.44,86.62,86.62,0,0,0,4.77,9.9,68.4,68.4,0,0,0,6.24,9.06,58.45,58.45,0,0,0,7.84,7.73,58.19,58.19,0,0,1-8.11-7.51,69.86,69.86,0,0,1-6.45-9,86.89,86.89,0,0,1-8.48-20.42,129,129,0,0,1-4-21.77A135.83,135.83,0,0,1,150.37,289.34Z"/><path class="cls-2" d="M140,307.23c-.48,3.26-.82,6.54-1,9.82-.11,1.65-.21,3.29-.29,4.93s-.11,3.29-.12,4.94a150.74,150.74,0,0,0,1,19.7c.29,3.27.9,6.51,1.38,9.76.7,3.22,1.25,6.46,2.13,9.63.42,1.59.79,3.2,1.26,4.78l1.5,4.7c.26.78.47,1.58.76,2.35l.88,2.31,1.76,4.62a120.09,120.09,0,0,1-6.69-18.62l-.66-2.38c-.23-.8-.36-1.62-.55-2.42l-1-4.85c-.51-3.26-1.14-6.51-1.45-9.8a142.27,142.27,0,0,1-.86-19.79c0-1.65.15-3.3.22-5s.24-3.29.39-4.94C139,313.74,139.45,310.47,140,307.23Z"/><path class="cls-2" d="M113.84,388.39c1.13-2.53,2.07-5.13,3-7.74.44-1.31.89-2.61,1.28-3.94s.82-2.63,1.18-4c1.49-5.31,2.77-10.68,3.76-16.12s1.82-10.89,2.31-16.39.84-11,1-16.54c0,2.76.06,5.53,0,8.3s-.19,5.54-.46,8.29l-.36,4.14-.53,4.12c-.15,1.38-.36,2.75-.59,4.11s-.42,2.74-.68,4.1a159,159,0,0,1-3.94,16.15A103.34,103.34,0,0,1,113.84,388.39Z"/><path class="cls-2" d="M87.22,382.07a48.53,48.53,0,0,0,8.34-9c1.29-1.59,2.36-3.33,3.52-5s2.1-3.5,3.15-5.25a119.62,119.62,0,0,0,9.45-22.56,173.56,173.56,0,0,0,5.61-23.85c.61-4,1.09-8.1,1.63-12.16l1-12.24-.66,12.27c-.47,4.07-.89,8.15-1.44,12.22l-1.06,6.06-.54,3c-.19,1-.47,2-.69,3l-1.44,6c-.5,2-1.16,3.93-1.74,5.9a116.29,116.29,0,0,1-9.65,22.62c-1.09,1.74-2.12,3.52-3.25,5.23s-2.3,3.4-3.63,5A48.79,48.79,0,0,1,87.22,382.07Z"/><path class="cls-2" d="M71.76,365.37a39.22,39.22,0,0,0,6.57-5.49A64,64,0,0,0,84,353.45a87.21,87.21,0,0,0,9-14.54l1.87-3.85,1.63-4c1.17-2.61,1.94-5.37,2.94-8.05s1.6-5.48,2.42-8.23l2-8.36-1.63,8.45-1.09,4.16c-.39,1.38-.67,2.79-1.15,4.15l-1.35,4.09c-.23.68-.43,1.37-.7,2l-.8,2-1.62,4-1.85,3.89a83.45,83.45,0,0,1-9.19,14.56A49.94,49.94,0,0,1,71.76,365.37Z"/><path class="cls-2" d="M68.08,345.94a52.52,52.52,0,0,0,6.09-6.21c.93-1.11,1.88-2.21,2.73-3.39l1.31-1.73,1.23-1.8a96.43,96.43,0,0,0,8.41-15.18l1.65-4c.26-.67.57-1.33.8-2l.69-2.06c.45-1.38,1-2.74,1.36-4.13l1.14-4.19.57-2.1L94.5,297l.89-4.27c.53-2.85.88-5.74,1.34-8.61-.34,2.89-.58,5.79-1,8.67l-.78,4.3-.4,2.15L94,301.34l-1.08,4.24c-.4,1.4-.89,2.77-1.34,4.16l-.68,2.08c-.22.69-.53,1.36-.79,2l-1.62,4.06a93,93,0,0,1-8.62,15.21A62,62,0,0,1,68.08,345.94Z"/></g><path class="cls-34" d="M177.25,222.23c5,6.59,7.76,14,6,18.72-3.5,9.57-16.36,15.9-16.36,15.9,1.94,14.83-7,20.08-7,20.08-13.63,8.36-5.46,35.65,1.74,56.9s-3.24,39.06-49.35,35.1c-29.86-2.56-39.6-21.15-42.76-33.94-7.15,23.58,6.84,46.06,27.15,50.88,37.3,8.85,104.84-5.48,82.27-45.43-17.93-31.72-24.09-38.8-16.77-63.38,0,0,10.62,1.29,10.18-19.29,0,0,17.24-5.76,17.23-20.11C189.64,234.15,184.81,227.9,177.25,222.23Z"/><path class="cls-25" d="M166.12,284.26c-2.74,1.24-7.79,1.88-9.92-2.11-3.68-6.86,1.81-14,7.45-13,2.35.41,4.7,3.41,5.28,6"/><path class="cls-27" d="M158.49,272.56a4.06,4.06,0,0,1,1.85-1.23,4.88,4.88,0,0,1,2.28-.1,5,5,0,0,1,2.13.94,2.7,2.7,0,0,1,1.05,2.21.34.34,0,0,1-.36.32.44.44,0,0,1-.15-.05h0a7.19,7.19,0,0,0-2.19-.8,5.25,5.25,0,0,0-2.3.07,4.5,4.5,0,0,0-2,1.23,8.23,8.23,0,0,0-1.4,2,7.18,7.18,0,0,1,1.15-2.21,4.91,4.91,0,0,1,2.07-1.51,5.22,5.22,0,0,1,2.57-.21,7.2,7.2,0,0,1,2.45.84l-.54.26a2.06,2.06,0,0,0-.79-1.6,4.67,4.67,0,0,0-1.81-.9A4.45,4.45,0,0,0,158.49,272.56Z"/><path class="cls-2" d="M164.59,283.26a.88.88,0,1,1-.88-.88A.87.87,0,0,1,164.59,283.26Z"/><path class="cls-2" d="M161.72,282.74a1.41,1.41,0,1,1-1.4-1.4A1.4,1.4,0,0,1,161.72,282.74Z"/><path class="cls-35" d="M182.79,458.46c-6.49,2.67-31.28,11.9-57.24,8.9-30.24-3.49-48.79-21.12-48.79-21.12l-.54.22a56.79,56.79,0,0,0-4.74,8.2c1.66,4.64,10.79,22.62,53.19,27.21,36.67,4,55.9-6.51,61.88-10.63A55.47,55.47,0,0,0,182.79,458.46Z"/><path class="cls-28" d="M76.76,441.24s18.55,17.63,48.79,21.12,58.9-9.61,58.9-9.61,5.6,3.18,4.18,11.91c0,0-18.69,17.1-64,12.21-48.79-5.28-53.53-28.3-53.53-28.3A7.91,7.91,0,0,1,76.76,441.24Z"/><path class="cls-29" d="M72.91,449.56a8.14,8.14,0,0,1,3.81-4.94"/><path class="cls-29" d="M76.72,455.07a10.66,10.66,0,0,1,6-7.29"/><path class="cls-29" d="M84.23,462a15.86,15.86,0,0,1,6-9.59"/><path class="cls-29" d="M95.37,468.58s-1-6.58,3.85-10.92"/><path class="cls-29" d="M112,462.48s-4.77,3.38-2.21,10.65"/><path class="cls-29" d="M124.27,464.23s-2.53,5.41-.78,10.83"/><path class="cls-29" d="M137,465.27a16.69,16.69,0,0,1,0,11.19"/><path class="cls-29" d="M148.15,464.23s4.19,6.39,1.51,12.23"/><path class="cls-29" d="M159.92,462.48s3.38,7.16.46,12.58"/><path class="cls-29" d="M169.82,460a14.19,14.19,0,0,1,2.33,11.65"/><path class="cls-29" d="M178.91,456.65a12.6,12.6,0,0,1,4.89,9.91"/></g></g></svg>