<?xml version="1.0" encoding="UTF-8" standalone="no"?>
<svg
   xmlns:dc="http://purl.org/dc/elements/1.1/"
   xmlns:cc="http://creativecommons.org/ns#"
   xmlns:rdf="http://www.w3.org/1999/02/22-rdf-syntax-ns#"
   xmlns:svg="http://www.w3.org/2000/svg"
   xmlns="http://www.w3.org/2000/svg"
   viewBox="0 0 4666.6665 2666.6667"
   height="2666.6667"
   width="4666.6665"
   xml:space="preserve"
   id="svg2"
   version="1.1"><metadata
     id="metadata8"><rdf:RDF><cc:Work
         rdf:about=""><dc:format>image/svg+xml</dc:format><dc:type
           rdf:resource="http://purl.org/dc/dcmitype/StillImage" /></cc:Work></rdf:RDF></metadata><defs
     id="defs6" /><g
     transform="matrix(1.3333333,0,0,-1.3333333,0,2666.6667)"
     id="g10"><g
       transform="scale(0.1)"
       id="g12"><g
         transform="scale(2.14724)"
         id="g14"><path
           id="path16"
           style="fill:#ffffff;fill-opacity:1;fill-rule:nonzero;stroke:none"
           d="M 16300,0 H 0 V 9314.29 H 16300 V 0" /></g><g
         transform="scale(2.0777)"
         id="g18"><path
           id="path20"
           style="fill:#9cd499;fill-opacity:1;fill-rule:nonzero;stroke:none"
           d="m 2178.99,1614.82 c 0,0 -1989.76,2653.75 -1354.569,2623.43 635.189,-30.33 1435.019,-1587.43 1435.019,-1587.43 0,0 -1232.92,2538.7 -1001.94,2711.96 230.98,173.27 1469.46,-2552.89 1469.46,-2552.89 0,0 3754.92,1362.18 4251,2119.1 718.05,1095.58 738.89,2508.23 1260.72,2640.77 521.83,132.54 831.64,967.78 910.62,663.24 78.98,-304.54 -319.87,-954.36 -117.48,-1270.36 202.34,-315.99 -380.28,-1281.68 -642.2,-1661.12 -376,-544.77 -388.41,-1932.55 -238.01,-1965.33 150.46,-32.78 771.82,2067.3 908.8,2725.46 136.97,658.16 864.37,588.05 1164.79,1070.63 300.3,482.57 469.5,1319.11 601.4,958.59 132,-360.53 -21.8,-998.8 112.9,-1343.73 134.6,-344.92 -665.5,-2829.59 -568.7,-3131.94 97,-302.31 428.3,1139.67 1054.1,1231.48 625.9,91.82 -301.7,-2577.82 -301.7,-2577.82 0,0 1602,3061.56 2266,3123.5 664.1,61.94 883.8,697.09 1163.7,754.86 279.9,57.76 355.3,-339.31 0,-804.84 -355.2,-465.52 -157.3,-1053.21 -560.5,-1798.32 -403.4,-745.15 -464.2,-2031.09 -464.2,-2031.09 0,0 1565.7,1467.3 1908.9,1330.46 343.2,-136.88 -754.9,-1189.2 -754.9,-1189.2 0,0 1102.2,602.88 1360,452.24 257.8,-150.61 -889,-882.76 -889,-882.76 H 2513.65 l -334.66,391.11" /></g><g
         transform="scale(1.16649)"
         id="g22"><path
           id="path24"
           style="fill:#9cd499;fill-opacity:1;fill-rule:nonzero;stroke:none"
           d="M 12755.6,7400.68 C 11988.8,9215 11913.3,9908.26 12492,11658 c 578.6,1749.6 25.7,4642 561.6,3877.1 536.1,-764.9 961.5,-2891.2 100,-4161.4 -861.5,-1270.2 -905.6,-1762.7 -877.1,-2195.09 28.5,-432.39 535.6,-1667.77 535.6,-1667.77 l -56.5,-110.16" /></g><g
         transform="scale(1.12039)"
         id="g26"><path
           id="path28"
           style="fill:#74b570;fill-opacity:1;fill-rule:nonzero;stroke:none"
           d="m 12817.4,8933.98 c -2.3,7.42 -4.4,14.79 -6.7,22.19 -15,166.25 -86.3,1022.51 -1.7,1385.53 94.1,403 721,1207.9 759.1,2051.2 38.2,843.3 242.5,1535.9 354.6,2088.3 148.1,729.3 -210.6,1574.8 -519.3,1806.6 5.1,5.3 10.4,9.2 16.1,12.2 l 92.2,-31 c 23.5,-21.5 49.7,-52.8 79,-94.7 558.2,-796.4 1001,-3010.1 104.1,-4332.6 -896.9,-1322.4 -942.9,-1835.2 -913.2,-2285.43 8,-121.44 52.3,-303.73 112.7,-505.18 l -76.9,-117.11" /></g><g
         transform="scale(2.0581)"
         id="g30"><path
           id="path32"
           style="fill:#9cd499;fill-opacity:1;fill-rule:nonzero;stroke:none"
           d="m 13695.3,2366.69 c -2.5,24.69 444,1291.29 1019.9,1241.82 576,-49.41 676.8,-208.88 1073.3,-233.95 282.8,-17.88 511.5,21.38 511.5,21.38 0,0 -228.1,-336.18 -760.3,-375.49 -376.2,-27.74 -795.7,251.83 -1074,266.31 -278.2,14.48 -545.4,-528.45 -545.4,-528.45 l -113.2,-288.17 -111.8,-103.45" /></g><g
         transform="scale(2.02271)"
         id="g34"><path
           id="path36"
           style="fill:#74b570;fill-opacity:1;fill-rule:nonzero;stroke:none"
           d="m 14063.4,2781.67 c -2.4,0 -4.8,0.59 -7.1,1.83 -7.1,3.95 -9.8,13 -5.8,20.17 264.9,480.2 503.6,741.38 751.2,822.02 221.3,72.08 414.9,-9 619.9,-94.87 50.2,-21.02 102.1,-42.77 153.9,-61.85 451.4,-165.87 701.9,-103.73 704.3,-103.08 8,2.08 16.1,-2.67 18.2,-10.58 2,-7.96 -2.7,-16.02 -10.7,-18.1 -10.4,-2.76 -261.9,-65.11 -722,103.92 -52.5,19.33 -104.7,41.19 -155.2,62.35 -199.7,83.65 -388.4,162.7 -599.3,94.03 -239.9,-78.16 -473.3,-334.95 -734.4,-808.18 -2.6,-4.89 -7.7,-7.66 -13,-7.66" /></g><g
         transform="scale(2.0404)"
         id="g38"><path
           id="path40"
           style="fill:#9cd499;fill-opacity:1;fill-rule:nonzero;stroke:none"
           d="m 13810.4,2370.61 c 246.3,1444.92 758.7,2150.27 1590.8,2614.83 832,464.55 898.8,619.99 898.8,619.99 0,0 -374.5,-1181.59 -868.6,-1510.1 -494,-328.47 -1149.5,-507.84 -1282.4,-705.4 -132.8,-197.61 -262.4,-930.8 -262.4,-930.8 l -83.1,-119.44 6.9,30.92" /></g><g
         transform="scale(2.00181)"
         id="g42"><path
           id="path44"
           style="fill:#74b570;fill-opacity:1;fill-rule:nonzero;stroke:none"
           d="m 14087.9,2489.7 c -0.6,0 -1.3,0.05 -1.9,0.1 -8.2,1.05 -14,8.54 -13,16.73 0.3,2.45 31.4,244.13 131,560.35 92,292.08 262.9,709.6 554.9,1040.05 288.4,326.46 561.2,492.31 825.1,652.71 245.8,149.42 478,290.54 687.5,549.04 5.2,6.43 14.6,7.43 21.1,2.22 6.4,-5.22 7.4,-14.66 2.2,-21.09 -212.8,-262.54 -447.1,-404.98 -695.2,-555.79 -262,-159.21 -532.8,-323.86 -818.3,-646.92 -288.3,-326.35 -457.4,-739.48 -548.5,-1028.62 -98.9,-313.76 -129.8,-553.3 -130.1,-555.69 -0.9,-7.55 -7.4,-13.09 -14.8,-13.09" /></g><g
         transform="scale(1.96903)"
         id="g46"><path
           id="path48"
           style="fill:#74b570;fill-opacity:1;fill-rule:nonzero;stroke:none"
           d="m 15543.3,4617.15 c -5.7,0 -11.1,3.24 -13.8,8.73 -3.5,7.62 -0.3,16.71 7.3,20.31 3.4,1.53 336.2,155.62 748.2,144.19 8.4,-0.21 15,-7.21 14.8,-15.64 -0.3,-8.38 -7.3,-14.94 -15.7,-14.78 -404.6,11.37 -731,-139.82 -734.3,-141.34 -2.1,-1.02 -4.3,-1.47 -6.5,-1.47" /></g><g
         transform="scale(1.94173)"
         id="g50"><path
           id="path52"
           style="fill:#74b570;fill-opacity:1;fill-rule:nonzero;stroke:none"
           d="m 15158.6,4129.77 c -3.7,0 -7.5,1.39 -10.5,4.17 -6.2,5.82 -6.6,15.61 -0.7,21.84 290.2,309.88 557.8,345 1135.1,394.96 8.5,0.67 16,-5.57 16.8,-14.06 0.7,-8.5 -5.6,-15.97 -14.1,-16.74 -569.2,-49.24 -832.7,-83.69 -1115.3,-385.28 -3,-3.24 -7.1,-4.89 -11.3,-4.89" /></g><g
         transform="scale(1.86991)"
         id="g54"><path
           id="path56"
           style="fill:#74b570;fill-opacity:1;fill-rule:nonzero;stroke:none"
           d="m 1971.63,1564.04 c 0,0 -1428.014,966.03 -914.57,1117.32 513.44,151.29 1498.9,-683.03 1498.9,-683.03 h 4737.45 c 0,0 416.43,2381.94 740.36,2306.11 323.86,-75.84 -141.46,-2290.06 -141.46,-2290.06 0,0 439.49,1055.29 644.9,920.74 205.47,-134.55 208.94,-1140.86 208.94,-1140.86 0,0 256.43,1275.41 575.75,1140.86 C 9641.22,2800.57 11320.6,1791 11320.6,1791 c 0,0 963.1,2399.42 1118,2225.94 155,-173.44 -278.3,-2178.88 -278.3,-2178.88 0,0 1558.3,2491.51 1762.2,2339.15 203.8,-152.41 -610.8,-2291.77 -610.8,-2291.77 0,0 708.8,530.03 917.9,305.42 209.1,-224.67 215.4,-524.25 215.4,-524.25 0,0 357.9,1875.65 617.1,1622.48 259.2,-253.17 275.2,-1725.05 275.2,-1725.05 0,0 673.9,835.38 818.3,739.12 144.4,-96.26 0,-943.47 0,-943.47 L 1971.63,1564.04" /></g><g
         transform="scale(2.10891)"
         id="g58"><path
           id="path60"
           style="fill:#9bd6e8;fill-opacity:1;fill-rule:nonzero;stroke:none"
           d="m 15382.5,1205.6 c -1136.8,525.49 -3882.2,419.08 -5243.9,385.32 -1361.78,-33.76 -2708.97,-254.78 -4012.02,-28.59 -1303.09,226.18 -4887.69,33.05 -4859.24,-227.85 28.45,-260.89 3720.6,-658.584 5103.02,-459.714 1382.47,198.824 3611.58,369.484 5241.94,170.374 1630.4,-199.108 4687.7,-263.645 3770.2,160.46" /></g><g
         transform="scale(1.37132)"
         id="g62"><path
           id="path64"
           style="fill:#f37168;fill-opacity:1;fill-rule:nonzero;stroke:none"
           d="m 16300,2001.65 h -3791.5 v 5138.63 l 1014.2,485.69 h 1698.5 L 16300,7140.28 V 2001.65" /></g><g
         transform="scale(1.37132)"
         id="g66"><path
           id="path68"
           style="fill:#d54a41;fill-opacity:1;fill-rule:nonzero;stroke:none"
           d="M 13522.7,7625.97 12508.5,7140.28 H 16300 l -1078.8,485.69 h -1698.5" /></g><g
         transform="scale(1.29868)"
         id="g70"><path
           id="path72"
           style="fill:#f37168;fill-opacity:1;fill-rule:nonzero;stroke:none"
           d="m 16300,7730.54 h -2203.9 l 396,206.81 h 1411.8 l 396.1,-206.81" /></g><g
         transform="scale(1.27361)"
         id="g74"><path
           id="path76"
           style="fill:#993341;fill-opacity:1;fill-rule:nonzero;stroke:none"
           d="M 16276.4,7964.57 H 14734 c -13.1,0 -23.6,10.55 -23.6,23.56 0,13.01 10.5,23.55 23.6,23.55 h 1542.4 c 13,0 23.6,-10.54 23.6,-23.55 0,-13.01 -10.6,-23.56 -23.6,-23.56" /></g><g
         transform="scale(1.29868)"
         id="g78"><path
           id="path80"
           style="fill:#d54a41;fill-opacity:1;fill-rule:nonzero;stroke:none"
           d="m 16147.1,5874.04 h -1914 c -84.1,0 -152.9,68.76 -152.9,152.84 v 514.3 c 0,84.08 68.8,152.92 152.9,152.92 h 1914 c 84.1,0 152.9,-68.84 152.9,-152.92 v -514.3 c 0,-84.08 -68.8,-152.84 -152.9,-152.84" /></g><g
         transform="scale(1.61225)"
         id="g82"><path
           id="path84"
           style="fill:#58556e;fill-opacity:1;fill-rule:nonzero;stroke:none"
           d="m 16133,8642.08 c 44.7,168.22 167,574.08 -27.6,663.03 -194.5,88.95 -291.9,219.6 -486.4,152.89 -194.6,-66.72 -155.7,-219.61 -225.2,-303 -69.5,-83.39 47.3,-355.81 158.4,-453.11 111.2,-97.29 580.8,-59.81 580.8,-59.81" /></g><g
         transform="scale(1.36258)"
         id="g86"><path
           id="path88"
           style="fill:#f09959;fill-opacity:1;fill-rule:nonzero;stroke:none"
           d="m 16147.4,8696.88 c 0,0 -317.5,102.55 -426.3,158.09 -108.8,55.54 -777.7,-290.95 -611,-335.67 166.7,-44.72 502.6,88.87 502.6,88.87 l -161.7,-77.5 c 0,0 145,-49.55 202.7,-36.42 57.7,13.12 216.2,51.03 216.2,51.03 l 430.1,-171.04 c 0,0 -17.9,253.61 -25.7,257.89 -7.8,4.28 -126.9,64.75 -126.9,64.75" /></g><g
         transform="scale(1.36085)"
         id="g90"><path
           id="path92"
           style="fill:#f2e5de;fill-opacity:1;fill-rule:nonzero;stroke:none"
           d="m 16251.2,8740.62 -194.1,8.42 -83.3,-376.35 326.2,-61.47 -48.8,429.4" /></g><g
         transform="scale(1.63967)"
         id="g94"><path
           id="path96"
           style="fill:#58556e;fill-opacity:1;fill-rule:nonzero;stroke:none"
           d="m 16047.1,7862.19 c 252.9,-355.39 98.8,-627.1 -216.6,-857.54 -315.4,-230.45 -1057.9,-302.36 -1371.9,-316.24 -314,-13.88 -1098.9,227.08 -1098.9,227.08 l 48.4,345.79 c 0,0 743.3,-70.96 1031.1,-21.6 287.8,49.37 1308.2,622.51 1308.2,622.51 h 299.7" /></g><g
         transform="scale(1.5642)"
         id="g98"><path
           id="path100"
           style="fill:#3a384d;fill-opacity:1;fill-rule:nonzero;stroke:none"
           d="m 16203.1,8075.48 c -94.4,-50.52 -203.5,-107.9 -316,-165.15 -109.3,-284.28 -140,-575.81 -670,-769.2 -123,-44.89 -239.8,-76.16 -347.5,-97.49 110.8,-22.52 211.5,-35.86 286.6,-32.54 238.5,10.55 774.7,-20 1143.8,94.61 -11.1,283.7 -87.5,732.29 -96.9,969.77" /></g><g
         transform="scale(1.60398)"
         id="g102"><path
           id="path104"
           style="fill:#f09959;fill-opacity:1;fill-rule:nonzero;stroke:none"
           d="m 16103.8,9032.53 196.2,-637.13 -404.2,-497.3 118.8,427.1 -118.8,436.9 208,270.43" /></g><g
         transform="scale(1.59244)"
         id="g106"><path
           id="path108"
           style="fill:#e38540;fill-opacity:1;fill-rule:nonzero;stroke:none"
           d="m 16220.4,9097.95 -209.5,-272.39 119,-437.54 c 74.1,127.81 135.7,281.65 170.1,451.63 l -79.6,258.3" /></g><g
         transform="scale(1.59198)"
         id="g110"><path
           id="path112"
           style="fill:#f09959;fill-opacity:1;fill-rule:nonzero;stroke:none"
           d="m 16231.9,8841.38 c -68.1,-211.93 -251.1,-342.66 -408.9,-291.98 -157.6,50.66 -230.3,263.54 -162.2,475.47 68.1,211.93 251.1,342.65 408.9,291.98 157.7,-50.67 230.3,-263.55 162.2,-475.47" /></g><g
         transform="scale(1.57876)"
         id="g114"><path
           id="path116"
           style="fill:#f37168;fill-opacity:1;fill-rule:nonzero;stroke:none"
           d="m 16171.8,8266.94 c 0,0 -121.4,-72.47 -121.1,-128.83 0.3,-56.36 0,-88.57 0,-88.57 0,0 -104.3,-159.78 -184.8,-365.73 -80.5,-205.94 -76.4,-310.62 -76.4,-310.62 l 510.5,776.85 -128.2,116.9" /></g><g
         transform="scale(1.6817)"
         id="g118"><path
           id="path120"
           style="fill:#3a384d;fill-opacity:1;fill-rule:nonzero;stroke:none"
           d="m 15856.5,2010.76 c -3.8,-151.21 -170.6,-257.95 -249.7,-298.09 -248,-125.94 -291,-204.67 -18.9,-200.63 205.9,3.04 347.7,83.43 570.7,98.53 141.4,9.64 39.5,166.74 47.1,257.42 7.5,90.74 -56.7,218.35 -56.7,218.35 l -292.5,-75.58" /></g><g
         transform="scale(1.55013)"
         id="g122"><path
           id="path124"
           style="fill:#3a384d;fill-opacity:1;fill-rule:nonzero;stroke:none"
           d="m 15910.7,2263.42 c 0,0 -54.4,-74.84 -185.6,-187.99 -131.2,-113.21 -593.7,-117.02 -347.5,-233.14 149.6,-70.57 425,-19.42 589.6,-43.09 164.7,-23.74 308.2,-0.78 320.5,43.09 12.3,43.87 -33.8,343.78 -33.8,343.78 l -343.2,77.35" /></g><g
         transform="scale(1.61216)"
         id="g126"><path
           id="path128"
           style="fill:#58556e;fill-opacity:1;fill-rule:nonzero;stroke:none"
           d="m 15530.7,6364.58 c 62,-746.77 -147.9,-2432.15 -149.3,-2813.57 -1.5,-381.41 -217,-1490.73 -217,-1490.73 0,0 416.1,-168.84 513.6,-177.15 97.6,-8.25 304.4,967.58 346,1473.17 41.8,505.6 276,1544.39 276,1544.39 l -90.3,1539.34 -679,-75.45" /></g><g
         transform="scale(1.61216)"
         id="g130"><path
           id="path132"
           style="fill:#3a384d;fill-opacity:1;fill-rule:nonzero;stroke:none"
           d="m 15968.1,2924.03 c 25.8,157.98 45.8,309.09 55.9,432.27 41.8,505.6 276,1544.39 276,1544.39 l -30.1,513.54 -747.9,10.67 c -15.5,-274.85 -38.2,-562.67 -60.8,-830.26 287.3,-626.3 437.2,-1286.16 506.9,-1670.61" /></g><g
         transform="scale(1.69702)"
         id="g134"><path
           id="path136"
           style="fill:#58556e;fill-opacity:1;fill-rule:nonzero;stroke:none"
           d="m 14779.3,5808.78 c 274.9,-1488.91 477.2,-2081.01 662.6,-2721.42 185.3,-640.42 143.1,-1298.4 143.1,-1298.4 l 514.1,-65.58 c 0,0 200.9,1165.51 3.3,1751.19 -121.3,359.33 -41.1,846.13 -85.9,1379.94 -50.6,602.18 -94.4,1217.81 -94.4,1217.81 l -1142.8,-263.54" /></g><g
         transform="scale(1.66854)"
         id="g138"><path
           id="path140"
           style="fill:#3a384d;fill-opacity:1;fill-rule:nonzero;stroke:none"
           d="M 16118.5,5379.25 15215,4989.03 c 4.1,-18.7 -4,-110.75 0,-129.09 442.5,-36.86 722.5,5.03 1085,-82.59 -8.3,106.2 -25.2,356.6 -32.2,464.24 l -149.3,137.66" /></g><g
         transform="scale(1.6676)"
         id="g142"><path
           id="path144"
           style="fill:#58556e;fill-opacity:1;fill-rule:nonzero;stroke:none"
           d="m 15744,8019.23 c 377.3,-356.93 514.6,-734.23 501.9,-941.54 -25.8,-419.68 54.1,-2033.56 54.1,-2033.56 0,0 -221.7,-50.43 -593.1,-118.37 -371.4,-67.88 -729.8,31.42 -729.8,31.42 0,0 -62.8,1152.99 -59.9,1877.06 1.8,441.43 826.8,1184.99 826.8,1184.99" /></g><g
         transform="scale(1.6565)"
         id="g146"><path
           id="path148"
           style="fill:#3a384d;fill-opacity:1;fill-rule:nonzero;stroke:none"
           d="m 16221.4,5038.08 c 9.8,192.09 78.6,1544.48 67.9,1565.87 -11.5,23.02 -448.9,1043.7 -448.9,1043.7 -234.1,-318.52 -248.9,-982.31 -245.3,-1339.15 3.2,-321.49 100,-1194.29 119.1,-1363.99 32.4,3.63 65.1,8.27 97.9,14.25 164.8,30.12 304.5,57.83 409.3,79.32" /></g><g
         transform="scale(1.60767)"
         id="g150"><path
           id="path152"
           style="fill:#f2e5de;fill-opacity:1;fill-rule:nonzero;stroke:none"
           d="m 16300,8418.72 -75.1,146.28 -365.7,-296.51 -21.7,-406.17 462.5,556.4" /></g><g
         transform="scale(1.6297)"
         id="g154"><path
           id="path156"
           style="fill:#3a384d;fill-opacity:1;fill-rule:nonzero;stroke:none"
           d="m 16017.3,7981.25 c 0,0 147.2,67.49 282.7,20.56 -55.7,68.14 -106.7,135.84 -189.9,214.48 0,0 -844.2,-760.84 -845.9,-1212.54 -0.5,-110.4 2.2,-222.27 7.1,-332.75 2.8,226.3 -29.9,389.83 192.2,685.23 196.9,261.81 616.2,476.81 616.2,476.81 l -62.4,148.21" /></g><g
         transform="scale(1.61868)"
         id="g158"><path
           id="path160"
           style="fill:#58556e;fill-opacity:1;fill-rule:nonzero;stroke:none"
           d="m 16193.1,8397.65 106.9,-204.2 -264.2,-189.29 71,-117.8 c 0,0 -318.6,-202.55 -452,-306.27 -223.4,-173.79 -302,-585.07 -302,-585.07 0,0 31.5,411.28 302,752.34 247.5,311.91 538.3,650.29 538.3,650.29" /></g><g
         transform="scale(1.68427)"
         id="g162"><path
           id="path164"
           style="fill:#bdccd4;fill-opacity:1;fill-rule:nonzero;stroke:none"
           d="m 15211.1,4973.96 1088.9,-132.1 -73.7,-720.79 -1035.7,106.16 20.5,746.73" /></g><g
         transform="scale(1.65821)"
         id="g166"><path
           id="path168"
           style="fill:#f09959;fill-opacity:1;fill-rule:nonzero;stroke:none"
           d="m 16083.1,5525.76 -111.2,-407.67 -168.6,-113.85 136.6,-22.01 c 0,0 -24.8,-242.43 -71.1,-352.55 -46.4,-110.18 3.5,-146.91 191.3,-18.39 187.8,128.51 239.9,190.98 227.2,341.57 -12.6,150.52 -47.1,168.85 -27.9,293.75 19.2,124.89 -180.1,304.84 -180.1,304.84 l 3.8,-25.69" /></g><g
         transform="scale(1.66328)"
         id="g170"><path
           id="path172"
           style="fill:#f2e5de;fill-opacity:1;fill-rule:nonzero;stroke:none"
           d="m 15915.8,5303.97 -38.2,-208.68 362.4,-58.56 60,267.24 h -384.2" /></g><g
         transform="scale(1.69816)"
         id="g174"><path
           id="path176"
           style="fill:#58556e;fill-opacity:1;fill-rule:nonzero;stroke:none"
           d="m 15686.7,7591.39 c 133.8,-54.98 304.1,-542.81 553.1,-1411.84 60.2,-210.02 -274.6,-1160.29 -274.6,-1160.29 0,0 -427.6,27.26 -432.9,95.87 -3.1,39.33 188.1,793.52 162.8,866.13 -25.3,72.62 -172.8,294.15 -299.1,788.71 -126.5,494.56 46.9,921.59 290.7,821.42" /></g><g
         transform="scale(1.59716)"
         id="g178"><path
           id="path180"
           style="fill:#58556e;fill-opacity:1;fill-rule:nonzero;stroke:none"
           d="m 15621.3,9314.46 c -140.9,-353.56 165.2,-317.08 294,-207.64 128.7,109.43 145.4,14.85 142.8,-115.06 -2.4,-121.93 46.3,-32.78 35,-170.28 -11.2,-137.5 -20,-143.99 25.1,-96.29 45.2,47.7 59.3,221.68 59.3,221.68 0,0 -10.6,-225.22 53.7,-240.59 64.4,-15.37 54.3,17.46 54.3,17.46 l 14.5,377.46 -283.7,317.09 c 0,0 -364,-2.81 -364.4,-14.03 -0.4,-11.23 -30.6,-89.8 -30.6,-89.8" /></g><g
         transform="scale(1.59887)"
         id="g182"><path
           id="path184"
           style="fill:#f09959;fill-opacity:1;fill-rule:nonzero;stroke:none"
           d="m 16160.2,8937.33 c 43.6,95.3 139.8,50.42 114.1,-61.69 -25.6,-112.1 -131,-122.22 -131,-122.22 l 16.9,183.91" /></g><g
         transform="scale(1.32193)"
         id="g186"><path
           id="path188"
           style="fill:#dbe5eb;fill-opacity:1;fill-rule:nonzero;stroke:none"
           d="m 16300,8507.76 c -0.6,146.39 -509,734.82 -556.8,759.26 -47.6,24.43 -843.9,-495.73 -1097.1,-738.34 -253.2,-242.61 -291.1,-281.62 -291.1,-281.62 0,0 251.4,-310.03 455.8,-550.91 l 654.1,-14.72 c 142,165.98 302.9,346.22 406.1,437.07 220.4,193.98 429,389.26 429,389.26" /></g><g
         transform="scale(1.2311)"
         id="g190"><path
           id="path192"
           style="fill:#3e6bab;fill-opacity:1;fill-rule:nonzero;stroke:none"
           d="m 16277.3,8325.52 c -5.6,0 -11.1,2.31 -15.1,6.85 l -366.5,413.77 c -7.4,8.39 -6.7,21.22 1.7,28.66 8.4,7.45 21.2,6.67 28.7,-1.73 l 366.4,-413.78 c 7.5,-8.4 6.7,-21.23 -1.7,-28.66 -3.9,-3.43 -8.7,-5.11 -13.5,-5.11" /></g><g
         transform="scale(1.23597)"
         id="g194"><path
           id="path196"
           style="fill:#3e6bab;fill-opacity:1;fill-rule:nonzero;stroke:none"
           d="m 16277.4,8339.55 c -5.6,0 -11.2,2.36 -15.2,6.95 l -350.7,402.88 c -7.3,8.42 -6.4,21.2 2,28.53 8.4,7.34 21.2,6.45 28.6,-1.97 l 350.6,-402.88 c 7.3,-8.43 6.5,-21.2 -2,-28.54 -3.8,-3.34 -8.5,-4.97 -13.3,-4.97" /></g><g
         transform="scale(1.2548)"
         id="g198"><path
           id="path200"
           style="fill:#3e6bab;fill-opacity:1;fill-rule:nonzero;stroke:none"
           d="m 16277.8,8417.36 c -5.5,0 -10.9,2.24 -14.9,6.66 l -325.7,365.19 c -7.3,8.21 -6.6,20.8 1.6,28.12 8.2,7.34 20.8,6.6 28.2,-1.6 l 325.7,-365.19 c 7.3,-8.21 6.6,-20.8 -1.6,-28.12 -3.8,-3.4 -8.6,-5.06 -13.3,-5.06" /></g><g
         transform="scale(1.25752)"
         id="g202"><path
           id="path204"
           style="fill:#3e6bab;fill-opacity:1;fill-rule:nonzero;stroke:none"
           d="m 16277.9,8453.7 c -5.5,0 -11,2.26 -14.9,6.69 l -324.3,365.57 c -7.3,8.21 -6.5,20.78 1.7,28.06 8.2,7.28 20.8,6.52 28.1,-1.68 l 324.3,-365.57 c 7.2,-8.21 6.5,-20.77 -1.8,-28.06 -3.7,-3.36 -8.4,-5.01 -13.1,-5.01" /></g><g
         transform="scale(1.27531)"
         id="g206"><path
           id="path208"
           style="fill:#3e6bab;fill-opacity:1;fill-rule:nonzero;stroke:none"
           d="m 16278.1,8494.28 c -5.5,0 -11,2.33 -14.9,6.83 l -304.1,354.2 c -7,8.22 -6.1,20.59 2.2,27.64 8.2,7.06 20.5,6.11 27.6,-2.09 l 304,-354.2 c 7.1,-8.22 6.2,-20.59 -2.1,-27.64 -3.7,-3.18 -8.2,-4.74 -12.7,-4.74" /></g><g
         transform="scale(1.27809)"
         id="g210"><path
           id="path212"
           style="fill:#3e6bab;fill-opacity:1;fill-rule:nonzero;stroke:none"
           d="m 16278.6,8531.4 c -7.9,0 -15.2,4.87 -18.2,12.29 -13.7,22.73 -178.2,212.68 -279.8,328.19 -7.1,8.11 -6.3,20.48 1.8,27.61 8.2,7.13 20.5,6.33 27.6,-1.78 283.3,-322.42 286.4,-336.59 287.7,-342.64 2.3,-10.56 -4.4,-20.97 -15,-23.23 -1.4,-0.3 -2.8,-0.44 -4.1,-0.44" /></g><g
         transform="scale(1.22157)"
         id="g214"><path
           id="path216"
           style="fill:#d54a41;fill-opacity:1;fill-rule:nonzero;stroke:none"
           d="m 16199.6,9058.24 c -2.7,0 -5.4,0.43 -8,1.35 -12.8,4.42 -19.6,18.4 -15.2,31.22 l 61,176.83 -86.6,-14.23 c -13.3,-2.21 -26,6.87 -28.2,20.25 -2.2,13.39 6.9,26.02 20.2,28.22 l 127.2,20.91 c 8.6,1.42 17.1,-1.79 22.8,-8.39 5.6,-6.61 7.2,-15.67 4.4,-23.84 l -74.4,-215.75 c -3.5,-10.18 -13,-16.57 -23.2,-16.57" /></g><g
         transform="scale(1.32193)"
         id="g218"><path
           id="path220"
           style="fill:#f09959;fill-opacity:1;fill-rule:nonzero;stroke:none"
           d="m 16300,8794.22 c -301.7,-120.78 -614.3,10.34 -453,25.47 161.4,15.13 292.6,126.08 292.6,126.08 l 160.4,-151.55" /></g><g
         transform="scale(1.09059)"
         id="g222"><path
           id="path224"
           style="fill:#ffffff;fill-opacity:1;fill-rule:nonzero;stroke:none"
           d="M 12924.3,2877.88 H 3548.28 V 16300 H 12924.3 V 2877.88" /></g><g
         transform="scale(1.09366)"
         id="g226"><path
           id="path228"
           style="fill:#63acc2;fill-opacity:1;fill-rule:nonzero;stroke:none"
           d="M 3584.05,2915.53 H 12842.4 V 16208.6 H 3584.05 Z m 9349.75,-91.44 H 3492.61 V 16300 H 12933.8 V 2824.09" /></g><path
         id="path230"
         style="fill:#bbd9ff;fill-opacity:1;fill-rule:nonzero;stroke:none"
         d="M 13063.2,13863.8 H 6771.9 c -67.28,0 -122.32,55 -122.32,122.3 v 16.4 c 0,67.3 55.04,122.3 122.32,122.3 h 6291.3 c 67.3,0 122.4,-55 122.4,-122.3 v -16.4 c 0,-67.3 -55.1,-122.3 -122.4,-122.3" /><path
         id="path232"
         style="fill:#bbd9ff;fill-opacity:1;fill-rule:nonzero;stroke:none"
         d="M 13063.2,13396 H 6771.9 c -67.28,0 -122.32,55.1 -122.32,122.3 v 16.4 c 0,67.3 55.04,122.3 122.32,122.3 h 6291.3 c 67.3,0 122.4,-55 122.4,-122.3 v -16.4 c 0,-67.2 -55.1,-122.3 -122.4,-122.3" /><path
         id="path234"
         style="fill:#bbd9ff;fill-opacity:1;fill-rule:nonzero;stroke:none"
         d="M 13063.2,12043.4 H 6771.9 c -67.28,0 -122.32,55 -122.32,122.3 v 16.4 c 0,67.3 55.04,122.3 122.32,122.3 h 6291.3 c 67.3,0 122.4,-55 122.4,-122.3 v -16.4 c 0,-67.3 -55.1,-122.3 -122.4,-122.3" /><path
         id="path236"
         style="fill:#bbd9ff;fill-opacity:1;fill-rule:nonzero;stroke:none"
         d="M 13063.2,11575.6 H 6771.9 c -67.28,0 -122.32,55.1 -122.32,122.4 v 16.3 c 0,67.3 55.04,122.4 122.32,122.4 h 6291.3 c 67.3,0 122.4,-55.1 122.4,-122.4 v -16.3 c 0,-67.3 -55.1,-122.4 -122.4,-122.4" /><path
         id="path238"
         style="fill:#bbd9ff;fill-opacity:1;fill-rule:nonzero;stroke:none"
         d="M 13063.2,9900.7 H 6771.9 c -67.28,0 -122.32,55 -122.32,122.3 v 16.4 c 0,67.3 55.04,122.3 122.32,122.3 h 6291.3 c 67.3,0 122.4,-55 122.4,-122.3 v -16.4 c 0,-67.3 -55.1,-122.3 -122.4,-122.3" /><path
         id="path240"
         style="fill:#bbd9ff;fill-opacity:1;fill-rule:nonzero;stroke:none"
         d="M 13063.2,9432.9 H 6771.9 c -67.28,0 -122.32,55.1 -122.32,122.4 v 16.3 c 0,67.3 55.04,122.4 122.32,122.4 h 6291.3 c 67.3,0 122.4,-55.1 122.4,-122.4 v -16.3 c 0,-67.3 -55.1,-122.4 -122.4,-122.4" /><path
         id="path242"
         style="fill:#bbd9ff;fill-opacity:1;fill-rule:nonzero;stroke:none"
         d="M 13063.2,8227.6 H 6771.9 c -67.28,0 -122.32,55 -122.32,122.3 v 16.4 c 0,67.2 55.04,122.3 122.32,122.3 h 6291.3 c 67.3,0 122.4,-55.1 122.4,-122.3 v -16.4 c 0,-67.3 -55.1,-122.3 -122.4,-122.3" /><path
         id="path244"
         style="fill:#bbd9ff;fill-opacity:1;fill-rule:nonzero;stroke:none"
         d="M 13063.2,7759.8 H 6771.9 c -67.28,0 -122.32,55 -122.32,122.3 v 16.4 c 0,67.3 55.04,122.3 122.32,122.3 h 6291.3 c 67.3,0 122.4,-55 122.4,-122.3 v -16.4 c 0,-67.3 -55.1,-122.3 -122.4,-122.3" /><path
         id="path246"
         style="fill:#b1d3ff;fill-opacity:1;fill-rule:nonzero;stroke:none"
         d="m 5431.17,13247.2 h -417.13 c -167.97,0 -304.63,136.7 -304.63,304.6 v 417.2 c 0,167.9 136.66,304.6 304.63,304.6 h 417.13 c 167.97,0 304.63,-136.7 304.63,-304.6 v -417.2 c 0,-167.9 -136.66,-304.6 -304.63,-304.6 m -417.13,886.4 c -90.78,0 -164.64,-73.8 -164.64,-164.6 v -417.2 c 0,-90.7 73.86,-164.6 164.64,-164.6 h 417.13 c 90.78,0 164.63,73.9 164.63,164.6 v 417.2 c 0,90.8 -73.85,164.6 -164.63,164.6 h -417.13" /><path
         id="path248"
         style="fill:#b1d3ff;fill-opacity:1;fill-rule:nonzero;stroke:none"
         d="m 5431.17,11474.4 h -417.13 c -167.97,0 -304.63,136.7 -304.63,304.7 v 417.1 c 0,168 136.66,304.6 304.63,304.6 h 417.13 c 167.97,0 304.63,-136.6 304.63,-304.6 v -417.1 c 0,-168 -136.66,-304.7 -304.63,-304.7 m -417.13,886.4 c -90.78,0 -164.64,-73.8 -164.64,-164.6 v -417.1 c 0,-90.8 73.86,-164.7 164.64,-164.7 h 417.13 c 90.78,0 164.63,73.9 164.63,164.7 v 417.1 c 0,90.8 -73.85,164.6 -164.63,164.6 h -417.13" /><path
         id="path250"
         style="fill:#f37168;fill-opacity:1;fill-rule:nonzero;stroke:none"
         d="m 5248.67,11719.1 c -0.96,0 -1.93,0 -2.9,0 -17.63,0.9 -33.98,9.4 -44.72,23.5 l -299.8,391 c -20.16,26.3 -15.19,64 11.11,84.1 26.3,20.2 63.96,15.2 84.12,-11.1 l 256.68,-334.8 681.62,730.3 c 22.62,24.2 60.59,25.5 84.8,2.9 24.23,-22.6 25.54,-60.6 2.93,-84.8 l -729.97,-782.1 c -11.38,-12.2 -27.28,-19 -43.87,-19" /><path
         id="path252"
         style="fill:#9ec8ff;fill-opacity:1;fill-rule:nonzero;stroke:none"
         d="m 5014.04,10268.9 c -96.29,0 -174.63,-78.3 -174.63,-174.6 v -417.1 c 0,-96.3 78.34,-174.6 174.63,-174.6 h 417.13 c 96.29,0 174.63,78.3 174.63,174.6 v 417.1 c 0,96.3 -78.34,174.6 -174.63,174.6 z m 417.13,-886.3 h -417.13 c -162.46,0 -294.63,132.1 -294.63,294.6 v 417.1 c 0,162.5 132.17,294.6 294.63,294.6 h 417.13 c 162.46,0 294.63,-132.1 294.63,-294.6 v -417.1 c 0,-162.5 -132.17,-294.6 -294.63,-294.6" /><path
         id="path254"
         style="fill:#b1d3ff;fill-opacity:1;fill-rule:nonzero;stroke:none"
         d="m 5431.17,7599.8 h -417.13 c -167.97,0 -304.63,136.6 -304.63,304.6 v 417.1 c 0,168 136.66,304.7 304.63,304.7 h 417.13 c 167.97,0 304.63,-136.7 304.63,-304.7 v -417.1 c 0,-168 -136.66,-304.6 -304.63,-304.6 m -417.13,886.4 c -90.78,0 -164.64,-73.9 -164.64,-164.7 v -417.1 c 0,-90.8 73.86,-164.6 164.64,-164.6 h 417.13 c 90.78,0 164.63,73.8 164.63,164.6 v 417.1 c 0,90.8 -73.85,164.7 -164.63,164.7 h -417.13" /><g
         transform="scale(1.02094)"
         id="g256"><path
           id="path258"
           style="fill:#92c5d4;fill-opacity:1;fill-rule:nonzero;stroke:none"
           d="M 7073.78,15167.1 H 6814.83 L 6326.06,16300 h 283.22 l 344.74,-809.2 349.59,809.2 h 260.57 l -490.4,-1132.9" /></g><g
         transform="scale(1.02216)"
         id="g260"><path
           id="path262"
           style="fill:#92c5d4;fill-opacity:1;fill-rule:nonzero;stroke:none"
           d="m 8264.83,15129.6 c -117.48,0 -223.37,25.3 -317.66,76 -94.31,50.6 -168.11,120.4 -221.46,209.3 -53.35,89 -80.02,188.9 -80.02,299.9 0,111 26.67,211 80.02,299.9 53.35,88.9 127.15,158.7 221.46,209.3 94.29,50.7 200.18,76 317.66,76 117.45,0 223.07,-25.3 316.82,-76 93.78,-50.6 167.59,-120.4 221.48,-209.3 53.88,-88.9 80.83,-188.9 80.83,-299.9 0,-111 -26.95,-210.9 -80.83,-299.9 -53.89,-88.9 -127.7,-158.7 -221.48,-209.3 -93.75,-50.7 -199.37,-76 -316.82,-76 m 0,947.3 c -66.83,0 -127.18,-15.3 -181.06,-46.1 -53.9,-30.7 -96.18,-73.5 -126.89,-128.5 -30.73,-54.9 -46.08,-117.5 -46.08,-187.5 0,-70.1 15.35,-132.5 46.08,-187.5 30.71,-55 72.99,-97.8 126.89,-128.5 53.88,-30.7 114.23,-46.1 181.06,-46.1 66.81,0 127.15,15.4 181.04,46.1 53.88,30.7 96.18,73.5 126.91,128.5 30.71,55 46.06,117.4 46.06,187.5 0,70 -15.35,132.6 -46.06,187.5 -30.73,55 -73.03,97.8 -126.91,128.5 -53.89,30.8 -114.23,46.1 -181.04,46.1" /></g><g
         transform="scale(1.02094)"
         id="g264"><path
           id="path266"
           style="fill:#92c5d4;fill-opacity:1;fill-rule:nonzero;stroke:none"
           d="m 9653.6,15167.1 h -262.18 v 919.3 h -362.54 v 213.6 h 987.32 v -213.6 h -362.6 v -919.3" /></g><g
         transform="scale(1.02094)"
         id="g268"><path
           id="path270"
           style="fill:#92c5d4;fill-opacity:1;fill-rule:nonzero;stroke:none"
           d="m 11115.1,15167.1 h -877.3 V 16300 h 856.2 v -210.4 h -595.5 v -246 h 526 v -203.9 h -526 v -262.2 h 616.6 v -210.4" /></g><path
         id="path272"
         style="fill:#0f2d5c;fill-opacity:1;fill-rule:nonzero;stroke:none"
         d="m 12840,3427.8 c 0,0 81.3,-313.9 357.8,-393.2 276.6,-79.3 546.2,-233.2 157.6,-237.9 -426.2,-5.2 -670.5,14.9 -847.7,44.6 -177.1,29.8 -61.1,342 -32.9,490.7 28.1,148.7 365.2,95.8 365.2,95.8" /><path
         id="path274"
         style="fill:#0f2d5c;fill-opacity:1;fill-rule:nonzero;stroke:none"
         d="m 10585.8,3682.9 c 0,0 -59.2,-627 91.6,-680.8 150.7,-53.9 323,-183.1 107.7,-183.1 -215.4,0 -481.9,-50.9 -551.6,183.1 -85,285.3 -277.28,333.5 -208.7,478.7 68.5,145.3 275.7,415.1 275.7,415.1 l 285.3,-213" /><path
         id="path276"
         style="fill:#0e3a82;fill-opacity:1;fill-rule:nonzero;stroke:none"
         d="m 13467.7,10223.5 -547.3,-6928.7 c 0,0 -284.4,-131.4 -489.3,-151.2 -205,-19.9 -628.8,3320.4 -592.9,3854.4 35.9,534.1 -370.4,2230.1 -276.2,2779.8 94.1,549.7 1905.7,445.7 1905.7,445.7" /><path
         id="path278"
         style="fill:#0f2d5c;fill-opacity:1;fill-rule:nonzero;stroke:none"
         d="m 12372.5,10186.9 c 38.6,5.2 77.5,9.8 116.5,13.9 l 945.5,-365.9 -174.4,-2043.7 c -453.2,-995.9 -995.4,-1936 -1267.8,-2543.7 -124,722.7 -170.8,1502.1 -154.1,1750.5 17.3,257.2 -67.9,783.9 -150.5,1322.2 l 684.8,1866.7" /><path
         id="path280"
         style="fill:#0e3a82;fill-opacity:1;fill-rule:nonzero;stroke:none"
         d="m 13197.8,9176.6 c -530.6,-2358.8 -2617.9,-5651 -2615.7,-5651 2.3,0 -390,67.8 -409.8,246.2 -19.8,178.4 223.9,2372.8 754.5,2889.3 530.6,516.4 566.9,2968.1 566.9,2968.1 l 1704.1,-452.6" /><path
         id="path282"
         style="fill:#368da8;fill-opacity:1;fill-rule:nonzero;stroke:none"
         d="m 11946.6,12674.1 c -596.8,-600.3 -979.7,-1632.6 -984.9,-1888 -5.2,-255.5 688.3,-711.3 688.3,-711.3 l 296.6,2599.3" /><path
         id="path284"
         style="fill:#f09959;fill-opacity:1;fill-rule:nonzero;stroke:none"
         d="m 12665.8,13978 -210.2,-1045.8 574.8,-618.8 76.5,1268.1 -441.1,396.5" /><path
         id="path286"
         style="fill:#63acc2;fill-opacity:1;fill-rule:nonzero;stroke:none"
         d="m 12381.8,13189.5 c 0,0 -304.8,-107 -644.2,-968.6 -339.4,-861.5 -455.7,-3284.3 -455.7,-3284.3 0,0 652.1,-553.7 1585.6,-553.5 594.9,0.2 775.8,133.9 775.8,133.9 0,0 59.5,2300.9 0,3023.1 -59.4,722.2 -966.9,1667.5 -1261.5,1649.4" /><path
         id="path288"
         style="fill:#368da8;fill-opacity:1;fill-rule:nonzero;stroke:none"
         d="m 13643.3,11540.1 c -59.4,722.2 -966.9,1667.5 -1261.5,1649.4 0,0 -126.4,-44.5 -307.1,-306.2 304.7,148.3 684.5,-110.2 1039.6,-947.3 177.6,-418.7 366.1,-1021.2 554.4,-1152.6 -2.6,299.7 -10,570.6 -25.4,756.7" /><path
         id="path290"
         style="fill:#e38540;fill-opacity:1;fill-rule:nonzero;stroke:none"
         d="m 12886.5,13097.8 c -170.7,199 -234.1,502.9 -257.6,696.5 l 33.2,165.3 42.8,-16.7 402,-361.4 -39.3,-652.4 c -56.1,40 -117.3,94.5 -181.1,168.7" /><path
         id="path292"
         style="fill:#f09959;fill-opacity:1;fill-rule:nonzero;stroke:none"
         d="m 12797.1,13747.5 c 66,-311.2 352.6,-483.2 590.6,-432.8 237.9,50.5 289.9,352 224,663.3 -66,311.2 -265.4,474.9 -503.3,424.4 -237.9,-50.4 -377.3,-343.6 -311.3,-654.9" /><path
         id="path294"
         style="fill:#63acc2;fill-opacity:1;fill-rule:nonzero;stroke:none"
         d="m 12473.2,13455.1 -202.6,-342.1 1073.5,-802.6 c 0,0 -80.8,372 -102.5,508.8 -21.6,136.9 -751.4,664.7 -768.4,635.9" /><path
         id="path296"
         style="fill:#3a384d;fill-opacity:1;fill-rule:nonzero;stroke:none"
         d="m 13667.3,14613.8 c 400.8,-126 73.1,-631.2 -55.6,-635.8 -128.8,-4.7 -175.8,115.3 -281.6,87.7 -105.8,-27.7 -205.6,160.3 -270.3,119.2 -64.6,-41.1 -23.5,-423.1 0,-487.7 23.5,-64.7 -82.2,-70.5 -82.2,-70.5 0,0 -43.1,270.3 -109.7,252.6 -66.6,-17.6 -116,-205.6 -211.8,-252.6 -95.7,-47 -95.7,-47 -95.7,-47 0,0 -58.8,407.9 -146.9,486 -88.2,78.1 -32.9,348.3 92.2,401.2 125.2,52.9 155.4,293.8 328.3,311.4 172.9,17.7 314,-99.9 543.1,-70.5 229.2,29.4 178,-58.7 290.2,-94" /><path
         id="path298"
         style="fill:#f09959;fill-opacity:1;fill-rule:nonzero;stroke:none"
         d="m 12652.1,13813.5 c 37.1,-87.3 119.6,-135.7 184.3,-108.2 64.7,27.5 87.1,120.5 50,207.8 -37.1,87.3 -119.6,135.7 -184.3,108.3 -64.7,-27.5 -87.1,-120.6 -50,-207.9" /><path
         id="path300"
         style="fill:#368da8;fill-opacity:1;fill-rule:nonzero;stroke:none"
         d="m 12162.5,12549.6 c 0,0 1106.1,-1230.2 1504.3,-1610.7 5.4,-354.3 2.7,-767.1 -2.5,-1134 -215.8,106.2 -815.3,416.6 -1156.6,745.7 -421.4,406.4 -609.4,1338.2 -345.2,1999" /><g
         transform="scale(1.12542)"
         id="g302"><path
           id="path304"
           style="fill:#dbe5eb;fill-opacity:1;fill-rule:nonzero;stroke:none"
           d="m 13696.6,9711.47 c 64.9,403.63 797.3,1578.33 1073.9,1713.93 152.6,74.7 1529.5,-157.3 1529.5,-157.3 0,0 -1562,-1355.95 -1762.7,-2082.74 C 14358,8536.08 14380,8290.31 14380,8290.31 l -630.9,461.15 c 0,0 -150.1,352.54 -52.5,960.01" /></g><path
         id="path306"
         style="fill:#f09959;fill-opacity:1;fill-rule:nonzero;stroke:none"
         d="m 15219.3,10939.5 c 0,0 264.6,327.6 370.1,296.1 105.5,-31.6 145.4,-36.7 237.9,-31.6 92.5,5.1 99.1,-128.6 -33.1,-369 -132.1,-240.4 -489,-288.7 -574.9,-284.4 -85.9,4.3 0,388.9 0,388.9" /><path
         id="path308"
         style="fill:#63acc2;fill-opacity:1;fill-rule:nonzero;stroke:none"
         d="m 12286,12819.2 c -427.8,-113.7 -288.6,-1198.2 -47.6,-1645.9 173.3,-321.8 752.1,-649.9 1105.7,-741.9 353.6,-92.1 1887.4,99.2 1887.4,99.2 0,0 56.4,505.6 -50.4,505.6 -106.7,0 -1373.1,29.3 -1713.4,336.9 -340.3,307.6 -665.1,1583.5 -1181.7,1446.1" /><path
         id="path310"
         style="fill:#dbe5eb;fill-opacity:1;fill-rule:nonzero;stroke:none"
         d="m 15473.5,10947.8 c -113.9,73.3 149.8,493.8 149.8,493.8 h 303.9 c 0,0 -97.7,-115.1 -241.1,-231.2 -143.4,-116.1 -212.6,-262.6 -212.6,-262.6" /><g
         transform="scale(1.08047)"
         id="g312"><path
           id="path314"
           style="fill:#3e6bab;fill-opacity:1;fill-rule:nonzero;stroke:none"
           d="m 16274.9,11346.6 c -1.5,0 -2.9,0.1 -4.3,0.4 l -669.7,127.1 c -12.5,2.4 -20.8,14.5 -18.5,27.1 2.4,12.5 14.7,20.8 27.1,18.4 l 669.7,-127.1 c 12.6,-2.4 20.8,-14.5 18.4,-27.1 -2,-11.1 -11.8,-18.8 -22.7,-18.8" /></g><g
         transform="scale(1.05834)"
         id="g316"><path
           id="path318"
           style="fill:#3e6bab;fill-opacity:1;fill-rule:nonzero;stroke:none"
           d="m 16273.4,11211.8 c -2.8,0 -5.5,0.5 -8.3,1.5 l -540.5,199 c -12.2,4.5 -18.6,18.1 -14,30.3 4.5,12.2 18.1,18.5 30.3,14 l 540.6,-199 c 12.3,-4.5 18.5,-18.1 14,-30.3 -3.5,-9.6 -12.5,-15.5 -22.1,-15.5" /></g><g
         transform="scale(1.05188)"
         id="g320"><path
           id="path322"
           style="fill:#3e6bab;fill-opacity:1;fill-rule:nonzero;stroke:none"
           d="m 16273.2,11176.2 c -2.7,0 -5.4,0.4 -8.1,1.4 -165.4,60.1 -485.2,176 -512.2,184 -12.7,3.8 -19.8,17 -16.1,29.6 3.8,12.6 17,19.8 29.6,16 35.1,-10.5 495.4,-177.8 515,-184.9 12.2,-4.5 18.6,-18.2 14.1,-30.5 -3.5,-9.7 -12.6,-15.6 -22.3,-15.6" /></g><g
         transform="scale(1.02662)"
         id="g324"><path
           id="path326"
           style="fill:#3e6bab;fill-opacity:1;fill-rule:nonzero;stroke:none"
           d="m 16272.3,10980.4 c -3.2,0 -6.4,0.6 -9.5,1.9 -174.8,74.1 -445.9,186.7 -476.8,192.9 -13.3,2.6 -21.8,15.5 -19.1,28.6 2.6,13.2 15.5,21.8 28.6,19.1 45.7,-9.1 441.4,-176.7 486.4,-195.7 12.4,-5.3 18.1,-19.6 12.8,-32 -3.9,-9.3 -12.9,-14.8 -22.4,-14.8" /></g><g
         transform="scale(1.02325)"
         id="g328"><path
           id="path330"
           style="fill:#3e6bab;fill-opacity:1;fill-rule:nonzero;stroke:none"
           d="m 16272.2,10916 c -3.1,0 -6.2,0.6 -9.3,1.8 l -474.3,198.2 c -12.4,5.2 -18.3,19.5 -13.1,31.9 5.2,12.5 19.5,18.4 31.9,13.2 l 474.3,-198.2 c 12.4,-5.2 18.3,-19.5 13.1,-31.9 -3.9,-9.4 -13,-15 -22.6,-15" /></g><g
         transform="scale(1.08739)"
         id="g332"><path
           id="path334"
           style="fill:#3e6bab;fill-opacity:1;fill-rule:nonzero;stroke:none"
           d="m 16275.1,11383.8 c -1.4,0 -2.9,0.1 -4.3,0.4 l -699.6,131.9 c -12.5,2.3 -20.7,14.4 -18.3,26.8 2.3,12.5 14.3,20.7 26.8,18.4 l 699.6,-131.9 c 12.5,-2.4 20.7,-14.4 18.4,-26.9 -2.1,-11 -11.8,-18.7 -22.6,-18.7" /></g><g
         transform="scale(1.00509)"
         id="g336"><path
           id="path338"
           style="fill:#3e6bab;fill-opacity:1;fill-rule:nonzero;stroke:none"
           d="m 16271.7,10791.6 c -3.1,0 -6.3,0.6 -9.4,1.9 l -346.1,142.7 c -12.8,5.3 -18.9,19.8 -13.6,32.5 5.2,12.7 19.7,18.7 32.5,13.5 l 346.1,-142.7 c 12.7,-5.2 18.8,-19.8 13.5,-32.5 -4,-9.6 -13.2,-15.4 -23,-15.4" /></g><g
         transform="scale(1.00097)"
         id="g340"><path
           id="path342"
           style="fill:#3e6bab;fill-opacity:1;fill-rule:nonzero;stroke:none"
           d="m 16271.5,10686.6 c -3.5,0 -7,0.8 -10.4,2.3 l -323.2,149.4 c -12.5,5.8 -17.9,20.7 -12.1,33.2 5.7,12.5 20.5,18 33,12.2 l 323.3,-149.4 c 12.5,-5.8 17.9,-20.7 12.2,-33.2 -4.3,-9.1 -13.3,-14.5 -22.8,-14.5" /></g><path
         id="path344"
         style="fill:#3e6bab;fill-opacity:1;fill-rule:nonzero;stroke:none"
         d="m 16107.3,10135.4 c -3.4,0 -6.9,0.7 -10.2,2.2 l -442.6,198.4 c -12.6,5.6 -18.2,20.4 -12.6,33 5.7,12.6 20.5,18.2 33.1,12.6 l 442.5,-198.4 c 12.6,-5.6 18.3,-20.4 12.6,-33 -4.2,-9.3 -13.3,-14.8 -22.8,-14.8" /><path
         id="path346"
         style="fill:#3e6bab;fill-opacity:1;fill-rule:nonzero;stroke:none"
         d="m 16040.1,10001.1 c -3.4,0 -6.8,0.7 -10.1,2.2 -183.3,81.1 -403.7,179.1 -412.7,185.1 -11.5,7.7 -14.6,23.2 -6.9,34.7 7.4,11.1 22.2,14.4 33.6,7.6 16.6,-8.7 251.6,-113.2 406.3,-181.7 12.6,-5.6 18.3,-20.4 12.7,-33 -4.1,-9.3 -13.3,-14.9 -22.9,-14.9" /><g
         transform="scale(1.02229)"
         id="g348"><path
           id="path350"
           style="fill:#d54a41;fill-opacity:1;fill-rule:nonzero;stroke:none"
           d="m 15827.6,11745.5 c -6,0 -12.1,1.9 -17.2,5.6 -8.8,6.5 -13.4,17.3 -11.7,28.1 l 29.8,200 c 2.4,16.1 17.4,27.1 33.4,24.7 16,-2.4 27.1,-17.3 24.6,-33.3 l -21.5,-144.4 388.4,192.9 c 14.6,7.2 32.2,1.3 39.5,-13.2 7.1,-14.6 1.2,-32.2 -13.3,-39.4 l -438.9,-217.9 c -4.1,-2.1 -8.6,-3.1 -13.1,-3.1" /></g></g></g></svg>