<?xml version="1.0" encoding="UTF-8" standalone="no"?>
<svg
   xmlns:dc="http://purl.org/dc/elements/1.1/"
   xmlns:cc="http://creativecommons.org/ns#"
   xmlns:rdf="http://www.w3.org/1999/02/22-rdf-syntax-ns#"
   xmlns:svg="http://www.w3.org/2000/svg"
   xmlns="http://www.w3.org/2000/svg"
   viewBox="0 0 4000 2666.6667"
   height="2666.6667"
   width="4000"
   xml:space="preserve"
   id="svg2"
   version="1.1"><metadata
     id="metadata8"><rdf:RDF><cc:Work
         rdf:about=""><dc:format>image/svg+xml</dc:format><dc:type
           rdf:resource="http://purl.org/dc/dcmitype/StillImage" /></cc:Work></rdf:RDF></metadata><defs
     id="defs6"><clipPath
       id="clipPath374"
       clipPathUnits="userSpaceOnUse"><path
         id="path372"
         d="m 25312.6,3505.1 c 0,0 2888.3,3101.1 488.5,6458.5 -2129.3,2978.9 -4611.9,2775.2 -6433.3,1566.4 -775.7,-514.9 -3012.3,-63.5 -4916,2967.7 -2596,4133.6 -11594.81,1626.6 -9954.05,-4733.2 794.01,-3077.7 -2416.5,-3189.5 -780.61,-6266 l 21595.46,6.6" /></clipPath></defs><g
     transform="matrix(1.3333333,0,0,-1.3333333,0,2666.6667)"
     id="g10"><g
       transform="scale(0.1)"
       id="g12"><g
         transform="scale(1.84049)"
         id="g14"><path
           id="path16"
           style="fill:#ffffff;fill-opacity:1;fill-rule:nonzero;stroke:none"
           d="M 16300,0 H 0 V 10866.7 H 16300 V 0" /></g><g
         transform="scale(1.73012)"
         id="g18"><path
           id="path20"
           style="fill:#ebf2f9;fill-opacity:1;fill-rule:nonzero;stroke:none"
           d="m 14630.6,2025.93 c 0,0 1669.4,1792.42 282.3,3732.99 -1230.7,1721.77 -2665.6,1604.07 -3718.4,905.36 C 10746.2,6366.69 9453.41,6627.6 8353.08,8379.6 6852.6,10768.8 1651.33,9319.75 2599.68,5643.84 3058.62,3864.94 1202.95,3800.32 2148.49,2022.12 l 12482.11,3.81" /></g><path
         id="path22"
         style="fill:#233862;fill-opacity:1;fill-rule:nonzero;stroke:none"
         d="m 11489.6,10181.7 c 0,0 -96.2,273.3 -101.3,344.3 -5.1,71 26.8,275.8 263.4,297.7 236.6,21.8 324.7,47.1 324.7,47.1 l -45.1,-53.3 c 0,0 65.8,20.5 134.3,-24.6 68.5,-45 103.3,-178.1 93.1,-292.8 -10.3,-114.7 -99.9,-241 -101.1,-288.4 -1.3,-47.4 -568,-30 -568,-30" /><path
         id="path24"
         style="fill:#d9935c;fill-opacity:1;fill-rule:nonzero;stroke:none"
         d="m 10844.4,7346 c 0,0 -5.4,-62.4 -70.6,-198.2 0,0 -29.9,-92.3 165.6,-230.8 195.5,-138.5 5.5,429 5.5,429 h -100.5" /><path
         id="path26"
         style="fill:#d9935c;fill-opacity:1;fill-rule:nonzero;stroke:none"
         d="m 11534.3,9758 c 0,0 -109.7,-587 -229.3,-1200.2 -130,-666.5 -271.7,-1364 -297.1,-1372.5 -48.9,-16.3 -123.7,47.6 -156.3,129 -26.1,65.5 -71.1,604 -40.5,952 7.4,84.9 64,160.9 73.6,204.1 48.9,220 136.2,968.3 282.9,1090.4 146.6,122.2 366.7,197.2 366.7,197.2" /><path
         id="path28"
         style="fill:#739af0;fill-opacity:1;fill-rule:nonzero;stroke:none"
         d="m 11534.3,9758 c 0,0 -63.2,-338.3 -146,-769.5 -26.2,-136.8 -54.5,-283 -83.3,-430.7 -117.2,-229.7 -217.8,-385.9 -248.8,-356.5 -63.4,59.8 -174.7,67.2 -245.1,65 7.4,84.9 16.1,154.7 25.7,197.8 3.8,17.4 7.5,38.3 11,62 41,276.7 64.3,945.7 199.3,1058.2 146.6,122.2 487.2,173.7 487.2,173.7" /><path
         id="path30"
         style="fill:#4a75cb;fill-opacity:1;fill-rule:nonzero;stroke:none"
         d="m 11388.3,8988.5 c -26.2,-136.8 -54.5,-283 -83.3,-430.7 -117.2,-229.7 -217.8,-385.9 -248.8,-356.5 -63.4,59.8 -174.7,67.2 -245.1,65 7.4,84.9 16.1,154.7 25.7,197.8 3.8,17.4 7.5,38.3 11,62 l 351.4,848.2 189.1,-385.8" /><path
         id="path32"
         style="fill:#d9935c;fill-opacity:1;fill-rule:nonzero;stroke:none"
         d="m 12020.6,9766.7 c 2.6,118.4 0.6,259.8 -15.4,379.2 l -472.5,-77.2 c 0,0 0,-144.2 2,-304.3 h -0.4 c 0,0 -12.9,-148.5 169.9,-170.2 182.8,-21.7 321.3,57.9 316.4,172.5" /><path
         id="path34"
         style="fill:#cb7d45;fill-opacity:1;fill-rule:nonzero;stroke:none"
         d="m 11531.3,10039.5 c 0,0 111.4,-228.1 239,-228.1 127.6,0 247.1,214.5 247.1,214.5 l -486.1,13.6" /><path
         id="path36"
         style="fill:#233862;fill-opacity:1;fill-rule:nonzero;stroke:none"
         d="m 11846.3,3502.2 c 0,0 17.2,133.9 57,213.6 39.9,79.6 293.3,28.9 293.3,28.9 0,0 50.7,-43.4 61.5,-246.2 l -411.8,3.7" /><path
         id="path38"
         style="fill:#233862;fill-opacity:1;fill-rule:nonzero;stroke:none"
         d="m 10982.9,3504 c 59.5,36.3 25.7,307.4 25.7,307.4 0,0 -277.5,222 -315.7,52.1 -38.1,-170 -263.6,-246.3 -391.9,-267.1 -88.6,-14.3 -116,-63.4 -124.5,-92.4 h 806.4" /><path
         id="path40"
         style="fill:#d9935c;fill-opacity:1;fill-rule:nonzero;stroke:none"
         d="m 11546.7,10022.6 c 45.9,-36.1 180.5,-72 219.5,-76.2 0,0 199.6,44.5 235.9,66.4 56.2,34.1 52.6,103.1 55.5,198.9 3.4,113.5 14.9,202.6 2.2,268 -15.1,78.3 -64.7,122.8 -203.6,134.9 -255,22.2 -361.3,-41.7 -365.7,-127.2 -1.2,-23 -2.2,-44.8 -3,-65.6 -10.2,-266.6 10.9,-361.2 59.2,-399.2" /><path
         id="path42"
         style="fill:#b64c41;fill-opacity:1;fill-rule:nonzero;stroke:none"
         d="m 11557.6,5518.8 c -11.3,-62.2 -18.4,-113.3 -20.3,-149.9 -25.8,-503.1 -423.6,-1653.5 -494.7,-1680.3 -110.1,-41.5 -283.4,46.8 -374.1,75.6 -37.6,12 -62.9,50 -54.6,88.4 197,905.5 269.4,2209.3 295.7,2981.3 13.3,388.8 80.1,657.4 80.1,657.4 0,0 970,258.8 975.8,-68.6 5.1,-289.7 -321.4,-1425.9 -407.9,-1903.9" /><path
         id="path44"
         style="fill:#aa413e;fill-opacity:1;fill-rule:nonzero;stroke:none"
         d="m 11557.6,5518.8 -648,1315.1 c 13.3,388.8 80.1,657.4 80.1,657.4 0,0 970,258.8 975.8,-68.6 5.1,-289.7 -321.4,-1425.9 -407.9,-1903.9" /><path
         id="path46"
         style="fill:#b64c41;fill-opacity:1;fill-rule:nonzero;stroke:none"
         d="m 11341.8,7421.5 512.8,-3716.6 c 0,0 225.2,-54.3 400.4,-10.9 0,0 150.1,1976.7 137.6,2454.6 -12.5,477.9 107.7,1278.7 -27.5,1367 -135.2,88.4 -1023.3,-94.1 -1023.3,-94.1" /><path
         id="path48"
         style="fill:#ffa412;fill-opacity:1;fill-rule:nonzero;stroke:none"
         d="m 12365.1,7515.6 c 1.7,-43 41.3,-78.9 -1.7,-79.6 l -808.1,-12.3 -467.8,82.2 c -27.7,-0.5 53.4,119.2 55.2,1569.2 0.4,323.5 382.2,683.1 391.5,683.1 l 0.1,-0.2 c 0,-46.5 73.4,-132.6 186.5,-139.9 134.2,-8.8 299,57.9 299,135.3 0,0.8 15.5,-16 40.6,-52.5 67.1,-97.7 202,-335.7 288.2,-750.2 68.1,-327.3 -64.3,-741.3 -15.3,-1305.9 3.6,-40.8 30.8,-100.6 31.8,-129.2" /><path
         id="path50"
         style="fill:#739af0;fill-opacity:1;fill-rule:nonzero;stroke:none"
         d="m 12409,7431.5 c 0,0 -107.4,-48.1 -308.3,-89.7 -149.4,-31 -350.5,-58.5 -597.4,-60 -392.8,-2.5 -541.6,132.8 -541.6,132.8 -27.8,-0.4 60.1,221.9 61.9,1671.9 0.4,323.5 501.3,671.7 510.6,671.7 l 0.1,-0.2 c 0,0 -12.9,-430.8 117.4,-557.5 0,0 182.8,141.2 420,543.1 67,-97.7 190.7,-378.4 276.9,-792.9 17.5,-84.3 28.8,-175.9 36.7,-275.2 22.9,-285.9 17.8,-635.1 54.2,-1054.3 3.6,-40.8 -1.7,-77 -0.7,-105.5 1.7,-43.1 -32.3,-27.5 -29.8,-84.2" /><path
         id="path52"
         style="fill:#4a75cb;fill-opacity:1;fill-rule:nonzero;stroke:none"
         d="m 12409,7431.5 c 0,0 -107.4,-48.1 -308.3,-89.7 -63.2,96.4 -142.9,270.3 -153.9,544.5 -18.7,463.7 421.7,1060.8 421.7,1060.8 l 16.8,-271.6 c 22.9,-285.9 17.8,-635.1 54.2,-1054.3 3.6,-40.8 4.1,-67.9 5.1,-96.5 1.7,-43 7.2,-71.4 -35.6,-93.2" /><path
         id="path54"
         style="fill:#afcdfb;fill-opacity:1;fill-rule:nonzero;stroke:none"
         d="m 12027.5,9001.5 -750.7,-433.4 594.6,-1029.9 750.7,433.5 -594.6,1029.8" /><path
         id="path56"
         style="fill:#d9935c;fill-opacity:1;fill-rule:nonzero;stroke:none"
         d="m 12716.9,8059.9 c 0,0 -131,-36.5 -393.9,-9.5 -189.6,19.5 -436,60.9 -722.4,145.5 l 83.7,143 c 0,0 342.4,15.1 593.1,51.8 62.4,9.1 161.5,-5.9 205.8,6 54.5,14.6 -258.3,725.9 -394.9,1129.2 -32.5,96.2 -57.5,176.4 -68.5,227.5 0,0 23.8,-3.9 61.3,-11.3 106.2,-20.9 268.4,-111.7 360.4,-181.3 124.3,-94 465.8,-1091.1 275.4,-1500.9" /><path
         id="path58"
         style="fill:#d9935c;fill-opacity:1;fill-rule:nonzero;stroke:none"
         d="m 11687.4,8338.9 c 0,0 -116,108.6 -160.8,108.6 -44.9,0 -174,-47.1 -187.2,-83.3 -13.2,-36.2 -18.4,-101.3 18.5,-115.8 36.9,-14.5 189.7,-50.7 229.3,-54.3 39.5,-3.7 137.1,18.1 100.2,144.8" /><path
         id="path60"
         style="fill:#739af0;fill-opacity:1;fill-rule:nonzero;stroke:none"
         d="m 12739.6,8038.4 c 0,0 -153.7,-15 -416.6,12 14.5,71.4 28,210.9 -45.6,340.3 62.4,9.1 119.2,19.6 163.5,31.5 54.6,14.6 -216,700.4 -352.6,1103.7 -10.9,130.4 -16.6,217.7 -16.6,217.7 l 9.4,-1.5 c 106.2,-20.9 322.2,-70.2 414.2,-139.7 124.3,-94.1 434.7,-1154.2 244.3,-1564" /><path
         id="path62"
         style="fill:#4a75cb;fill-opacity:1;fill-rule:nonzero;stroke:none"
         d="m 11651.7,9200.5 c 0,0 365.7,161.1 371.1,173.8 5.4,12.7 -18.1,110.4 -43.4,139.4 0,0 175.5,-16.3 186.4,5.4 10.9,21.7 14.5,202.7 14.5,202.7 0,0 -68.8,72.4 -159.3,79.7 0,0 -79.3,-196.5 -108.6,-255.3 -77.8,-155.6 -260.7,-345.7 -260.7,-345.7" /><path
         id="path64"
         style="fill:#4a75cb;fill-opacity:1;fill-rule:nonzero;stroke:none"
         d="m 11564.8,9519.1 c 0,0 23.6,-188.3 86.9,-318.6 0,0 -190.9,133.1 -207.2,176.5 -16.3,43.4 46.1,127.6 46.1,127.6 0,0 -114,2.7 -116.7,40.7 -2.8,38 35.3,187.4 35.3,187.4 0,0 98,71.6 125.2,68.9 l 30.4,-282.5" /><path
         id="path66"
         style="fill:#233862;fill-opacity:1;fill-rule:nonzero;stroke:none"
         d="m 11485.2,10336.3 c 0,0 9.9,169.9 115.4,172 105.5,2 288.9,12.3 365.1,84 76.2,71.6 -453,38.9 -453,38.9 0,0 -64,-204.7 -27.5,-294.9" /><path
         id="path68"
         style="fill:#233862;fill-opacity:1;fill-rule:nonzero;stroke:none"
         d="m 11908.8,10567 c 0,0 137.5,-56 156.8,-143.4 0,0 45.3,322.3 -156.8,143.4" /><path
         id="path70"
         style="fill:#b64c41;fill-opacity:1;fill-rule:nonzero;stroke:none"
         d="m 11706.9,8574.5 95,-50 25,222.5 -28.7,-16.2 -18.8,-165 -53.7,26.2 -18.8,-17.5" /><path
         id="path72"
         style="fill:#b64c41;fill-opacity:1;fill-rule:nonzero;stroke:none"
         d="m 11783.7,8706.4 -4.3,-31.2 -113.6,-69.1 99.6,-143.8 150,88.3 -88.5,138.9 5,36.6 117.5,-184.1 -193.4,-116.2 -128.1,186.9 155.8,93.7" /><path
         id="path74"
         style="fill:#d9935c;fill-opacity:1;fill-rule:nonzero;stroke:none"
         d="m 8202.2,7653.6 c -323.99,82.5 -680.14,585.1 -680.14,585.1 l 91.23,79.1 c 94.44,-111.3 487.15,-303.1 487.15,-303.1 -2.1,101.9 0.57,194.9 6.99,279.5 43.59,574.9 260.33,766.5 319.49,808.5 9.54,6.8 15.03,9.7 15.03,9.7 0,0 0.22,-4.2 0.56,-12.1 0.86,-17.1 2.43,-51.5 4.04,-98.8 12.01,-351.9 26.38,-1416.8 -244.35,-1347.9" /><path
         id="path76"
         style="fill:#d9935c;fill-opacity:1;fill-rule:nonzero;stroke:none"
         d="m 7613.29,8317.8 c -1.37,13.6 -10.5,211.2 -49.74,248.8 -39.23,37.6 -116.71,88.8 -138.98,84.6 -22.26,-4.1 -97.88,-129.9 -62.18,-216.5 35.71,-86.6 159.67,-196 159.67,-196 l 91.23,79.1" /><path
         id="path78"
         style="fill:#cb7d45;fill-opacity:1;fill-rule:nonzero;stroke:none"
         d="m 8907.69,4310.9 c -19.75,-78.5 -41.46,-153.2 -63.58,-222.8 -4.75,-14.9 -9.42,-29.5 -14.18,-43.9 -2.36,-7.1 -4.74,-14.2 -7.03,-21.1 -4.68,-13.8 -9.26,-27.3 -13.85,-40.5 -5.97,-17.2 -11.96,-34 -17.86,-50.2 -4.34,-12 -8.68,-23.8 -12.94,-35.4 -65.7,-176.2 -120.75,-287.8 -120.75,-287.8 l -130.91,9 c 0,0 49.16,233.8 58.99,568.6 0.32,12 0.65,24 0.89,36.3 0.49,25.9 0.82,52.4 0.82,79.4 0,11.1 -0.07,22.3 -0.15,33.6 -2.64,288.4 -38.34,629.3 -152.3,954.8 -92.64,264.6 -159.82,512.1 -208.4,735.8 -156.79,722.2 -119.93,1196.7 -119.93,1196.7 l 736.45,-86.2 34.33,-4 c 3.11,-338.2 11.79,-797.5 19.42,-1156.5 1.31,-62.4 2.54,-121.7 3.77,-176.8 5.08,-230.5 8.91,-388.1 8.91,-388.1 141.65,-304.9 90.2,-735.3 -1.7,-1100.9" /><path
         id="path80"
         style="fill:#233862;fill-opacity:1;fill-rule:nonzero;stroke:none"
         d="m 8696.84,9752 c 0,0 174.22,-148.4 14.48,-319.1 0,0 133.11,-13.1 178.17,23.8 0,0 -8.86,-18 -17.06,-26.1 0,0 148.82,-5.3 210.26,41.1 61.44,46.4 21.96,807.9 -391.1,722.7 0,0 -350.13,26.5 -317.5,-378.6 32.62,-405.1 -99.57,-405.2 -99.57,-405.2 0,0 36.77,-18.1 54.51,-18.1 0,0 25.94,9.9 31.07,24.3 0,0 -5.13,-22.6 -11.78,-29.7 0,0 142.69,-13.6 213.94,40.3 71.24,53.9 154.92,241 134.58,324.6" /><path
         id="path82"
         style="fill:#d9935c;fill-opacity:1;fill-rule:nonzero;stroke:none"
         d="m 9259.08,7306 c -139.19,312.2 -205.77,400.4 -208.08,498.6 -1.85,77.7 36.45,161.5 110.83,367 17.52,48.4 29.61,98.2 37.04,148.5 58.84,396.1 -170.23,824.3 -312.59,853.5 -39.62,10.5 -106.77,153.5 -105.95,384.1 l -17.82,-3.5 -299.78,-59.4 c 0,0 6.83,-94.3 7.02,-183.2 0.2,-74.1 -3.79,-149.4 -20.58,-158.3 -21.57,-1.9 -41.21,-5.9 -41.21,-5.9 0,0 -253.69,-178.1 -270.07,-419.8 -21.88,-322.8 205.69,-705.5 3.86,-1350.6 -206.08,-659 1194.23,-243.4 1117.33,-71" /><path
         id="path84"
         style="fill:#cb7d45;fill-opacity:1;fill-rule:nonzero;stroke:none"
         d="m 8462.72,9494.8 c 0,0 6.84,-94.3 7.04,-183.2 167.75,4.7 256.42,157.7 292.75,242.6 l -299.79,-59.4" /><path
         id="path86"
         style="fill:#233862;fill-opacity:1;fill-rule:nonzero;stroke:none"
         d="m 8793.47,9586.8 c 0,0 87.91,138.9 109.01,257.7 15.07,84.8 -28.12,399.1 -343.98,353.8 0,0 -91.74,-9 -177.97,-67.2 -68.58,-46.4 -167.55,-146.4 -56.89,-420.6 l 28.74,-92.7 441.09,-31" /><path
         id="path88"
         style="fill:#d9935c;fill-opacity:1;fill-rule:nonzero;stroke:none"
         d="m 8406.71,9410.7 c 0,0 396.89,-6.6 397.17,240.6 0.28,247.3 51.68,412.9 -201.71,427.6 -253.4,14.6 -302.74,-79.7 -322.9,-162.2 -20.17,-82.5 24.2,-498 127.44,-506" /><path
         id="path90"
         style="fill:#233862;fill-opacity:1;fill-rule:nonzero;stroke:none"
         d="m 8421.4,10084.9 c 0,0 108.67,-290 275.44,-332.9 166.77,-42.9 239.12,1.8 239.12,1.8 0,0 -51.73,133.3 -78.27,310.7 0,0 -354.32,158.5 -436.29,20.4" /><path
         id="path92"
         style="fill:#233862;fill-opacity:1;fill-rule:nonzero;stroke:none"
         d="m 8448.33,10061.4 c 0,0 -81.16,-64.8 -100.94,-127.7 -19.78,-63 -28.68,-192.6 -66.46,-188.2 0,0 -81.88,197.2 10.13,308.7 97.57,118.2 157.27,7.2 157.27,7.2" /><path
         id="path94"
         style="fill:#d9935c;fill-opacity:1;fill-rule:nonzero;stroke:none"
         d="m 9775.27,6974.5 -119.16,-35.7 c 0,0 -393.04,652.1 -428.79,821.8 -11.67,55.3 -40.24,165.8 -73.6,289.7 -69.01,256.5 -158.09,570.4 -158.09,570.4 l -29.33,127 -100.05,433.3 c 0,0 191.58,-19.5 303.64,-66.4 37.11,-15.5 65.41,-34 75.31,-55.6 82.31,-181.1 164.5,-637.9 222.27,-963.8 32.19,-181.6 56.74,-322.6 69.56,-352.5 35.74,-83.3 144.94,-541.9 238.24,-768.2" /><path
         id="path96"
         style="fill:#233862;fill-opacity:1;fill-rule:nonzero;stroke:none"
         d="m 8433.25,10051.6 c 0,0 77.42,-303.8 287.86,-401 0,0 -210.44,186.6 -228.3,387.1 -17.87,200.5 -59.56,13.9 -59.56,13.9" /><path
         id="path98"
         style="fill:#d9935c;fill-opacity:1;fill-rule:nonzero;stroke:none"
         d="m 9766.82,6994.3 c 0,0 36.24,-85.3 73.95,-109.1 37.73,-23.9 73.57,-81 81.4,-127.1 14.37,-84.5 -50.43,-137 -98.08,-137 -47.63,0 -93.18,65 -121.19,220.1 -1.54,8.6 -46.76,97.6 -46.76,97.6 l 110.68,55.5" /><path
         id="path100"
         style="fill:#d9935c;fill-opacity:1;fill-rule:nonzero;stroke:none"
         d="m 9330.14,4374.3 c -42.36,-451.9 -228.8,-744.2 -228.8,-744.2 l -63.65,-57.9 c 0,0 -58,330.9 -99.87,709.7 -39.88,360 -94.61,741 -156.46,857.3 -92.48,173.8 -160.65,529.1 -209.71,904.6 -81.1,621.3 -109.85,1297.7 -109.85,1297.7 l 746.69,37 c 75.12,-126.3 107.8,-333.3 115.58,-568.8 8.2,-247.5 -11.31,-526.5 -38.34,-775.8 -37.75,-348.9 -90.35,-639.8 -102.56,-705.2 l -0.07,-0.3 c -1.64,-8.6 0.89,-17.2 4.91,-25 148.6,-294.1 170.07,-630.5 142.13,-929.1" /><path
         id="path102"
         style="fill:#b64c41;fill-opacity:1;fill-rule:nonzero;stroke:none"
         d="m 8458.76,8343.7 c -16.8,-410.2 -78.15,-816.4 -256.73,-790.2 -218.89,31.9 -275.91,236.2 -287.53,388.1 -7.21,94.5 3.19,168.8 3.19,168.8 0,0 107.73,0.4 125.17,16.5 82.75,76.4 58.17,826 99.12,903.8 40.96,77.8 306.7,127.8 306.7,127.8 0,0 26.8,-409.4 10.08,-814.8" /><path
         id="path104"
         style="fill:#b64c41;fill-opacity:1;fill-rule:nonzero;stroke:none"
         d="m 8458.76,8343.7 c -16.8,-410.2 -78.15,-816.4 -256.73,-790.2 -218.89,31.9 -275.91,236.2 -287.53,388.1 53.73,2.7 148.35,15.8 185.95,73.1 53.82,82.1 221.75,610.5 221.75,610.5 0,0 66.03,-118.6 136.56,-281.5" /><path
         id="path106"
         style="fill:#233862;fill-opacity:1;fill-rule:nonzero;stroke:none"
         d="m 8907.69,4310.9 c -19.75,-78.5 -41.46,-153.2 -63.58,-222.8 -4.75,-14.9 -9.42,-29.5 -14.18,-43.9 -2.36,-7.1 -4.74,-14.2 -7.03,-21.1 -4.68,-13.8 -9.26,-27.3 -13.85,-40.5 -5.97,-17.2 -11.96,-34 -17.86,-50.2 -4.34,-12 -8.68,-23.8 -12.94,-35.4 -65.7,-176.2 -120.75,-287.8 -120.75,-287.8 l -130.91,9 c 0,0 49.16,233.8 58.99,568.6 0.32,12 0.65,24 0.89,36.3 0.49,25.9 0.82,52.4 0.82,79.4 0,11.1 -0.07,22.3 -0.15,33.6 -2.64,288.4 -38.34,629.3 -152.3,954.8 -92.64,264.6 -159.82,512.1 -208.4,735.8 77.83,-16 146.35,0.4 345.21,17.1 20.89,1.7 120.83,-122 219.54,-285.8 5.07,-230.5 118.2,-346.2 118.2,-346.2 141.65,-304.9 90.2,-735.3 -1.7,-1100.9" /><path
         id="path108"
         style="fill:#2b478b;fill-opacity:1;fill-rule:nonzero;stroke:none"
         d="m 9330.14,4374.3 c -42.36,-451.9 -228.8,-744.2 -228.8,-744.2 l -63.65,-57.9 c 0,0 -58,330.9 -99.87,709.7 -39.88,360 -94.61,741 -156.46,857.3 -92.48,173.8 -160.65,529.1 -209.71,904.6 68.73,-28.6 302.62,-102.9 714.08,-9.9 -37.75,-348.9 -90.35,-639.8 -102.56,-705.2 l -0.07,-0.3 c -1.64,-8.6 0.89,-17.2 4.91,-25 148.6,-294.1 170.07,-630.5 142.13,-929.1" /><path
         id="path110"
         style="fill:#233862;fill-opacity:1;fill-rule:nonzero;stroke:none"
         d="m 8226.44,7786.5 c 0,0 439.24,-110.2 824.56,18.1 0,0 211.56,-449.1 269.75,-641.6 58.21,-192.6 152.42,-589.9 152.42,-589.9 0,0 -782.33,-241.6 -1425.39,0 0,0 -29.33,529.4 54.96,805.4 84.29,276 123.7,408 123.7,408" /><path
         id="path112"
         style="fill:#b64c41;fill-opacity:1;fill-rule:nonzero;stroke:none"
         d="m 9818.62,7580.7 c 0,-103 -105.1,-166.3 -217.91,-197.1 -108.45,-29.7 -223.96,-29.3 -260.08,-5.1 -62.35,41.8 -163.92,506.2 -193.58,647.6 -5.32,25.7 -8.36,40.7 -8.36,40.7 0,0 -81.02,-193.4 -83.56,-211.4 -1.15,-8.1 -2.13,-19.2 -2.87,-29.1 -0.81,-11.8 -1.3,-21.7 -1.3,-21.7 0,0 -439.66,-221.9 -824.52,-18.1 0,0 -156.46,904.3 -88.55,1059.9 33.75,77.3 209.8,236.9 280.24,305.7 15.82,15.5 14.25,46.1 8.11,74.1 -5.08,23.7 16.21,44.5 39.65,38.5 45.31,-11.8 126.82,-9.8 214.14,18.9 43.5,14.2 88.39,35 130.91,64 12.37,8.4 29.16,0.6 31.04,-14.2 6.63,-53.9 22.94,-152.4 52.68,-152.4 40.96,0.3 320.47,-34 340.94,-68.6 7.12,-12.1 79.78,-176.5 171.54,-394.3 l 0.16,-0.6 c 172.2,-408.6 411.32,-1004.9 411.32,-1136.8" /><path
         id="path114"
         style="fill:#aa413e;fill-opacity:1;fill-rule:nonzero;stroke:none"
         d="m 9138.69,8066.8 c 0,0 -81.02,-193.4 -83.56,-211.4 -1.15,-8.1 -2.13,-19.2 -2.87,-29.1 -39.15,-31.9 -86.49,-56.2 -134.75,-70.8 -137.05,-41.6 -196.6,221.2 -188.41,352.2 8.19,131.1 202,505.2 266.56,513 64.47,7.7 143.03,-553.9 143.03,-553.9" /><path
         id="path116"
         style="fill:#e58638;fill-opacity:1;fill-rule:nonzero;stroke:none"
         d="m 9147.05,8026.1 c -5.32,25.7 -8.36,40.7 -8.36,40.7 4.26,-13.9 7.04,-27.4 8.36,-40.7" /><path
         id="path118"
         style="fill:#aa413e;fill-opacity:1;fill-rule:nonzero;stroke:none"
         d="m 8581.2,7702.7 c -250.16,0 -349.43,70.2 -357.06,76.1 l -16.19,117.8 c 2.4,-1.7 338.09,-203.3 857.61,-10.3 l -11.01,-89.2 c -199.79,-74.3 -343.4,-94.4 -473.35,-94.4" /><path
         id="path120"
         style="fill:#aa413e;fill-opacity:1;fill-rule:nonzero;stroke:none"
         d="m 9818.62,7580.7 c 0,-103 -105.1,-166.3 -217.91,-197.1 155.49,185.1 -184.72,1305.3 -193.41,1333.9 172.2,-408.6 411.32,-1004.9 411.32,-1136.8" /><path
         id="path122"
         style="fill:#aa413e;fill-opacity:1;fill-rule:nonzero;stroke:none"
         d="m 8894.66,9181 c 0,0 -209.3,-132.5 -367.66,-101.1 0,0 -38.01,24 14.42,48.1 49.23,22.6 163.77,89.6 138.61,155.6 43.5,14.2 88.39,35 130.91,64 12.37,8.4 29.16,0.6 31.04,-14.2 6.63,-53.9 22.94,-152.4 52.68,-152.4" /><path
         id="path124"
         style="fill:#233862;fill-opacity:1;fill-rule:nonzero;stroke:none"
         d="m 8732.85,3499.4 h -83.55 c -28,4.4 -48.67,12.5 -77.37,16.2 -43.6,5.7 -63.66,-12.1 -67.66,-16.2 l -0.77,-0.9 h -354.96 c -8.94,12.8 -0.36,42.3 8.04,64.1 5.67,14.7 17.99,25.9 33.23,30.3 37.64,10.9 111.85,20.6 179.8,82.2 38.23,34.5 184.64,127 184.64,127 l 0.77,0.2 c 3.21,-0.1 18.52,-4.8 85.1,-61 34.42,-29 93.09,41 93.09,41 0,0 11.01,-9.1 19.23,-26.1 6.61,-13.4 11.44,-31.8 7.63,-54.5 -5.3,-32 11.8,-91.4 25.43,-131.6 8.27,-24.4 15.24,-41.7 15.24,-41.7 0,0 4,-20 -67.89,-29" /><path
         id="path126"
         style="fill:#466aa5;fill-opacity:1;fill-rule:nonzero;stroke:none"
         d="m 8752.44,3756.2 c -19.95,-14.1 -62.06,-41.8 -89.99,-45.4 -37.69,-5 -108.2,91.3 -108.2,91.3 l 0.77,0.2 c 3.21,-0.1 18.52,-4.8 85.1,-61 34.42,-29 93.09,41 93.09,41 0,0 11.01,-9.1 19.23,-26.1" /><path
         id="path128"
         style="fill:#466aa5;fill-opacity:1;fill-rule:nonzero;stroke:none"
         d="m 8732.85,3499.4 h -83.55 c -28,4.4 -48.67,12.5 -77.37,16.2 -43.6,5.7 -63.66,-12.1 -67.66,-16.2 l -0.77,-0.9 h -354.96 c -8.94,12.8 -0.36,42.3 8.04,64.1 10.78,9.5 13.82,-41.7 19.77,-49.8 5.95,-8.2 289.56,-3 305.94,8.9 16.38,11.9 65.51,32.8 134.01,16.4 59.62,-14.3 147.46,22.3 169.2,32 8.27,-24.4 15.24,-41.7 15.24,-41.7 0,0 4,-20 -67.89,-29" /><path
         id="path130"
         style="fill:#233862;fill-opacity:1;fill-rule:nonzero;stroke:none"
         d="m 9178.75,3499.4 h -83.55 c -28,4.4 -48.67,12.5 -77.38,16.2 -43.59,5.7 -63.66,-12.1 -67.64,-16.2 l -0.78,-0.9 h -354.96 c -8.93,12.8 -0.35,42.3 8.04,64.1 5.65,14.7 18,25.9 33.23,30.3 37.64,10.9 111.85,20.6 179.81,82.2 38.23,34.5 184.63,127 184.63,127 l 0.76,0.2 c 3.22,-0.1 18.52,-4.8 85.12,-61 34.42,-29 93.08,41 93.08,41 0,0 11.02,-9.1 19.24,-26.1 6.6,-13.4 11.43,-31.8 7.62,-54.5 -5.3,-32 11.79,-91.4 25.43,-131.6 8.28,-24.4 15.25,-41.7 15.25,-41.7 0,0 3.98,-20 -67.9,-29" /><path
         id="path132"
         style="fill:#466aa5;fill-opacity:1;fill-rule:nonzero;stroke:none"
         d="m 9198.35,3756.2 c -19.96,-14.1 -62.06,-41.8 -89.99,-45.4 -37.71,-5 -108.21,91.3 -108.21,91.3 l 0.76,0.2 c 3.22,-0.1 18.52,-4.8 85.12,-61 34.42,-29 93.08,41 93.08,41 0,0 11.02,-9.1 19.24,-26.1" /><path
         id="path134"
         style="fill:#466aa5;fill-opacity:1;fill-rule:nonzero;stroke:none"
         d="m 9178.75,3499.4 h -83.55 c -28,4.4 -48.67,12.5 -77.38,16.2 -43.59,5.7 -63.66,-12.1 -67.64,-16.2 l -0.78,-0.9 h -354.96 c -8.93,12.8 -0.35,42.3 8.04,64.1 10.78,9.5 13.82,-41.7 19.78,-49.8 5.95,-8.2 289.56,-3 305.94,8.9 16.38,11.9 65.51,32.8 134.01,16.4 59.6,-14.3 147.45,22.3 169.19,32 8.28,-24.4 15.25,-41.7 15.25,-41.7 0,0 3.98,-20 -67.9,-29" /><path
         id="path136"
         style="fill:#afcdfb;fill-opacity:1;fill-rule:nonzero;stroke:none"
         d="m 8328.12,9051.9 -866.54,-24.9 34.22,-1188.7 866.52,24.9 -34.2,1188.7" /><path
         id="path138"
         style="fill:#b64c41;fill-opacity:1;fill-rule:nonzero;stroke:none"
         d="m 7839.14,8820.8 59.86,-89.1 127.67,183.9 -33.02,-0.6 -94.86,-136.3 -34.83,48.6 -24.82,-6.5" /><path
         id="path140"
         style="fill:#b64c41;fill-opacity:1;fill-rule:nonzero;stroke:none"
         d="m 7969.27,8900.4 -18.54,-25.5 -132.83,-6.7 19.39,-173.9 173.91,6.4 -11.84,164.3 21.69,29.9 16.07,-217.8 -225.44,-10.5 -24.01,225.3 181.6,8.5" /><path
         id="path142"
         style="fill:#d9935c;fill-opacity:1;fill-rule:nonzero;stroke:none"
         d="m 7408.39,8636.2 c 0,0 58.15,64.9 116.33,15.3 58.18,-49.7 -3.86,-155.6 -54.31,-184.6 -50.46,-29 -66.65,-44.1 -66.65,-44.1 l 4.63,213.4" /><path
         id="path144"
         style="fill:#afcdfb;fill-opacity:1;fill-rule:nonzero;stroke:none"
         d="m 12710.8,6589.4 315.3,807.6 1107.7,-432.5 -315.3,-807.5 -1107.7,432.4" /><path
         id="path146"
         style="fill:#b64c41;fill-opacity:1;fill-rule:nonzero;stroke:none"
         d="m 13093,6972 63.8,-86.3 -216.2,-58.3 11.7,30.9 160.3,43.4 -34,49.2 14.4,21.1" /><path
         id="path148"
         style="fill:#b64c41;fill-opacity:1;fill-rule:nonzero;stroke:none"
         d="m 12974.3,6876.3 30.2,8.9 51.1,122.8 157.2,-76.8 -64.6,-161.6 -150.7,66.5 -35.4,-10.4 199.6,-88.5 85.8,208.8 -204.1,98.4 -69.1,-168.1" /><path
         id="path150"
         style="fill:#f4a671;fill-opacity:1;fill-rule:nonzero;stroke:none"
         d="m 13543.9,7328.2 116.3,-21.5 c 0,0 318.5,490.9 327.6,640.6 8.8,142.9 295.8,768.5 -40.1,1159.1 -15.2,17.7 -31.6,34.9 -49.5,51.5 l -1.9,1.9 c 0,0 -0.6,-0.9 -1.7,-2.8 -6.8,-11.4 -33.5,-59.6 -64.8,-166.2 -49,-166.6 -109.5,-476 -123.8,-1010.3 0,0 -78.2,-457.4 -162.1,-652.3" /><path
         id="path152"
         style="fill:#2c3a64;fill-opacity:1;fill-rule:nonzero;stroke:none"
         d="m 14385.6,9869.1 c 0,0 2.7,-59.3 -32.9,-70.9 -35.6,-11.7 36.7,-139.8 31.1,-226.3 -5.7,-86.6 -44,-121.3 -44,-121.3 0,0 18.4,47.6 8.1,77 0,0 1.6,-61.2 -43.1,-92.1 -44.7,-30.9 -32.7,-57.6 -32.7,-57.6 0,0 -101,30.3 -103.8,106.1 0,0 -4.4,-34.3 -0.9,-48.5 0,0 -87.2,65.5 -91.4,141 -4.2,75.5 68.7,139.2 101.9,140.4 33.1,1.1 107.2,66.3 105.2,90.9 -2,24.6 102.5,61.3 102.5,61.3" /><path
         id="path154"
         style="fill:#e2af64;fill-opacity:1;fill-rule:nonzero;stroke:none"
         d="m 14106.3,10293.4 c 58.8,89.2 292.3,39.3 521.4,-111.6 229.2,-151 367.3,-345.7 308.5,-434.9 -58.8,-89.3 -292.2,-39.4 -521.4,111.6 -229.1,150.9 -367.3,345.6 -308.5,434.9" /><path
         id="path156"
         style="fill:#2b478b;fill-opacity:1;fill-rule:nonzero;stroke:none"
         d="m 13602.4,3706 123.5,-46 c 0,0 536.8,744.4 602.8,1399.3 11.8,117 7.9,230.3 -17.6,334.9 0,0 5.2,30 14.4,82.9 4.3,24.7 9.5,54.5 15.5,88.6 17.4,100 41.4,236.8 68.8,392.5 63.2,358.5 145,816.7 208.6,1153.6 l -33.3,10.7 -360.3,116.2 -74.4,236.5 -268.3,70.6 c 0,0 -59.9,-117.2 -113.5,-671 -9.9,-72.6 -18.8,-152.7 -25.6,-239.6 -20.9,-265.1 -22.4,-594 25.5,-970 12.3,-96.3 27.9,-195.6 47.1,-297.7 14.2,-74.9 16.3,-176.9 10.3,-294 -27,-535.4 -223.5,-1367.5 -223.5,-1367.5" /><path
         id="path158"
         style="fill:#233862;fill-opacity:1;fill-rule:nonzero;stroke:none"
         d="m 13743,6635.2 582.5,-1158.1 c 4.3,24.7 9.5,54.5 15.5,88.6 17.4,100 41.4,236.8 68.8,392.5 63.2,358.5 145,816.7 208.6,1153.6 l -33.3,10.7 -360.3,116.2 -74.4,236.5 -320.5,95.3 c 0,0 -7.7,-141.9 -61.3,-695.7 -9.9,-72.6 -18.8,-152.7 -25.6,-239.6" /><path
         id="path160"
         style="fill:#2c3a64;fill-opacity:1;fill-rule:nonzero;stroke:none"
         d="m 14235.4,10283.2 411.9,-625 c 0,0 47.1,92.3 99.4,59.2 81.6,-51.6 256.9,124.9 220.4,374.1 -2.5,16.3 -5.3,31.8 -8.5,46.5 -82.2,118.4 -173.5,250.2 -238.9,342.9 -189.2,114.3 -484.3,-197.7 -484.3,-197.7" /><path
         id="path162"
         style="fill:#ffb27d;fill-opacity:1;fill-rule:nonzero;stroke:none"
         d="m 14054.3,9020.7 c 57.7,-52.8 132.5,-100.1 229.6,-136.9 363.7,-137.8 550.8,160 634.5,370.6 -47.2,36.2 -94.5,49.3 -121.9,56.4 -26.7,6.9 -55,12.9 -78.5,17.2 -37.7,38.1 -82.6,178.8 -68.6,386 l -18.3,-2.4 -307,-40.7 c 0,0 0.8,-95.9 -4.7,-185.8 -4.3,-70.3 -12.5,-136.9 -27.9,-151.4 -23.8,-1.8 -38.1,-3.2 -38.1,-3.2 l -0.2,-0.3 c -4.9,-6 -109.9,-135.5 -198.9,-309.5" /><path
         id="path164"
         style="fill:#ed985f;fill-opacity:1;fill-rule:nonzero;stroke:none"
         d="m 14324.1,9670.8 c 0,0 0.8,-95.8 -4.7,-185.7 170,-6 269.5,143 311.7,226.5 l -307,-40.8" /><path
         id="path166"
         style="fill:#ffb27d;fill-opacity:1;fill-rule:nonzero;stroke:none"
         d="m 14262,9589.3 c 0,0 401,-32.2 417.2,217.9 16.2,250 78.9,414.3 -176.5,445.4 -255.3,31.1 -311.3,-61.1 -337,-143.2 -25.7,-82.2 -7.6,-505.3 96.3,-520.1" /><path
         id="path168"
         style="fill:#2c3a64;fill-opacity:1;fill-rule:nonzero;stroke:none"
         d="m 14186.5,10247.6 c 66.8,71.3 112.7,51.8 137.5,27.5 227.1,106.7 395.5,-74.1 395.5,-74.1 15.5,-181.1 99.9,-298.7 99.9,-298.7 0,0 -76.1,-40.5 -242,13.6 -50.6,16.5 -94.3,56 -130.6,103 61,-118.8 148.6,-207.2 148.6,-207.2 -195.5,106 -258.6,391.4 -264.8,421.5 -25.9,-20.4 -77.2,-65.2 -94.9,-111.1 -24.1,-62.4 -41.4,-192.9 -79.4,-186 0,0 -70.1,204.7 30.2,311.5" /><path
         id="path170"
         style="fill:#233862;fill-opacity:1;fill-rule:nonzero;stroke:none"
         d="m 13215.6,3498.5 h 622.4 c 0,0 23.3,99.3 -17.6,166.9 -36.1,59.7 -22.3,93.8 4.5,143.2 -28.2,-11.5 -64.7,-22 -104.8,-19.7 -31,1.8 -63.8,15.8 -92.6,32.5 -26.8,-30.5 -141.5,-160.5 -177.3,-186.3 -40.7,-29.2 -222,-18.8 -234.6,-136.6" /><path
         id="path172"
         style="fill:#edbd77;fill-opacity:1;fill-rule:nonzero;stroke:none"
         d="m 14975.6,9968.5 c 0,0 186.5,371.2 -74.1,517.9 -260.6,146.8 -451.3,89.1 -594.7,-90.3 l 668.8,-427.6" /><path
         id="path174"
         style="fill:#f99746;fill-opacity:1;fill-rule:nonzero;stroke:none"
         d="m 13788.8,8955.4 c 49.9,249.6 204.5,321.2 204.5,321.2 0,0 25.7,38.9 169.4,45 22.3,1 46.8,5.6 74,7.8 5.4,0.3 11,0.8 16.6,1.1 l -0.1,-0.3 c -5.5,-8.4 -150.4,-231.1 -142.4,-291 8.2,-61 535.7,-40.1 574,-9.3 30.6,24.8 83.8,190.2 103.7,254.9 5,16.1 8,26 8,26 0,0 184.2,-32.1 270.8,-103.9 0,0 -66.3,-72.7 -110.6,-162.1 -4.1,-8.6 -8.2,-17.1 -11.9,-25.7 -7.9,-18.4 -14.5,-37.1 -19.3,-55.9 -6.3,-24.9 -0.6,-50.5 12.8,-78.1 12.1,-25.2 30.8,-52.2 52.4,-81.6 14.2,-19.1 29.5,-39.3 45,-60.9 -10.9,-36.4 -25.2,-80 -41.1,-129.3 -32.5,-101.6 -71.3,-226.9 -99,-361.9 -10.4,-50.9 -9,-103.2 3.5,-153.1 4.9,-19.9 11.6,-39.4 20,-58.3 13.2,-29.5 16.5,-70.1 31.2,-108.2 60.3,-156.1 129.9,-359.8 60.1,-466.2 -46.5,-136 -1123.5,194.3 -1051,336.9 0,0 -43,748.1 -72.6,979.8 -1,8.5 -1.8,16.7 -2.2,24.9 -0.7,13.1 -0.6,25.9 0,38.5 -93.3,42.5 -95.8,109.7 -95.8,109.7" /><path
         id="path176"
         style="fill:#ffcf83;fill-opacity:1;fill-rule:nonzero;stroke:none"
         d="m 13925.7,10436.8 c 53.7,86 241.3,72.2 467.8,-20.6 88.5,-36.2 182.9,-84.5 277.6,-143.5 117.6,-73.4 220.2,-153.8 300.6,-232.4 150,-146.6 223.1,-287.1 174.6,-364.9 -54,-86.4 -243.3,-71.9 -471.5,22.1 18.5,20.2 44.5,37.2 71.9,19.9 28.1,-17.7 67.3,-8.5 105.1,21.5 27.9,4.6 48.5,15.8 59.9,33.9 8.5,13.6 11.1,30 8.5,48.7 -11.6,86.8 -134.6,221.5 -311.2,331.7 -135.6,84.6 -270.5,134.4 -363.4,140.4 -54,3.5 -93.8,-7.9 -111.3,-35.9 -15,-24.2 -11.7,-57.9 6.8,-96.8 -10.1,-40.8 -10,-84.1 -6.1,-121.7 -173.1,158.1 -261.5,314 -209.3,397.6" /><path
         id="path178"
         style="fill:#ed7d2b;fill-opacity:1;fill-rule:nonzero;stroke:none"
         d="m 14532,8017.6 c 155.1,-49.7 306.1,-71 426,-79.7 -14.8,38.1 -25.7,72.6 -38.9,102.1 -8.3,18.9 -15.1,38.4 -20,58.3 -12.5,49.9 -13.9,102.2 -3.5,153.1 27.7,135 101.2,365.3 133.8,466.8 -87,194.1 -177,88.2 -177,88.2 0,0 -263,-118 -375,-335.4 -112,-217.5 -79.3,-410.5 54.6,-453.4" /><path
         id="path180"
         style="fill:#2b478b;fill-opacity:1;fill-rule:nonzero;stroke:none"
         d="m 14867.7,9295.9 c 0,0 -250.5,-160 -314.5,-497.5 l -75.8,24 c 0,0 29.3,240.9 319.1,488.4 l 71.2,-14.9" /><path
         id="path182"
         style="fill:#2b478b;fill-opacity:1;fill-rule:nonzero;stroke:none"
         d="m 13983,8789.8 79.3,-5.2 c -15.8,292.6 131,492.4 174.4,544.7 -27.2,-2.1 -51.9,-4.8 -74,-7.7 C 13955,9021 13983,8789.8 13983,8789.8" /><path
         id="path184"
         style="fill:#2b478b;fill-opacity:1;fill-rule:nonzero;stroke:none"
         d="m 13884.6,7521.5 -56.3,24.3 55.3,838.5 c 0,0 53.7,381.2 54.5,447.9 0.8,66.6 54.6,99.1 54.6,99.1 0,0 394.9,-20.8 506.2,-27.1 111.3,-6.3 100.1,-69.6 100.1,-69.6 0,0 -48.5,-202.6 -53.4,-223.4 -75,-318.4 353.5,-512.9 353.5,-512.9 0,0 69.5,-179.9 123.4,-352.2 92.5,-295.4 9.9,-719.1 9.9,-719.1 -14,-225.1 -39.6,-1181.6 -66.4,-1464.7 -9.7,-102.6 -18.1,-175.6 -21.6,-204.7 l -0.1,-0.3 c -1,-8.9 2.1,-17.3 6.6,-25.1 39.4,-66.8 72,-136.4 98.8,-207.7 262.6,-699.8 -40.5,-1561.7 -40.5,-1561.7 l -78.6,31.7 c 0,0 -172.5,959.2 -312.6,1382.9 -23.8,71.9 -46.6,128.4 -67.5,162.1 -60.9,98.4 -117.5,259 -168.8,450.2 -97,361.3 -175.1,831.3 -227.1,1194.1 -7.2,-0.3 -81.9,508.6 -269.1,732.9 -1.7,2 -1.9,3.6 -0.9,4.8" /><path
         id="path186"
         style="fill:#ed7d2b;fill-opacity:1;fill-rule:nonzero;stroke:none"
         d="m 14556.3,8827.8 c 5.5,17.5 -4.1,36.2 -21.6,41.8 -17.6,5.5 -36.2,-4.1 -41.8,-21.7 -5.6,-17.5 4.1,-36.2 21.6,-41.7 17.5,-5.6 36.2,4.1 41.8,21.6" /><path
         id="path188"
         style="fill:#f99746;fill-opacity:1;fill-rule:nonzero;stroke:none"
         d="m 14550.6,8829.6 c 5.6,17.5 -4.1,36.2 -21.6,41.8 -17.5,5.6 -36.3,-4.1 -41.8,-21.6 -5.6,-17.6 4.1,-36.3 21.6,-41.8 17.5,-5.6 36.2,4.1 41.8,21.6" /><path
         id="path190"
         style="fill:#2b478b;fill-opacity:1;fill-rule:nonzero;stroke:none"
         d="m 14539.5,8839.7 c 0,2.7 -2.2,4.9 -4.8,4.9 -2.7,0 -4.9,-2.2 -4.9,-4.9 0,-2.7 2.2,-4.8 4.9,-4.8 2.6,0 4.8,2.2 4.8,4.8" /><path
         id="path192"
         style="fill:#2b478b;fill-opacity:1;fill-rule:nonzero;stroke:none"
         d="m 14507.9,8839.7 c 0,2.6 -2.1,4.8 -4.8,4.8 -2.7,0 -4.8,-2.2 -4.8,-4.8 0,-2.7 2.2,-4.9 4.8,-4.9 2.7,0 4.8,2.2 4.8,4.9" /><path
         id="path194"
         style="fill:#ed7d2b;fill-opacity:1;fill-rule:nonzero;stroke:none"
         d="m 14066.7,8870.1 c 5.6,17.5 -4.1,36.2 -21.6,41.7 -17.6,5.6 -36.3,-4.1 -41.8,-21.6 -5.6,-17.5 4.1,-36.2 21.6,-41.8 17.5,-5.5 36.2,4.2 41.8,21.7" /><path
         id="path196"
         style="fill:#f99746;fill-opacity:1;fill-rule:nonzero;stroke:none"
         d="m 14061,8871.9 c 5.5,17.5 -4.1,36.2 -21.7,41.7 -17.5,5.6 -36.2,-4.1 -41.7,-21.6 -5.6,-17.5 4.1,-36.2 21.6,-41.7 17.5,-5.6 36.2,4.1 41.8,21.6" /><path
         id="path198"
         style="fill:#2b478b;fill-opacity:1;fill-rule:nonzero;stroke:none"
         d="m 14049.9,8882 c 0,2.6 -2.2,4.8 -4.8,4.8 -2.7,0 -4.9,-2.2 -4.9,-4.8 0,-2.7 2.2,-4.9 4.9,-4.9 2.6,0 4.8,2.2 4.8,4.9" /><path
         id="path200"
         style="fill:#2b478b;fill-opacity:1;fill-rule:nonzero;stroke:none"
         d="m 14018.3,8881.9 c 0,2.7 -2.1,4.9 -4.8,4.9 -2.7,0 -4.8,-2.2 -4.8,-4.9 0,-2.7 2.1,-4.8 4.8,-4.8 2.7,0 4.8,2.2 4.8,4.8" /><path
         id="path202"
         style="fill:#2c3a64;fill-opacity:1;fill-rule:nonzero;stroke:none"
         d="m 14920.2,9821.5 c 0,0 2.8,-59.4 -32.8,-71 -35.6,-11.6 36.7,-139.7 31,-226.3 -5.7,-86.5 -44,-121.3 -44,-121.3 0,0 18.4,47.7 8.1,77.1 0,0 1.7,-61.2 -43,-92.1 -44.7,-30.9 -32.7,-57.6 -32.7,-57.6 0,0 -101.1,30.3 -103.9,106 0,0 -4.3,-34.2 -0.8,-48.4 0,0 -87.3,65.5 -91.4,141 -4.2,75.5 68.6,139.2 101.8,140.3 33.2,1.2 107.2,66.3 105.2,90.9 -2,24.7 102.5,61.4 102.5,61.4" /><path
         id="path204"
         style="fill:#ffb27d;fill-opacity:1;fill-rule:nonzero;stroke:none"
         d="m 14919.8,7832.7 c 0,0 -120,-75.8 -137.6,-75.1 -41.2,1.5 -122.5,91.5 -190.2,49.9 -67.6,-41.6 -133.9,-110.9 -110.5,-138.6 23.5,-27.8 102.9,5 141.1,-0.6 38.1,-5.5 132.1,-52.3 198.4,-30.3 63.8,21.2 201.5,108.1 201.5,108.1 l -102.7,86.6" /><path
         id="path206"
         style="fill:#ffb27d;fill-opacity:1;fill-rule:nonzero;stroke:none"
         d="m 15067.3,9206.9 c 0,0 446.8,-527.6 594.6,-824.9 0,0 -177.7,-387.1 -754,-701.5 0,0 -25.6,5.6 -64.7,33.5 -61,43.6 6.6,75.5 19.9,84.1 146.2,94.7 401.7,502.7 409.1,538.1 7.4,35.4 -320.2,352.8 -419.8,470.2 -99.5,117.4 60.1,461 214.9,400.5" /><path
         id="path208"
         style="fill:#fff2e9;fill-opacity:1;fill-rule:nonzero;stroke:none"
         d="m 14385.6,9729 c 0,0 -59.7,-36.2 -102.3,-32 -42.1,4.2 -65,55 -65,55 0,0 81.7,12.1 167.3,-23" /><path
         id="path210"
         style="fill:#f99746;fill-opacity:1;fill-rule:nonzero;stroke:none"
         d="m 15067.3,9206.9 200.7,-196 c 0,0 -45.8,-289.6 -349.6,-327.4 0,0 -249.3,199.6 -100.3,407.6 148.9,207.9 249.2,115.8 249.2,115.8" /><path
         id="path212"
         style="fill:#ffb27d;fill-opacity:1;fill-rule:nonzero;stroke:none"
         d="m 14782.2,7757.6 c 0,0 -6.8,29.1 -32.6,40.6 -25.8,11.5 -49.8,36.6 -51.9,29.2 -2,-7.3 -3.7,-19.5 9.7,-34.2 13.3,-14.8 36,-39.6 74.8,-35.6" /><path
         id="path214"
         style="fill:#233862;fill-opacity:1;fill-rule:nonzero;stroke:none"
         d="m 14552,3498.5 h 622.3 c 0,0 15,94.9 -17.5,166.9 -31.2,69 -80,100.4 -68.3,183.9 -39.5,-40.7 -104,-86.3 -194,-74.2 -11,-17.8 -71.1,-113.5 -108,-140 -40.6,-29.2 -222,-18.8 -234.5,-136.6" /><path
         id="path216"
         style="fill:#f4a671;fill-opacity:1;fill-rule:nonzero;stroke:none"
         d="m 13570.3,7084.5 c -6.9,10 15.3,72.9 17.5,88.9 0.3,2.3 -0.3,3 -1.4,2.6 v 0.1 l -123.3,49.9 c 36.6,52.3 80.8,102.2 80.8,102.2 l 73.2,124.4 89.9,-19.1 c 0,0 -25.3,-58 -40.4,-106.3 -15.2,-48.3 -24.1,-76 -13.2,-112.1 11,-36 -44.9,-75.1 -51.6,-108.7 -6.8,-33.6 -24.7,-32 -31.5,-21.9" /><path
         id="path218"
         style="fill:#afcdfb;fill-opacity:1;fill-rule:nonzero;stroke:none"
         d="m 4647.09,3543.4 v 2257.7 l 305.01,-102.9 199.99,138.4 635,216.3 270,-354.7 340,203.3 145,40.1 V 3543.4 h -1895" /><path
         id="path220"
         style="fill:#bbcff5;fill-opacity:1;fill-rule:nonzero;stroke:none"
         d="m 6610.42,3507.6 h -606.54 l 30.09,35.8 h 508.12 v 604.1 l 68.33,81.3 v -721.2 m -972.41,0 h -229.57 v 35.8 h 259.66 l -30.09,-35.8 m 904.08,1075 v 759.1 l 68.33,81.2 v -759.1 l -68.33,-81.2 m 0,886.3 v 472.7 l -145,-40.1 -340,-203.3 -106.06,139.3 659.39,784 V 5550.1 l -68.33,-81.2 m -1133.65,455 v 739 l 3.66,4.3 V 6776 l -3.66,-4.4 v 94.5 435 145.5 H 6610.42 V 7392 L 5408.44,5962.9 v -39 m 455.68,27.8 -47.16,62 793.46,943.4 V 6839 l -746.3,-887.3" /><path
         id="path222"
         style="fill:#97b9f7;fill-opacity:1;fill-rule:nonzero;stroke:none"
         d="m 6542.09,3543.4 h -508.12 l 508.12,604.1 v -604.1 m -873.99,0 h -259.66 v 2380.5 -396 l 408.52,485.8 47.16,-62 -452.02,-537.4 v -217.5 l 538.93,640.7 106.06,-139.3 340,203.3 145,40.1 V 5468.9 L 5412.1,4125.4 V 3998.1 L 6542.09,5341.7 V 4582.6 L 5668.1,3543.4" /><path
         id="path224"
         style="fill:#afc6f4;fill-opacity:1;fill-rule:nonzero;stroke:none"
         d="m 5408.44,3507.6 h -735.47 l 30.08,35.8 h 705.39 v -35.8" /><path
         id="path226"
         style="fill:#91b3f5;fill-opacity:1;fill-rule:nonzero;stroke:none"
         d="m 5408.44,3543.4 h -705.39 l 705.39,838.7 v -838.7" /><path
         id="path228"
         style="fill:#afc6f4;fill-opacity:1;fill-rule:nonzero;stroke:none"
         d="m 4597.1,3507.6 v 0 3939 h 811.34 V 7301.1 L 4597.1,6336.5 v -435 l 811.34,964.6 v -94.5 L 4597.1,5807 v -108.8 l 49.99,59.5 V 4115.1 l -49.99,-59.4 v -435 l 49.99,59.4 v -94.5 l -49.99,-59.4 v -18.6 m 355,2190.6 -276.54,93.3 732.88,871.4 v -739 l -256.35,-87.3 -199.99,-138.4" /><path
         id="path230"
         style="fill:#91b3f5;fill-opacity:1;fill-rule:nonzero;stroke:none"
         d="m 4647.09,3585.6 v 94.5 l 761.35,905.2 v -94.5 l -761.35,-905.2 m 0,529.5 v 1642.6 l 28.47,33.8 276.54,-93.3 199.99,138.4 256.35,87.3 v -903.5 l -761.35,-905.3" /><path
         id="path232"
         style="fill:#bfd1f6;fill-opacity:1;fill-rule:nonzero;stroke:none"
         d="m 4597.1,5901.5 v 435 l 811.34,964.6 v -435 L 4597.1,5901.5" /><path
         id="path234"
         style="fill:#c9d9f7;fill-opacity:1;fill-rule:nonzero;stroke:none"
         d="m 5408.44,6662.9 v 108.7 l 3.66,4.4 v -108.8 l -3.66,-4.3" /><path
         id="path236"
         style="fill:#bfd1f6;fill-opacity:1;fill-rule:nonzero;stroke:none"
         d="M 4597.1,5698.2 V 5807 l 811.34,964.6 v -108.7 l -732.88,-871.4 -28.47,9.6 v -43.4 l -49.99,-59.5" /><path
         id="path238"
         style="fill:#a7c2f7;fill-opacity:1;fill-rule:nonzero;stroke:none"
         d="m 4647.09,5757.7 v 43.4 l 28.47,-9.6 -28.47,-33.8" /><path
         id="path240"
         style="fill:#bfd1f6;fill-opacity:1;fill-rule:nonzero;stroke:none"
         d="m 4672.97,3507.6 h -75.87 v 18.6 l 49.99,59.4 v -42.2 h 55.96 l -30.08,-35.8" /><path
         id="path242"
         style="fill:#a7c2f7;fill-opacity:1;fill-rule:nonzero;stroke:none"
         d="m 4703.05,3543.4 h -55.96 v 42.2 l 761.35,905.2 v -108.7 l -705.39,-838.7" /><path
         id="path244"
         style="fill:#bfd1f6;fill-opacity:1;fill-rule:nonzero;stroke:none"
         d="m 4597.1,3620.7 v 435 l 49.99,59.4 v -435 l -49.99,-59.4" /><path
         id="path246"
         style="fill:#a7c2f7;fill-opacity:1;fill-rule:nonzero;stroke:none"
         d="m 4647.09,3680.1 v 435 l 761.35,905.3 v -435.1 l -761.35,-905.2" /><path
         id="path248"
         style="fill:#c9d9f7;fill-opacity:1;fill-rule:nonzero;stroke:none"
         d="m 6003.88,3507.6 h -365.87 l 30.09,35.8 h 365.87 l -30.09,-35.8 m 538.21,639.9 v 435.1 l 68.33,81.2 v -435 l -68.33,-81.3" /><path
         id="path250"
         style="fill:#acc7f9;fill-opacity:1;fill-rule:nonzero;stroke:none"
         d="M 6033.97,3543.4 H 5668.1 l 873.99,1039.2 v -435.1 l -508.12,-604.1" /><path
         id="path252"
         style="fill:#c9d9f7;fill-opacity:1;fill-rule:nonzero;stroke:none"
         d="m 5408.44,5923.9 v 39 L 6610.42,7392 v -434.9 l -793.46,-943.4 -29.87,39.2 -378.65,-129" /><path
         id="path254"
         style="fill:#acc7f9;fill-opacity:1;fill-rule:nonzero;stroke:none"
         d="m 5408.44,5527.9 v 396 l 378.65,129 29.87,-39.2 -408.52,-485.8" /><path
         id="path256"
         style="fill:#c9d9f7;fill-opacity:1;fill-rule:nonzero;stroke:none"
         d="m 5951.03,5837.5 -86.91,114.2 746.3,887.3 v -217.5 l -659.39,-784" /><path
         id="path258"
         style="fill:#acc7f9;fill-opacity:1;fill-rule:nonzero;stroke:none"
         d="m 5412.1,5196.8 v 217.5 l 452.02,537.4 86.91,-114.2 -538.93,-640.7" /><path
         id="path260"
         style="fill:#c9d9f7;fill-opacity:1;fill-rule:nonzero;stroke:none"
         d="m 6542.09,5341.7 v 127.2 l 68.33,81.2 v -127.2 l -68.33,-81.2" /><path
         id="path262"
         style="fill:#acc7f9;fill-opacity:1;fill-rule:nonzero;stroke:none"
         d="m 5412.1,3998.1 v 127.3 L 6542.09,5468.9 V 5341.7 L 5412.1,3998.1" /><g
         transform="scale(1.37554)"
         id="g264"><path
           id="path266"
           style="fill:#233862;fill-opacity:1;fill-rule:nonzero;stroke:none"
           d="M 13186.5,2547.36 H 16300 V 8831.3 H 13186.5 V 2547.36" /></g><g
         transform="scale(1.38274)"
         id="g268"><path
           id="path270"
           style="fill:#ffcf83;fill-opacity:1;fill-rule:nonzero;stroke:none"
           d="m 16300,8506.3 h -3015 c -36.5,0 -66.1,29.63 -66.1,66.19 0,36.56 29.6,66.2 66.1,66.2 h 3015 V 8506.3" /></g><g
         transform="scale(1.37554)"
         id="g272"><path
           id="path274"
           style="fill:#b64c41;fill-opacity:1;fill-rule:nonzero;stroke:none"
           d="m 16158.8,8698.2 v -372.26 h -201.6 v 372.26 c 0,17.03 -13.8,30.84 -30.8,30.84 h -311.9 c -17.1,0 -30.9,-13.81 -30.9,-30.84 v -372.26 h -201.5 v 372.26 c 0,17.03 -13.8,30.84 -30.8,30.84 h -312 c -17,0 -30.8,-13.81 -30.8,-30.84 v -372.26 h -201.6 v 372.26 c 0,17.03 -13.8,30.84 -30.8,30.84 h -311.9 c -17.1,0 -30.9,-13.81 -30.9,-30.84 v -372.26 h -201.5 v 372.26 c 0,17.03 -13.8,30.84 -30.8,30.84 h -312 c -17,0 -30.8,-13.81 -30.8,-30.84 v -372.26 h -201.5 v 372.26 c 0,17.03 -13.8,30.84 -30.9,30.84 H 13453 c -17,0 -30.8,-13.81 -30.8,-30.84 V 2783.05 H 16300 V 8698.2 c 0,17.03 -13.8,30.84 -30.8,30.84 h -79.6 c -17,0 -30.8,-13.81 -30.8,-30.84" /></g><g
         transform="scale(1.19671)"
         id="g276"><path
           id="path278"
           style="fill:#aa413e;fill-opacity:1;fill-rule:nonzero;stroke:none"
           d="m 15996.8,3198.95 21.1,5962.95 282.1,-5962.95 h -303.2" /></g><g
         transform="scale(1.24389)"
         id="g280"><path
           id="path282"
           style="fill:#aa413e;fill-opacity:1;fill-rule:nonzero;stroke:none"
           d="m 16093.4,8884.73 v 0 c 115,0 206.6,-96.1 201.1,-210.96 l -201.1,-4236.72 -201.2,4236.72 c -5.4,114.86 86.2,210.96 201.2,210.96" /></g><g
         transform="scale(1.36018)"
         id="g284"><path
           id="path286"
           style="fill:#aa413e;fill-opacity:1;fill-rule:nonzero;stroke:none"
           d="m 16300,2814.47 -123.4,2094.06 -110.9,-2094.06 h 234.3" /></g><g
         transform="scale(1.31902)"
         id="g288"><path
           id="path290"
           style="fill:#aa413e;fill-opacity:1;fill-rule:nonzero;stroke:none"
           d="m 15956.7,2902.31 101.8,3033.09 241.5,-3033.09 h -343.3" /></g><g
         transform="scale(1.26215)"
         id="g292"><path
           id="path294"
           style="fill:#aa413e;fill-opacity:1;fill-rule:nonzero;stroke:none"
           d="m 16186.9,5043.79 v 0 c 63.2,0 113.1,-53.48 108.9,-116.47 l -99.5,-1486.44 -118.2,1485.09 c -5,63.47 45.1,117.82 108.8,117.82" /></g><g
         transform="scale(1.34026)"
         id="g296"><path
           id="path298"
           style="fill:#aa413e;fill-opacity:1;fill-rule:nonzero;stroke:none"
           d="m 16132,7899.26 v 0 c 91.9,5.56 168,-70.23 162.9,-162.1 l -153.1,-2743.05 -154.1,2742.99 c -4.7,84.55 59.8,157.05 144.3,162.16" /></g><g
         transform="scale(1.11279)"
         id="g300"><path
           id="path302"
           style="fill:#afcdfb;fill-opacity:1;fill-rule:nonzero;stroke:none"
           d="m 16300,3148.84 h -468.6 V 10916.5 H 16300 V 3148.84" /></g><g
         transform="scale(1.55846)"
         id="g304"><path
           id="path306"
           style="fill:#699dee;fill-opacity:1;fill-rule:nonzero;stroke:none"
           d="M 16300,2248.37 H 14386.8 V 7794.75 H 16300 V 2248.37" /></g><g
         transform="scale(1.40753)"
         id="g308"><path
           id="path310"
           style="fill:#afcdfb;fill-opacity:1;fill-rule:nonzero;stroke:none"
           d="m 16300,2491.59 h -370.5 V 8632.72 H 16300 V 2491.59" /></g><g
         transform="scale(1.65079)"
         id="g312"><path
           id="path314"
           style="fill:#82b378;fill-opacity:1;fill-rule:nonzero;stroke:none"
           d="m 15560.3,2957.67 c 0,0 -132,153.99 -8.2,251.82 0,0 90.5,54.76 164.3,50.34 0,0 -104.6,-175.31 -70.8,-192.75 33.8,-17.45 102.4,203.71 102.4,203.71 0,0 205.9,20 272.2,-11.87 0,0 -176,-144.05 -139,-152.59 37.1,-8.6 227.2,132.78 227.2,132.78 0,0 191.6,-32.59 181.4,-149.5 -10.2,-116.91 -76.2,-152.96 -105.3,-149.87 -29,3.09 -198.7,67.91 -202.4,44.1 -3.7,-23.74 98.5,-101.47 170,-105.1 0,0 -135.1,-148.96 -224.9,-106.01 -89.8,43.01 -97.4,111.16 -153.4,136.72 -55.9,25.57 -103.7,25.51 -80.6,-0.54 23.1,-26.05 124.4,-51.43 156.4,-108.01 32,-56.64 60.7,-94.8 -32.2,-80.87 -92.9,13.99 -243.8,81.96 -250.5,159.8 -6.6,77.84 -6.6,77.84 -6.6,77.84" /></g><g
         transform="scale(1.64023)"
         id="g316"><path
           id="path318"
           style="fill:#82b378;fill-opacity:1;fill-rule:nonzero;stroke:none"
           d="m 16300,3106.34 c 0,0 -523.8,20.18 -639.5,-129.62 0,0 -25.6,-76.63 -104.3,-146.38 l -12.3,-33.47 c 0,0 90.8,95.72 123.3,101.51 0,0 -50.8,185.58 632.8,207.96" /></g><g
         transform="scale(1.57201)"
         id="g320"><path
           id="path322"
           style="fill:#82b378;fill-opacity:1;fill-rule:nonzero;stroke:none"
           d="m 16231.3,2953.17 c 0,0 -117.3,-86.77 -125.4,-241.79 l 21.2,-1.91 c 0,0 37.5,160.3 105.2,222.96 67.7,62.72 -1,20.74 -1,20.74" /></g><g
         transform="scale(1.5504)"
         id="g324"><path
           id="path326"
           style="fill:#a8d29f;fill-opacity:1;fill-rule:nonzero;stroke:none"
           d="m 16076.4,3355.39 c 0,0 223.6,125.2 119.3,295.09 0,0 -83.5,104.36 -172.9,131.19 0,0 47.7,-253.35 0,-259.35 -47.7,-5.93 -32.8,286.18 -32.8,286.18 0,0 -235.5,113.27 -327.9,104.36 0,0 146.1,-247.41 98.4,-241.48 -47.7,5.93 -211.7,256.38 -211.7,256.38 0,0 -241.4,44.7 -280.2,-98.42 -38.7,-143.06 23.9,-214.59 59.7,-223.56 35.7,-8.9 265.2,-5.93 259.3,-35.73 -6,-29.86 -161,-77.53 -247.5,-50.7 0,0 95.4,-235.48 220.7,-223.55 125.2,11.93 163.9,89.39 241.4,95.39 77.5,5.93 134.2,-14.9 95.4,-35.8 -38.8,-20.89 -169.9,-6.83 -232.5,-60.04 -62.6,-53.22 -113.3,-86.05 2.9,-109.85 116.3,-23.86 325,-8.96 366.7,80.5 41.7,89.39 41.7,89.39 41.7,89.39" /></g><g
         transform="scale(1.53849)"
         id="g328"><path
           id="path330"
           style="fill:#82b378;fill-opacity:1;fill-rule:nonzero;stroke:none"
           d="m 15497.9,3813.93 c 0,0 630.9,-204.29 703,-432.57 0,0 -3,-102.11 60,-219.3 v -45.04 c 0,0 -66,153.2 -102.1,174.26 0,0 141.2,198.24 -660.9,522.65" /></g><g
         transform="scale(1.54399)"
         id="g332"><path
           id="path334"
           style="fill:#82b378;fill-opacity:1;fill-rule:nonzero;stroke:none"
           d="m 16203,3150.8 c 0,0 97,-147.21 41.8,-326.36 l -25,6.67 c 0,0 24.2,197.35 -26.5,296.63 -50.8,99.29 9.7,23.06 9.7,23.06" /></g><g
         transform="scale(1.66911)"
         id="g336"><path
           id="path338"
           style="fill:#a8d29f;fill-opacity:1;fill-rule:nonzero;stroke:none"
           d="m 15263.5,3277.14 c 0,0 -273.8,153.31 -146,361.33 0,0 102.2,127.79 211.6,160.62 0,0 -58.4,-310.23 0,-317.53 58.4,-7.31 40.2,350.36 40.2,350.36 0,0 288.3,138.7 401.5,127.79 0,0 -178.8,-302.97 -120.5,-295.66 58.4,7.31 259.2,313.88 259.2,313.88 0,0 295.6,54.76 343.1,-120.43 47.4,-175.24 -29.2,-262.83 -73,-273.74 -43.8,-10.96 -324.9,-7.3 -317.6,-43.85 7.4,-36.49 197.2,-94.9 303,-62.01 0,0 -116.8,-288.36 -270.1,-273.74 -153.3,14.56 -200.8,109.46 -295.7,116.77 -94.9,7.31 -164.2,-18.27 -116.8,-43.79 47.5,-25.53 208.1,-8.39 284.7,-73.52 76.7,-65.18 138.7,-105.32 -3.6,-134.56 -142.4,-29.18 -397.9,-10.9 -448.9,98.56 -51.1,109.52 -51.1,109.52 -51.1,109.52" /></g><g
         transform="scale(1.65042)"
         id="g340"><path
           id="path342"
           style="fill:#82b378;fill-opacity:1;fill-rule:nonzero;stroke:none"
           d="m 16300,3845.8 c 0,0 -775.1,-251.02 -863.7,-531.56 0,0 3.6,-125.48 -73.9,-269.45 v -55.37 c 0,0 81.2,188.25 125.6,214.06 0,0 -173.6,243.64 812,642.32" /></g><g
         transform="scale(1.56304)"
         id="g344"><path
           id="path346"
           style="fill:#82b378;fill-opacity:1;fill-rule:nonzero;stroke:none"
           d="m 16221.2,3215.01 c 0,0 -126.2,-191.68 -54.2,-425 l 32.4,8.7 c 0,0 -31.4,257 34.6,386.23 66,129.3 -12.8,30.07 -12.8,30.07" /></g><g
         transform="scale(1.61693)"
         id="g348"><path
           id="path350"
           style="fill:#f1a34f;fill-opacity:1;fill-rule:nonzero;stroke:none"
           d="m 15746.5,2207.88 c 305.7,0 553.5,247.82 553.5,553.52 h -1107.1 c 0,-305.7 247.9,-553.52 553.6,-553.52" /></g><g
         transform="scale(1.57553)"
         id="g352"><path
           id="path354"
           style="fill:#ffb973;fill-opacity:1;fill-rule:nonzero;stroke:none"
           d="m 16300,2270.21 c -23.1,-2.85 -46.7,-4.31 -70.6,-4.31 -313.7,0 -568,254.32 -568,568.06 h 141.1 c 0,-289.87 217.1,-528.96 497.5,-563.75" /></g><g
         transform="scale(1.61769)"
         id="g356"><path
           id="path358"
           style="fill:#f1a34f;fill-opacity:1;fill-rule:nonzero;stroke:none"
           d="m 16300,2178.67 h -1121.8 c 0,37.71 30.6,68.3 68.3,68.3 h 985.3 c 37.7,0 68.2,-30.59 68.2,-68.3" /></g><g
         transform="scale(1.61818)"
         id="g360"><path
           id="path362"
           style="fill:#d86713;fill-opacity:1;fill-rule:nonzero;stroke:none"
           d="m 16300,2742.28 h -1137 v 17 h 1137 v -17" /></g><g
         transform="scale(1.74163)"
         id="g364"><path
           id="path366"
           style="fill:#2e3552;fill-opacity:1;fill-rule:nonzero;stroke:none"
           d="M 16282.5,1997.5 H 942.717 c -9.582,0 -17.425,7.87 -17.425,17.46 v 5.91 c 0,9.59 7.843,17.46 17.425,17.46 H 16282.5 c 9.6,0 17.5,-7.87 17.5,-17.46 v -5.91 c 0,-9.59 -7.9,-17.46 -17.5,-17.46" /></g><g
         id="g368"><g
           clip-path="url(#clipPath374)"
           id="g370"><path
             id="path376"
             style="fill:#afcdfb;fill-opacity:1;fill-rule:nonzero;stroke:none"
             d="M 14949.7,14543.8 C 10012.3,12762.3 4823.54,14244 4823.54,14244 l -440.98,-1040.7 c 6032.54,-3024.7 11112.54,317.5 11112.54,317.5 l -545.4,1023" /><path
             id="path378"
             style="fill:#aa413e;fill-opacity:1;fill-rule:nonzero;stroke:none"
             d="m 6528.96,12979.7 c 149.82,190.6 222.64,287.1 364.11,482.1 4.05,5.4 9.93,10.4 17.68,15.3 7.7,4.8 17.45,5.5 29.16,2.2 35.61,-10.1 53.46,-15 89.14,-24.8 8.57,-2.3 15.27,-7.4 19.89,-15.2 4.61,-7.9 5.79,-15.9 3.56,-24.3 -0.43,-1.6 -0.8,-3 -1.1,-4.1 -0.3,-1.1 -1.8,-3.4 -4.49,-6.8 -183.54,-259.7 -278.83,-387.9 -477.19,-640.2 -8.99,-11.4 -17.74,-19.3 -26.45,-23.7 -8.68,-4.4 -19.76,-4.6 -33.27,-0.4 -40.39,12.2 -60.6,18.5 -100.92,31.1 -13.34,4.2 -22.42,10.7 -27.12,19.2 -4.66,8.5 -7.45,20 -8.44,34.5 -21.49,320.2 -28.39,480 -33.81,798.2 -0.17,4.3 -0.13,7 0.28,8.1 0.36,1.1 0.84,2.4 1.37,3.9 2.89,8.2 8.45,14.2 16.72,18.1 8.27,3.8 16.56,4.3 25.14,1.3 35.14,-12.2 52.74,-18.2 87.95,-30 11.58,-3.9 19.25,-10 22.91,-18.3 3.69,-8.4 5.69,-15.9 5.99,-22.7 6.91,-240.8 12.77,-361.6 28.89,-603.5" /><path
             id="path380"
             style="fill:#aa413e;fill-opacity:1;fill-rule:nonzero;stroke:none"
             d="m 7603.86,12993.1 c 8.23,56.3 -2.01,103.5 -29.82,141.3 -27.8,37.8 -69.54,62.7 -125.43,75.2 -56.03,12.6 -104.46,7.9 -145.81,-14.3 -41.35,-22.3 -70.67,-60.5 -87.43,-115 -8.7,-28.9 -17.49,-61.1 -26.23,-96.8 -8.73,-35.8 -15.88,-68.5 -21.36,-98 -10.38,-56 -1.23,-103.6 27.23,-142.1 28.47,-38.5 72.43,-64.7 131.53,-77.9 58.93,-13.2 109.81,-8.4 151.94,14.3 42.14,22.6 70.75,61.8 85.24,116.8 7.63,29 15.15,61.7 22.5,97.8 7.36,36 13.29,69 17.64,98.7 z m -551.02,134.5 c 13.61,42.1 32.86,80.2 57.46,114.3 24.56,34.1 54.77,61.4 90.31,82.3 35.61,20.8 76.58,34.2 123.17,40.5 46.56,6.3 98.96,2.8 157.34,-10.3 57.59,-12.9 105.85,-31.8 145.25,-57 39.41,-25.1 70.75,-54.8 93.77,-89.2 23.12,-34.4 38.83,-72 46.92,-113.1 8.09,-41 9.31,-83.8 3.41,-128.6 -1.93,-15 -4.4,-31.4 -7.34,-49.4 -2.9,-17.9 -6.07,-36.5 -9.65,-55.5 -3.55,-19 -7.31,-37.5 -11.11,-55.2 -3.77,-17.8 -7.4,-34.1 -11.06,-48.7 -10.64,-43 -27.4,-82.4 -50.3,-117.9 -22.93,-35.5 -52.4,-64.4 -88.68,-86.7 -36.31,-22.4 -79.53,-36.8 -129.42,-43.5 -50.03,-6.5 -106.46,-2.9 -168.89,11.1 -63.31,14.2 -116.21,35.2 -158.29,62.4 -42.07,27.2 -74.74,58.7 -98.08,94.5 -23.24,35.6 -37.75,74.4 -43.33,116.3 -5.62,41.9 -3.98,84.7 4.79,128.2 2.93,14.7 6.57,30.9 10.72,48.6 4.18,17.7 8.8,36 13.73,54.7 4.89,18.7 9.79,36.9 14.83,54.4 5.05,17.5 9.79,33.4 14.45,47.8" /><path
             id="path382"
             style="fill:#aa413e;fill-opacity:1;fill-rule:nonzero;stroke:none"
             d="m 8526.06,13164.9 c 8.94,-1 16.07,-5 21.79,-12.1 5.68,-7 8.05,-14.8 7.07,-23.4 -3.8,-33.5 -5.68,-50.3 -9.47,-83.8 -0.99,-8.7 -5.06,-15.8 -12.28,-21.3 -7.22,-5.5 -15.23,-7.8 -24.26,-6.7 -87.71,10.1 -131.48,15.7 -219,27.8 -35.61,-257.7 -53.25,-386.5 -88.94,-644.2 -1.19,-8.6 -5.68,-15.5 -13.31,-20.9 -7.81,-5.3 -16.54,-7.3 -25.99,-5.9 -42.02,5.9 -63,9 -104.98,15.3 -9.49,1.5 -17.11,5.8 -23.07,13.2 -5.92,7.3 -8.23,15.2 -6.9,23.8 39.83,257.1 59.57,385.6 99.33,642.7 -87.36,13.5 -130.97,20.7 -218.11,36.1 -8.86,1.6 -16.04,6.1 -21.38,13.4 -5.33,7.4 -7.23,15.4 -5.66,24 5.97,33.1 8.95,49.7 14.96,82.9 1.54,8.6 6.06,15.4 13.56,20.5 7.46,5.1 15.65,6.8 24.38,5.3 236.1,-41.7 354.67,-59.1 592.26,-86.7" /><path
             id="path384"
             style="fill:#aa413e;fill-opacity:1;fill-rule:nonzero;stroke:none"
             d="m 8630.28,12318.4 c -9.52,0.9 -17.51,4.9 -23.67,11.9 -6.3,7 -9.03,14.8 -8.14,23.4 30.88,305.1 46.03,457.7 76.94,762.8 0.88,8.6 4.85,15.7 11.89,21.4 6.95,5.7 14.92,8.1 23.72,7.2 38.96,-3.8 58.44,-5.6 97.47,-9 8.8,-0.8 16.07,-4.6 21.95,-11.5 5.88,-6.8 8.47,-14.6 7.72,-23.2 -25.95,-305.6 -38.64,-458.4 -64.6,-763.9 -0.71,-8.7 -4.81,-15.9 -12.31,-21.6 -7.49,-5.7 -15.94,-8.2 -25.45,-7.3 -42.25,3.7 -63.31,5.7 -105.52,9.8" /><path
             id="path386"
             style="fill:#aa413e;fill-opacity:1;fill-rule:nonzero;stroke:none"
             d="m 9566.3,12267.2 c -14.85,0.2 -26.01,3.9 -33.8,11.1 -7.61,7.3 -13.27,12.9 -16.68,16.9 -142.56,199.9 -210.57,301 -339.9,505.2 -9.69,-195.4 -14.46,-293 -24.22,-488.3 -0.43,-8.7 -4.26,-16.1 -11.54,-22 -7.29,-6 -15.63,-8.7 -25.18,-8.2 -42.29,2.2 -63.39,3.4 -105.69,6.1 -9.51,0.6 -17.64,4.3 -24.05,11 -6.53,6.8 -9.5,14.5 -8.92,23.2 20.19,306 30.06,459 50.32,765 0.58,8.6 4.3,15.9 11.17,21.8 6.7,5.9 14.6,8.6 23.43,8 33.71,-2.1 50.6,-3.1 84.35,-4.9 13.58,-0.7 23.88,-4.9 30.81,-12.3 6.75,-7.6 11.8,-13.3 14.83,-17.5 125.51,-203.9 191.65,-305 330.48,-504.7 3.15,195.5 4.71,293.3 7.95,488.8 0.13,8.7 3.51,16.2 10.03,22.4 6.56,6.3 14.18,9.3 23,9.2 39.11,-0.5 58.65,-0.7 97.78,-0.8 8.83,0 16.37,-3.2 22.8,-9.6 6.46,-6.3 9.67,-13.8 9.68,-22.5 -0.21,-306.7 -0.08,-460 -0.12,-766.6 0.02,-8.7 -3.46,-16.2 -10.44,-22.6 -6.97,-6.3 -15.17,-9.4 -24.71,-9.4 -36.56,0.1 -54.82,0.3 -91.38,0.7" /><path
             id="path388"
             style="fill:#aa413e;fill-opacity:1;fill-rule:nonzero;stroke:none"
             d="m 9855.62,12791 c 1.28,47.2 9.4,90.9 25.09,130.4 15.66,39.4 38.54,73.5 68.6,102.3 30.08,28.8 67.19,51.7 111.19,68.7 44.2,17 95.9,26.9 155.3,29.9 69.7,3.6 127.7,-1.6 174.3,-16.3 46.7,-14.6 84.5,-33.1 113.5,-55.8 29.1,-22.7 50.2,-46.8 63.5,-72.2 13.1,-25.5 21.5,-47.2 24.6,-65.1 1.7,-9.5 -0.6,-17.4 -7.1,-23.9 -6.5,-6.5 -14.3,-10.1 -23.3,-10.9 -40,-3.3 -60,-4.9 -100,-7.9 -9,-0.6 -16.3,1 -21.9,4.9 -5.8,4 -10,8.3 -12.8,12.9 -1.9,2.9 -6.7,9.6 -14.3,19.7 -7.7,10.2 -19.6,20.5 -35.4,30.9 -15.8,10.4 -36.2,19.5 -61.4,27.1 -24.9,7.6 -55.6,10.4 -92.2,8.5 -61.1,-3.2 -109.1,-21.2 -144.9,-54.6 -35.6,-33.3 -53.8,-77.1 -54.8,-130.6 -0.6,-30 -0.5,-62.4 0.6,-96.8 1,-34.4 3.1,-66.9 5.5,-96.5 5.2,-64.9 26.5,-112.6 66,-140.9 39.7,-28.2 91.9,-40.9 156.3,-37.6 31.7,1.7 60.7,6.4 86.9,14.3 26.2,7.9 48.5,19.6 66.7,35.1 18.3,15.5 31.9,35.3 40.9,59.3 9,24 12.2,53 9.8,87 -0.3,3.8 -0.4,5.7 -0.7,9.5 -61.7,-4.5 -92.5,-6.5 -154.2,-10 -9.3,-0.5 -17.3,2.2 -24.5,8.1 -7,6 -10.8,13.3 -11.3,22 -1.8,33.7 -2.7,50.5 -4.6,84.1 -0.4,8.8 2.5,16.4 8.8,23.1 6.4,6.7 14,10.2 23.1,10.8 114.7,6.5 172,10.6 286.5,20.3 9.2,0.7 17.2,-1.8 24.4,-7.4 7.2,-5.8 11.2,-13 12,-21.7 4.6,-52 6.8,-78 11.4,-130 4.2,-47.3 0.1,-91.6 -12.7,-132.7 -12.8,-41.2 -34.4,-77.6 -64.8,-108.9 -30.5,-31.4 -69.9,-57 -118.3,-76.5 -48.3,-19.4 -105.7,-31.1 -171.7,-34.5 -66.2,-3.4 -124.1,2.1 -173.2,16.2 -49.3,14.1 -90.27,35 -122.87,62.8 -32.6,27.6 -57.68,61.3 -74.96,101 -17.42,39.7 -26.95,83.6 -29.75,130.7 -0.9,14.9 -1.98,31.6 -2.7,49.8 -0.58,18.2 -1.16,36.8 -1.43,55.7 -0.32,19 -0.28,37.6 -0.27,55.8 0.14,18.2 0.68,34.9 1.1,49.9" /><path
             id="path390"
             style="fill:#aa413e;fill-opacity:1;fill-rule:nonzero;stroke:none"
             d="m 11589.5,12942.4 c -6.2,24.7 -15.6,46.8 -28,66.7 -12.5,19.8 -28.5,36.2 -47.9,49.3 -19.5,12.9 -42.5,21.7 -69.1,26.4 -26.6,4.6 -57.1,4.1 -91.8,-1.6 -65,-10.6 -97.5,-15.7 -162.5,-25.2 30.9,-211.4 46.5,-317 77.6,-528.3 71,10.4 106.4,15.9 177.3,27.5 34.7,5.7 64.2,15.3 88,28.7 24,13.3 42.9,29.3 57,47.9 14.1,18.6 23.5,39.6 28.4,63 4.8,23.4 5.8,47.8 2.8,72.9 -7.1,58 -18,115.7 -31.8,172.7 z m -254.7,288.2 c 58.9,9.6 111.2,10.9 157.3,3.5 46,-7.4 86.4,-22.2 120.8,-44.6 34.6,-22.3 63.8,-51.7 87.2,-88.2 23.6,-36.5 42.4,-78.9 55.2,-127 15,-56.4 26.7,-114.3 34.6,-172.1 6.7,-49.3 5.3,-95.8 -3.2,-138.6 -8.4,-42.7 -25.4,-81.2 -50.6,-115 -25.3,-33.9 -59.6,-62.6 -102.7,-86 -43.1,-23.5 -95.9,-40.5 -157.9,-50.7 -130.1,-21.4 -195.3,-31.2 -325.9,-48.6 -9.5,-1.3 -18.2,0.7 -25.8,6.1 -7.7,5.4 -12.2,12.4 -13.3,21 -39.8,304.1 -59.7,456.1 -99.2,760.2 -1.1,8.6 1.1,16.4 6.7,23.6 5.4,7.1 12.7,11.2 21.4,12.4 118.3,15.8 177.5,24.6 295.4,44" /><path
             id="path392"
             style="fill:#aa413e;fill-opacity:1;fill-rule:nonzero;stroke:none"
             d="m 12414.6,12929 c -88.9,116.4 -132.6,175 -218.2,293.1 -19.9,-144.4 -30.8,-216.7 -54.3,-361.2 109.3,25.7 163.8,39.4 272.5,68.1 z m -197.7,486.9 c 12.5,3.1 22.7,2.3 30.7,-2.6 8,-4.9 16,-13.2 24.2,-24.9 191.7,-259.9 291.8,-388 499.6,-639.5 1.4,-2.1 2.7,-4.7 3.5,-7.7 2.5,-8.3 1.2,-16.5 -3.7,-24.6 -5,-8 -12.1,-13.4 -21.3,-16.1 -36.4,-10.6 -54.7,-15.8 -91.2,-26 -16.9,-4.8 -29.6,-4.8 -38.1,-0.2 -8.6,4.6 -15.1,9.6 -19.2,15.1 -35.8,44.7 -53.5,67.2 -88.7,112.2 -158.2,-42.7 -237.6,-62.6 -397,-99.2 -9.9,-56.3 -15,-84.5 -25.4,-140.8 -1.2,-6.8 -4.5,-14.2 -9.7,-22.3 -5.4,-8 -16.7,-14 -33.8,-17.8 -36.9,-8.1 -55.4,-12.1 -92.4,-19.8 -9.4,-2 -18,-0.6 -26.2,4.2 -8.2,4.8 -13.1,11.4 -14.8,19.9 -0.7,3.1 -0.8,5.9 -0.4,8.5 64.4,319.6 92.1,479.6 138.8,799.1 1.7,14.2 4.8,25.3 9.6,33.4 4.7,8 13.4,13.6 25.8,16.6 52,12.7 77.9,19.1 129.7,32.5" /><path
             id="path394"
             style="fill:#aa413e;fill-opacity:1;fill-rule:nonzero;stroke:none"
             d="m 13182.7,13716.2 c 8.4,3.1 16.7,2.7 25,-0.9 8.4,-3.7 14.1,-9.6 17.1,-17.8 1.4,-3.7 1.8,-7.4 1.4,-10.8 -40.5,-226.1 -63.6,-339.4 -115.8,-565.9 33.4,-99 50.2,-148.4 83.5,-247.4 2.8,-8.2 1.9,-16.4 -2.8,-24.7 -4.7,-8.2 -11.5,-13.9 -20.7,-16.9 -40.1,-13.4 -60.2,-20.1 -100.4,-33.1 -9.2,-2.9 -18.1,-2.5 -26.8,1.4 -8.6,3.9 -14.3,9.9 -16.9,18.2 -31.8,99.5 -47.7,149.2 -79.5,248.6 -176.3,151.5 -262.1,228.9 -428.4,386.9 -2.4,2.6 -4.2,5.8 -5.3,9.6 -2.4,8.4 -1.4,16.5 3.1,24.4 4.5,7.9 11.1,13.1 19.7,15.6 35,10.2 52.5,15.4 87.5,26 15.5,4.7 28.3,4.4 38.4,-0.8 10.1,-5.2 16.6,-9.4 19.2,-12.7 115.2,-105.1 174,-156.9 293.9,-258.9 35.8,153.2 52.4,229.8 82.8,382.8 0.4,4.3 3,11.5 8.1,21.7 5,10.2 15.2,18 30.6,23.5 34.6,12.3 51.8,18.5 86.3,31.2" /><path
             id="path396"
             style="fill:#9abcef;fill-opacity:1;fill-rule:nonzero;stroke:none"
             d="m 9320.76,13485.5 c 0,0 1945.54,-123.5 4223.14,502.7 0,0 -2301.2,-855.5 -4223.14,-502.7" /><path
             id="path398"
             style="fill:#9abcef;fill-opacity:1;fill-rule:nonzero;stroke:none"
             d="m 7359.13,13656.1 c 0,0 1931.46,-485.5 3532.17,-288.3 0,0 -1613.94,-326 -3532.17,288.3" /><path
             id="path400"
             style="fill:#9abcef;fill-opacity:1;fill-rule:nonzero;stroke:none"
             d="m 14719.5,13367.8 c 0,0 -1493.9,-839.9 -2647.8,-1004.9 0,0 1387.2,84.5 2647.8,1004.9" /><path
             id="path402"
             style="fill:#9abcef;fill-opacity:1;fill-rule:nonzero;stroke:none"
             d="m 4797.08,13145.3 c 0,0 1142.38,-537.3 2193.97,-749 0,0 -1016.58,122.1 -2193.97,749" /><path
             id="path404"
             style="fill:#9abcef;fill-opacity:1;fill-rule:nonzero;stroke:none"
             d="m 4969.06,13348.8 c 0,0 582.08,-330.7 1186.21,-432.1 0,0 -586.49,-39.7 -1186.21,432.1" /><path
             id="path406"
             style="fill:#9abcef;fill-opacity:1;fill-rule:nonzero;stroke:none"
             d="m 5304.2,13988.2 c 0,0 571.34,-246.9 1252.36,-216.1 0,0 -736.42,-158.7 -1252.36,216.1" /><path
             id="path408"
             style="fill:#9abcef;fill-opacity:1;fill-rule:nonzero;stroke:none"
             d="m 14899.8,14248.4 c 0,0 -891.7,-608.6 -1504.2,-679.1 0,0 767.7,-66.2 1504.2,679.1" /><path
             id="path410"
             style="fill:#9abcef;fill-opacity:1;fill-rule:nonzero;stroke:none"
             d="m 13704.7,13400.2 c 0,0 595.3,107.4 1089.2,389.6 0,0 -493.9,-435.2 -1089.2,-389.6" /></g></g><path
         id="path412"
         style="fill:#b64c41;fill-opacity:1;fill-rule:nonzero;stroke:none"
         d="M 6688.85,7392.1 H 5304.2 v 127.1 h 1384.65 v -127.1" /><path
         id="path414"
         style="fill:#aa413e;fill-opacity:1;fill-rule:nonzero;stroke:none"
         d="m 4532.5,7392.1 h 771.7 v 127.1 h -771.7 v -127.1" /></g></g></svg>