<?xml version="1.0" encoding="UTF-8" standalone="no"?>
<svg
   xmlns:dc="http://purl.org/dc/elements/1.1/"
   xmlns:cc="http://creativecommons.org/ns#"
   xmlns:rdf="http://www.w3.org/1999/02/22-rdf-syntax-ns#"
   xmlns:svg="http://www.w3.org/2000/svg"
   xmlns="http://www.w3.org/2000/svg"
   viewBox="0 0 4000 2666.6667"
   height="2666.6667"
   width="4000"
   xml:space="preserve"
   id="svg2"
   version="1.1"><metadata
     id="metadata8"><rdf:RDF><cc:Work
         rdf:about=""><dc:format>image/svg+xml</dc:format><dc:type
           rdf:resource="http://purl.org/dc/dcmitype/StillImage" /></cc:Work></rdf:RDF></metadata><defs
     id="defs6"><clipPath
       id="clipPath62"
       clipPathUnits="userSpaceOnUse"><path
         id="path60"
         d="M 16395.3,10686.1 H 14411 v 1984.2 h 1984.3 z" /></clipPath><clipPath
       id="clipPath118"
       clipPathUnits="userSpaceOnUse"><path
         id="path116"
         d="M 16395.3,5049 H 14411 v 1984.2 h 1984.3 z" /></clipPath></defs><g
     transform="matrix(1.3333333,0,0,-1.3333333,0,2666.6667)"
     id="g10"><g
       transform="scale(0.1)"
       id="g12"><g
         transform="scale(1.84049)"
         id="g14"><path
           id="path16"
           style="fill:#ffffff;fill-opacity:1;fill-rule:nonzero;stroke:none"
           d="M 16300,0 H 0 V 10866.7 H 16300 V 0" /></g><g
         transform="scale(1.82706)"
         id="g18"><path
           id="path20"
           style="fill:#ebf3fa;fill-opacity:1;fill-rule:nonzero;stroke:none"
           d="m 2113.05,1409.48 c 0,0 -1479.583,1293.12 -1191.988,3422.39 C 1218.85,7036.61 2784.37,8209.62 4826.72,7764.42 6496.14,7400.52 7571.64,7633.94 9297.97,8674.18 12128.9,10380 15777.8,8533.25 14823.2,5228.14 14361.3,3628.68 16300,2838.39 14677.2,1406.09 l -12564.15,3.39" /></g><g
         transform="scale(1.38158)"
         id="g22"><path
           id="path24"
           style="fill:#afcdfb;fill-opacity:1;fill-rule:nonzero;stroke:none"
           d="m 14365.4,9458.35 c 0,0 1215.4,1228.45 1575,962.35 359.6,-266 -1575,-962.35 -1575,-962.35" /></g><g
         transform="scale(1.50145)"
         id="g26"><path
           id="path28"
           style="fill:#afcdfb;fill-opacity:1;fill-rule:nonzero;stroke:none"
           d="m 13141.7,8490.02 c 0,0 2113.5,1024.37 2635.9,532.61 522.4,-491.76 -574.5,-462.48 -981.7,-418.08 -407.1,44.41 -1654.2,-114.53 -1654.2,-114.53" /></g><g
         transform="scale(1.25645)"
         id="g30"><path
           id="path32"
           style="fill:#afcdfb;fill-opacity:1;fill-rule:nonzero;stroke:none"
           d="m 15588.2,10422.9 c 0,0 10.1,64.8 23.7,159.6 26.4,185 66,484.4 69.8,639.7 5.9,235 189.5,407.4 403.9,174.8 214.4,-232.6 -419.7,-907.3 -419.7,-907.3 l -77.7,-66.8" /></g><path
         id="path34"
         style="fill:#cde0fb;fill-opacity:1;fill-rule:nonzero;stroke:none"
         d="m 11254.7,10173.5 c 147,477.2 954.7,298.8 954.7,298.8 0,0 523,-861.9 682.8,-887.5 159.9,-25.6 -303.2,824.2 -303.2,824.2 312.1,19.4 1091.8,-389.1 1091.8,-389.1 0,0 -84,-981.7 77.3,-967.2 161.2,14.6 29.9,873.1 29.9,873.1 298,-100.7 566.9,-461.6 566.9,-461.6 331.6,-584 -435.5,-979.6 -435.5,-979.6 0,0 -21.8,-340.9 175.5,-739.5 h 0.1 c 0,0 45,-73.9 89.2,-198.3 l -82.1,2.8 c -6,22.2 -12.6,43.7 -20.1,64.4 0,0.2 0,0.3 -0.2,0.4 -0.1,0.3 -0.2,0.6 -0.3,0.9 -5.2,12.9 -12.6,31.2 -21.9,53.5 -0.1,0.1 -0.1,0.1 -0.1,0.1 0,0.1 0,0.1 0,0.1 -23.4,50 -39.1,86.8 -48.9,113.4 -0.1,0.1 -0.1,0.1 -0.1,0.2 -69.8,156.7 -171.2,361.2 -241.9,405.7 0,0 9.5,12.5 18.8,37.1 -6,-11.8 -12.3,-24.1 -18.8,-37.1 -150.9,-296.2 -855,-322.2 -1243.6,-228.5 -388.6,93.7 -214.2,198.2 2.6,370.2 216.9,171.9 656.8,109.5 789.7,175.2 132.9,65.8 -55.4,142.6 -317,131.5 -261.6,-11.1 -401,-267.5 -823.8,-293.2 -422.9,-25.7 -716.8,778.1 -716.8,778.1 287.9,-100.3 815.3,42.3 838.8,142 23.5,99.7 -749.5,116.1 -868.9,150.4 -119.4,34.2 -321.9,282.3 -174.9,759.5" /><g
         transform="scale(1.45565)"
         id="g36"><path
           id="path38"
           style="fill:#cde0fb;fill-opacity:1;fill-rule:nonzero;stroke:none"
           d="m 16197.8,6576.99 c -102.2,264.42 -552.4,131.28 -552.4,131.28 0,0 -261.9,-508.84 -351.4,-529.66 -89.5,-20.88 138.9,478.69 138.9,478.69 -177.5,-1.38 -602.7,-263.73 -602.7,-263.73 0,0 86.6,-552.54 -5.3,-550.68 -91.9,1.85 -51.7,493.18 -51.7,493.18 -164.7,-68.84 -302.6,-283.86 -302.6,-283.86 -164.6,-343.9 285.5,-537.42 285.5,-537.42 0,0 25.9,-192.15 -70,-425.66 v -0.06 c 0,0 -22.6,-43.63 -42.6,-115.83 l 46.3,4.81 c 2.5,12.85 5.4,25.35 8.9,37.37 0,0.07 0,0.14 0,0.21 0,0.13 0.1,0.34 0.2,0.48 2.4,7.49 5.9,18.2 10.3,31.19 v 0.07 c 0,0 0,0 0,0.06 11.2,29.2 18.7,50.7 23.2,66.09 0,0.07 0,0.14 0,0.14 33.4,91.5 82.6,211.31 120.9,239.34 0,0 -5.9,6.73 -12.2,20.27 3.9,-6.46 7.9,-13.19 12.2,-20.27 97.1,-161.71 496.9,-148.45 713.2,-79.96 216.3,68.56 113.4,120.77 -16.2,209.53 -129.6,88.69 -376.3,35.86 -454.1,67.87 -77.8,31.94 25.7,82.92 174.2,86.97 148.6,4.12 237.8,-135.54 478.2,-133.27 240.5,2.33 374.9,469.13 374.9,469.13 -159,-68.28 -463.3,-8.45 -480.5,47.06 -17.3,55.51 419.7,95.56 485.9,119.67 66.3,24.12 171.1,172.64 68.9,436.99" /></g><g
         transform="scale(1.04036)"
         id="g40"><path
           id="path42"
           style="fill:#afcdfb;fill-opacity:1;fill-rule:nonzero;stroke:none"
           d="m 11249.8,14117.7 c 365.9,711.5 1589.9,203 1589.9,203 0,0 582.8,-1506.7 827.8,-1591.9 245,-85.3 -246.7,1385.4 -246.7,1385.4 497.8,-57.1 1612.9,-920.7 1612.9,-920.7 0,0 -408.3,-1525.1 -149.9,-1547.4 258.5,-22.4 292.7,1368.8 292.7,1368.8 441.7,-242.6 764.5,-887.4 764.5,-887.4 359,-1014.6 -962.4,-1423.1 -962.4,-1423.1 0,0 -130,-531.5 69.1,-1215.82 v 0 c 0,0 50.4,-129.19 85,-337.96 l -128.6,27.49 c -3.2,36.72 -7.6,72.57 -13.7,107.37 0.1,0.19 0,0.38 0,0.57 -0.1,0.58 -0.2,1.06 -0.3,1.54 -4.6,21.72 -11.2,52.77 -19.6,90.64 v 0.1 c 0,0.09 -0.1,0.09 0,0.19 -22.9,85.36 -37.3,147.93 -45.4,192.53 0,0.19 0,0.29 0,0.39 -66.1,266.81 -168.5,617.86 -267.6,708.06 0,0 18.5,17 40.2,53.2 -12.9,-17 -26.2,-34.7 -40.2,-53.2 -321.3,-424.89 -1439.3,-268.1 -2026.1,-11 -586.7,257.1 -282.2,372.9 108.3,583.2 390.4,210.2 1066.8,-11.8 1294.9,54.6 228.1,66.4 -47.3,240.4 -463.1,296.4 -415.7,56 -707.7,-309.3 -1382,-231 -674.3,78.4 -912,1429 -912,1429 426,-239.2 1298,-162.4 1363.1,-11.8 65.1,150.6 -1149.7,393.9 -1328.4,481.5 -178.8,87.6 -428.4,535.8 -62.4,1247.3" /></g><g
         transform="scale(1.33701)"
         id="g44"><path
           id="path46"
           style="fill:#ffffff;fill-opacity:1;fill-rule:nonzero;stroke:none"
           d="M 16300,1926.98 H 10201.3 V 10174.1 H 16300 V 1926.98" /></g><g
         transform="scale(1.31707)"
         id="g48"><path
           id="path50"
           style="fill:#e7edff;fill-opacity:1;fill-rule:nonzero;stroke:none"
           d="M 16300,2165.34 H 10549.1 V 10165.1 H 16300 V 2165.34" /></g><g
         transform="scale(1.00585)"
         id="g52"><path
           id="path54"
           style="fill:#ffffff;fill-opacity:1;fill-rule:nonzero;stroke:none"
           d="m 16300,10623.9 h -1972.8 v 1972.8 H 16300 v -1972.8" /></g><g
         id="g56"><g
           clip-path="url(#clipPath62)"
           id="g58"><path
             id="path64"
             style="fill:#88a0e2;fill-opacity:1;fill-rule:nonzero;stroke:none"
             d="m 16062.1,8767.1 h -1569 l 1124.8,2521.9 389.1,-871.8 142.2,-847.8 -87.1,-802.3" /><path
             id="path66"
             style="fill:#ffffff;fill-opacity:1;fill-rule:nonzero;stroke:none"
             d="m 14836.9,11223.8 251.4,65.2 244.1,86.6 c 0,0 141.6,-67.8 242.6,-86.6 109.9,-20.4 476.8,-633.4 476.8,-659 0,-25.6 -286.9,-1850.4 -286.9,-1850.4 h -1385.2 l 457.2,2444.2" /><path
             id="path68"
             style="fill:#ffb27d;fill-opacity:1;fill-rule:nonzero;stroke:none"
             d="m 15524.7,11189.6 c -124.4,-21.4 -305.6,8.7 -436.6,99.5 63.4,142.2 90.7,254.9 101.1,328 0.7,3.9 1.1,7.7 1.6,11.3 4.8,38 4.9,63.8 3.3,75.6 l 320,-7.4 c 0,0 86.5,-42 85.9,-69.7 -0.4,-14.8 -0.6,-28.9 -0.6,-42.4 -0.2,-36.8 0.5,-69 1.8,-96.6 3.9,-90 16.7,-198.9 16.7,-198.9 0,0 32.3,-77.9 -93.2,-99.4" /><path
             id="path70"
             style="fill:#e2915a;fill-opacity:1;fill-rule:nonzero;stroke:none"
             d="m 15601.2,11487.9 c -243.6,-41.2 -381.2,94.5 -412,129.2 -4.3,5 -6.6,7.9 -6.6,7.9 2.6,1.3 5.3,2.4 8.2,3.4 91.1,34.5 298.7,16.1 412.1,-28.5 -0.2,-36.8 -3,-84.4 -1.7,-112" /><path
             id="path72"
             style="fill:#ffb27d;fill-opacity:1;fill-rule:nonzero;stroke:none"
             d="m 15099.6,11726.9 c 82.5,-222.4 377.7,-163.6 503.3,-127 35.4,10.3 57.3,18.8 57.3,18.8 38.7,17.9 50.4,85.9 46.4,171.6 -7.8,169.6 -76.4,408.7 -115.2,466.2 -58.4,86.5 -155.5,174.2 -441.4,49.4 -286,-124.9 -156.1,-294 -50.4,-579" /><path
             id="path74"
             style="fill:#233862;fill-opacity:1;fill-rule:nonzero;stroke:none"
             d="m 15564.4,12453.6 c -101.3,74.7 -191.7,91.1 -257.5,91.9 -194.8,2.6 -346,-95.9 -346.8,-96.4 -225.4,-149.4 -256.8,-347 -77.2,-615.4 189.9,-283.7 305.7,-221.3 305.7,-221.3 0,0 -22.2,7.1 -36.3,103.4 -0.8,5.4 -1.4,10 -1.8,14 -2.1,19.8 -12.4,38.3 -29.4,48.9 -35,21.8 -63.9,101 -42.4,128.1 25.8,32.8 74.6,6.9 92.8,-16.4 15.1,-16 37.7,-18.7 55.5,-2.6 67.6,61.1 1.7,148.6 64.1,219.9 62.4,71.2 436.5,39.2 461,249.5 0,0 -93.6,27.1 -187.7,96.4" /><g
             transform="scale(1.00323)"
             id="g76"><path
               id="path78"
               style="fill:#aec3ff;fill-opacity:1;fill-rule:nonzero;stroke:none"
               d="m 15567.7,11252.7 c 0,0 391.6,-808.2 442.7,-1432.19 51.1,-624.09 0,-1081.61 0,-1081.61 0,0 254.7,609.03 278.8,1330.6 10.8,320.8 -40.6,901.4 -149.6,1004.2 -53.1,50.1 -212.7,98 -571.9,179" /></g><path
             id="path80"
             style="fill:#aec3ff;fill-opacity:1;fill-rule:nonzero;stroke:none"
             d="m 15180.2,10216.8 c -1.2,-92.6 -4.8,-189.4 -11.4,-289.5 -23.1,-351.8 -83.1,-745.3 -208.3,-1147.7 h -1286.1 c 0,0 159.4,387.4 351.9,808.4 33.7,73.7 68.4,148.5 103.5,222.4 142.3,299.8 290.1,585.2 398.2,729.4 287,382.6 560.3,749.2 560.3,749.2 0,0 100.5,-438.8 91.9,-1072.2" /><path
             id="path82"
             style="fill:#aec3ff;fill-opacity:1;fill-rule:nonzero;stroke:none"
             d="m 15088.3,11289 c 0,0 -472.2,-55.8 -595.2,-171.9 -207.9,-196.4 -754.9,-939.2 -700.8,-1264.9 35.8,-216.2 1035,-216.2 1035,-216.2 0,0 123.3,80 168.7,152.3 92.3,146.8 60.3,254.5 60.3,254.5 l -617.9,210 c 0,0 301.4,292.3 533.7,307.5 169.9,11.1 116.2,728.7 116.2,728.7" /></g></g><g
         transform="scale(1.1906)"
         id="g84"><path
           id="path86"
           style="fill:#aec3ff;fill-opacity:1;fill-rule:nonzero;stroke:none"
           d="m 16300,9576.47 h -2088.4 v 41.91 H 16300 v -41.91" /></g><g
         transform="scale(1.1906)"
         id="g88"><path
           id="path90"
           style="fill:#aec3ff;fill-opacity:1;fill-rule:nonzero;stroke:none"
           d="m 16300,9380.9 h -2088.4 v 41.91 H 16300 v -41.91" /></g><g
         transform="scale(1.1906)"
         id="g92"><path
           id="path94"
           style="fill:#aec3ff;fill-opacity:1;fill-rule:nonzero;stroke:none"
           d="m 16300,9183 h -2088.4 v 41.91 H 16300 V 9183" /></g><g
         transform="scale(1.08473)"
         id="g96"><path
           id="path98"
           style="fill:#ffffff;fill-opacity:1;fill-rule:nonzero;stroke:none"
           d="m 16300,11116.1 h -701.4 v 701.3 h 701.4 v -701.3" /></g><g
         transform="scale(1.1906)"
         id="g100"><path
           id="path102"
           style="fill:#aec3ff;fill-opacity:1;fill-rule:nonzero;stroke:none"
           d="m 16300,10193.7 h -809.8 v 73.7 h 809.8 v -73.7" /></g><g
         transform="scale(1.1906)"
         id="g104"><path
           id="path106"
           style="fill:#aec3ff;fill-opacity:1;fill-rule:nonzero;stroke:none"
           d="m 16300,10021.1 h -986.2 v 73.7 h 986.2 v -73.7" /></g><g
         transform="scale(1.00585)"
         id="g108"><path
           id="path110"
           style="fill:#ffffff;fill-opacity:1;fill-rule:nonzero;stroke:none"
           d="M 16300,5019.65 H 14327.2 V 6992.32 H 16300 V 5019.65" /></g><g
         id="g112"><g
           clip-path="url(#clipPath118)"
           id="g114"><path
             id="path120"
             style="fill:#aec3ff;fill-opacity:1;fill-rule:nonzero;stroke:none"
             d="m 14810.9,5586.7 251.3,65.3 244.1,86.5 c 0,0 141.7,-67.7 242.7,-86.5 109.9,-20.5 476.8,-633.4 476.8,-659.1 0,-25.6 10.3,-1862.9 10.3,-1862.9 l -1682.4,12.5 457.2,2444.2" /><path
             id="path122"
             style="fill:#ffb27d;fill-opacity:1;fill-rule:nonzero;stroke:none"
             d="m 15498.7,5552.5 c -124.4,-21.4 -305.6,8.7 -436.6,99.5 63.4,142.2 90.7,254.9 101.1,328.1 0.6,3.9 1.1,7.6 1.6,11.3 4.8,37.9 4.9,63.7 3.3,75.6 l 320,-7.5 c 0,0 86.5,-42 85.9,-69.7 -0.4,-14.8 -0.6,-28.9 -0.6,-42.4 -0.3,-36.8 0.5,-69 1.7,-96.6 4,-89.9 16.7,-198.8 16.7,-198.8 0,0 32.4,-77.9 -93.1,-99.5" /><path
             id="path124"
             style="fill:#e2915a;fill-opacity:1;fill-rule:nonzero;stroke:none"
             d="m 15575.1,5850.8 c -243.5,-41.2 -381.1,94.5 -411.9,129.3 -4.3,4.9 -6.6,7.9 -6.6,7.9 2.6,1.2 5.3,2.3 8.2,3.4 91.1,34.4 298.7,16 412.1,-28.6 -0.2,-36.8 -3,-84.4 -1.8,-112" /><path
             id="path126"
             style="fill:#ffb27d;fill-opacity:1;fill-rule:nonzero;stroke:none"
             d="m 15073.6,6089.8 c 82.5,-222.4 377.7,-163.6 503.3,-127 35.4,10.3 57.3,18.8 57.3,18.8 38.7,17.9 50.4,85.9 46.4,171.6 -7.8,169.6 -76.4,408.8 -115.2,466.2 -58.4,86.5 -155.5,174.2 -441.4,49.4 -286,-124.9 -156.1,-294 -50.4,-579" /><path
             id="path128"
             style="fill:#a9453d;fill-opacity:1;fill-rule:nonzero;stroke:none"
             d="m 15538.4,6816.5 c -101.3,74.7 -191.7,91.1 -257.5,91.9 -194.8,2.6 -346,-95.9 -346.8,-96.4 -225.4,-149.4 -256.8,-347 -77.2,-615.3 189.9,-283.8 305.6,-221.4 305.6,-221.4 0,0 -22.1,7.2 -36.2,103.4 -0.8,5.5 -1.4,10 -1.8,14 -2.1,19.8 -12.4,38.3 -29.4,48.9 -35,21.8 -63.9,101 -42.4,128.2 25.8,32.7 74.6,6.8 92.8,-16.5 15.1,-16 37.7,-18.7 55.5,-2.5 67.6,61.1 1.7,148.5 64.1,219.8 62.4,71.3 436.5,39.2 461,249.6 0,0 -93.6,27 -187.7,96.3" /><g
             transform="scale(1.00163)"
             id="g130"><path
               id="path132"
               style="fill:#aec3ff;fill-opacity:1;fill-rule:nonzero;stroke:none"
               d="m 15566.4,5642.79 c 0,0 392.4,-809.48 443.6,-1434.56 51.1,-625.08 0,-1083.33 0,-1083.33 0,0 255.1,610 279.2,1332.73 10.8,321.27 -40.7,902.92 -149.8,1005.75 -53.2,50.32 -213.1,98.24 -573,179.41" /></g><path
             id="path134"
             style="fill:#aec3ff;fill-opacity:1;fill-rule:nonzero;stroke:none"
             d="m 15062.3,5652 -0.1,-0.1 v 0.1 c 0,0 -472.1,-55.9 -595.1,-172 -207.9,-196.4 -754.9,-939.2 -700.8,-1264.9 11.9,-72.2 292,-292.9 445.9,-324.9 39,-306.6 -57.6,-760.2 -57.6,-760.2 l 779.9,12.5 c 125.2,402.4 185.2,796 208.3,1147.7 6.6,100.2 10.1,196.9 11.4,289.5 8.6,633.4 -91.9,1072.3 -91.9,1072.3" /><path
             id="path136"
             style="fill:#f99746;fill-opacity:1;fill-rule:nonzero;stroke:none"
             d="m 15123.8,5735.6 c 0,0 197.6,-161.5 314.6,-189.7 0,0 -108.6,-57.5 -450,95.8 0,0 49.3,83.2 135.4,93.9" /><path
             id="path138"
             style="fill:#f99746;fill-opacity:1;fill-rule:nonzero;stroke:none"
             d="m 15581.8,5752.2 c 0,0 22.5,-67.3 57.1,-110.9 0,0 -30.5,-107.6 -200.5,-95.4 0,0 150.1,107.8 143.4,206.3" /><path
             id="path140"
             style="fill:#f99746;fill-opacity:1;fill-rule:nonzero;stroke:none"
             d="m 15304.2,5609 234.5,28.5 c 0,0 -7.4,-137.5 -78,-192.3 -25.7,-19.9 -159.4,139.4 -156.5,163.8" /><path
             id="path142"
             style="fill:#f99746;fill-opacity:1;fill-rule:nonzero;stroke:none"
             d="m 15408.7,5525.1 c 0,0 53.9,-980.9 28.4,-1414.8 -14,-239.7 -48.8,-585.2 -43.3,-618.7 5.6,-33.4 164.8,-189.5 164.8,-189.5 0,0 156.7,145.9 160.4,209.1 3.7,63.1 48.3,980.9 -229.7,2024.1 -9.5,35.7 -80.6,-10.2 -80.6,-10.2" /><path
             id="path144"
             style="fill:#c5d7ff;fill-opacity:1;fill-rule:nonzero;stroke:none"
             d="m 15102.9,5752.2 c 0,0 -60.2,-4.1 -166.1,-126.7 0,0 170.9,-146.8 327,-184 0,0 -6.4,113.8 40.4,167.5 l -201.3,143.2" /><path
             id="path146"
             style="fill:#c5d7ff;fill-opacity:1;fill-rule:nonzero;stroke:none"
             d="m 15581.8,5752.2 -82.1,-121.6 c 0,0 83.7,-62.7 111.5,-138 0,0 57.4,93.7 52.4,143 0,0 -38.7,101.7 -81.8,116.6" /></g></g><g
         transform="scale(1.19933)"
         id="g148"><path
           id="path150"
           style="fill:#aec3ff;fill-opacity:1;fill-rule:nonzero;stroke:none"
           d="m 16300,4641.61 h -2191.8 v 41.61 H 16300 v -41.61" /></g><g
         transform="scale(1.19933)"
         id="g152"><path
           id="path154"
           style="fill:#aec3ff;fill-opacity:1;fill-rule:nonzero;stroke:none"
           d="m 16300,4447.5 h -2191.8 v 41.61 H 16300 v -41.61" /></g><g
         transform="scale(1.19933)"
         id="g156"><path
           id="path158"
           style="fill:#aec3ff;fill-opacity:1;fill-rule:nonzero;stroke:none"
           d="m 16300,4251.06 h -2191.8 v 41.6 H 16300 v -41.6" /></g><g
         transform="scale(1.08473)"
         id="g160"><path
           id="path162"
           style="fill:#ffffff;fill-opacity:1;fill-rule:nonzero;stroke:none"
           d="m 16300,5737 h -701.4 v 701.28 H 16300 V 5737" /></g><g
         transform="scale(1.19933)"
         id="g164"><path
           id="path166"
           style="fill:#aec3ff;fill-opacity:1;fill-rule:nonzero;stroke:none"
           d="m 16300,5254.37 h -850 v 73.21 h 850 v -73.21" /></g><g
         transform="scale(1.19933)"
         id="g168"><path
           id="path170"
           style="fill:#aec3ff;fill-opacity:1;fill-rule:nonzero;stroke:none"
           d="m 16300,5083.02 h -1035.1 v 73.21 H 16300 v -73.21" /></g><g
         transform="scale(1.00585)"
         id="g172"><path
           id="path174"
           style="fill:#ffffff;fill-opacity:1;fill-rule:nonzero;stroke:none"
           d="M 16300,9841.46 V 7868.69 H 14327.2 V 9841.46 H 16300" /></g><g
         transform="scale(1.00115)"
         id="g176"><path
           id="path178"
           style="fill:#233862;fill-opacity:1;fill-rule:nonzero;stroke:none"
           d="m 15591.4,9718.25 c -121.5,33.76 -289.2,5.6 -316.9,3.3 -332,-26.37 -424.8,-537.28 -405.6,-681.82 35.7,-266.4 -94.2,-336.32 -253.7,-542.48 -174,-224.84 -194.9,-433.1 -138.5,-591.62 h 843 c 180.8,159.02 427.7,377.07 582.8,512.01 21.5,8 41.1,18.09 58.6,30.27 338.9,233.63 -75.3,1188.73 -369.7,1270.34" /></g><path
         id="path180"
         style="fill:#ffb27d;fill-opacity:1;fill-rule:nonzero;stroke:none"
         d="m 15635.5,8514.5 c 1.6,-0.5 -138,-84.6 -248.4,-61.8 -103.9,21.4 -209.4,161.9 -208,162.3 42.7,11.3 81.8,59.2 64.8,314.5 l 19.8,-2.6 332.8,-44.4 c 0,0 -1,-103.9 4.9,-201.3 5,-81.8 14.9,-159.1 34.1,-166.7" /><path
         id="path182"
         style="fill:#ed975d;fill-opacity:1;fill-rule:nonzero;stroke:none"
         d="m 15596.5,8882.5 c 0,0 -1,-103.9 4.9,-201.3 -184.2,-6.4 -292,155.2 -337.7,245.7 l 332.8,-44.4" /><path
         id="path184"
         style="fill:#ffb27d;fill-opacity:1;fill-rule:nonzero;stroke:none"
         d="m 15663.7,8794.2 c 0,0 -434.7,-34.7 -452.1,236.3 -17.4,271 -85.3,449.1 191.5,482.7 276.8,33.6 337.4,-66.3 365.3,-155.4 27.8,-89.1 7.9,-547.6 -104.7,-563.6" /><path
         id="path186"
         style="fill:#233862;fill-opacity:1;fill-rule:nonzero;stroke:none"
         d="m 15721.8,9498.4 c 0,0 -220,-291.6 -399.8,-350.1 -179.9,-58.6 -262.3,-14.6 -262.3,-14.6 0,0 88.9,113.4 122.8,272.8 9.9,47 44.2,85.2 90.1,99.3 128.9,39.8 376.7,98.8 449.2,-7.4" /><path
         id="path188"
         style="fill:#233862;fill-opacity:1;fill-rule:nonzero;stroke:none"
         d="m 15548.3,9482.7 c 0,0 109.4,-67.9 151.9,-126.6 41,-56.7 81.7,-204.6 72.6,-268.9 0,0 81.7,304.6 -26.9,420.5 -115.2,122.9 -197.6,-25 -197.6,-25" /><path
         id="path190"
         style="fill:#aec3ff;fill-opacity:1;fill-rule:nonzero;stroke:none"
         d="m 16028.8,8381.9 c -7.6,28.2 -25.4,53.4 -49.4,75.7 -114.2,106.4 -370.7,149.9 -370.7,149.9 v -0.1 c 0,0 -0.1,-1 -0.6,-2.8 v -0.2 c -3.6,-13.7 -23.1,-68.7 -109.7,-68.7 -58.4,0 -147.3,25.2 -282.5,105 -0.7,0.5 -1.4,0.8 -2,1.3 -0.2,0.1 -0.3,0 -0.3,0.1 v 0.1 c 0,0 -355.4,-21.9 -478.3,-193.4 -66.8,-93.1 -158.7,-303.1 -235.4,-534.1 h 1656.4 c -56.8,208 -109.6,401.9 -127.5,467.2" /><g
         transform="scale(1.19634)"
         id="g192"><path
           id="path194"
           style="fill:#aec3ff;fill-opacity:1;fill-rule:nonzero;stroke:none"
           d="m 16300,7065.36 h -2156.7 v 41.71 H 16300 v -41.71" /></g><g
         transform="scale(1.19634)"
         id="g196"><path
           id="path198"
           style="fill:#aec3ff;fill-opacity:1;fill-rule:nonzero;stroke:none"
           d="m 16300,6870.68 h -2156.7 v 41.72 H 16300 v -41.72" /></g><g
         transform="scale(1.19634)"
         id="g200"><path
           id="path202"
           style="fill:#aec3ff;fill-opacity:1;fill-rule:nonzero;stroke:none"
           d="m 16300,6673.75 h -2156.7 v 41.71 H 16300 v -41.71" /></g><g
         transform="scale(1.08473)"
         id="g204"><path
           id="path206"
           style="fill:#ffffff;fill-opacity:1;fill-rule:nonzero;stroke:none"
           d="m 16300,8397.3 h -701.4 v 701.37 H 16300 V 8397.3" /></g><g
         transform="scale(1.1906)"
         id="g208"><path
           id="path210"
           style="fill:#aec3ff;fill-opacity:1;fill-rule:nonzero;stroke:none"
           d="m 16300,7716.73 h -903.4 v 73.66 h 903.4 v -73.66" /></g><g
         transform="scale(1.1906)"
         id="g212"><path
           id="path214"
           style="fill:#aec3ff;fill-opacity:1;fill-rule:nonzero;stroke:none"
           d="m 16300,7544.13 h -1100.2 v 73.66 H 16300 v -73.66" /></g><g
         transform="scale(1.07868)"
         id="g216"><path
           id="path218"
           style="fill:#233862;fill-opacity:1;fill-rule:nonzero;stroke:none"
           d="m 15819.4,8857.76 219.4,-302.31 261.2,483.18 -303.1,-275.61 -177.5,94.74" /></g><g
         transform="scale(1.12696)"
         id="g220"><path
           id="path222"
           style="fill:#aec3ff;fill-opacity:1;fill-rule:nonzero;stroke:none"
           d="m 16300,3520.7 h -2316.7 v 38.87 H 16300 v -38.87" /></g><g
         transform="scale(1.12696)"
         id="g224"><path
           id="path226"
           style="fill:#aec3ff;fill-opacity:1;fill-rule:nonzero;stroke:none"
           d="m 16300,3334.98 h -2316.7 v 38.87 H 16300 v -38.87" /></g><g
         transform="scale(1.12696)"
         id="g228"><path
           id="path230"
           style="fill:#aec3ff;fill-opacity:1;fill-rule:nonzero;stroke:none"
           d="m 16300,3110.49 h -2316.7 v 38.86 H 16300 v -38.86" /></g><path
         id="path232"
         style="fill:#aec3ff;fill-opacity:1;fill-rule:nonzero;stroke:none"
         d="m 14672.4,3918 c 35.1,49.5 71.9,136.3 44.1,197.4 -25.6,56.2 -76,30.2 -110.3,-2.3 -51.2,-48.5 -80.3,-115.2 -102.1,-180.9 -26.7,-80.3 -48.4,-163.9 -57,-248.1 -7,-67.8 -11.6,-172.3 32.1,-230.2 37,-49.1 96.6,-8.8 137.8,14.3 129.7,72.8 237.9,189.1 267.9,338 3.9,19.2 -19.8,36.8 -34.9,20.4 -29.8,-32.4 -49.8,-72 -51,-116.8 -0.7,-24.5 1.5,-63.5 31.2,-70.6 34.8,-8.3 61.8,40 76.8,63.1 30.2,46.4 48.6,98.4 57.6,152.7 -13.4,3.7 -26.9,7.4 -40.3,11.1 -5.8,-39.5 1.3,-110 60,-97.8 55.5,11.6 60.2,107 61.9,149.8 0.9,23.2 -36.4,28.9 -41.1,5.6 -7.6,-38.7 -7.3,-76.6 4.9,-114.4 6.2,-19 15.5,-35.8 24.6,-53.5 8.8,-14.2 16.3,-29.1 22.5,-44.6 13.1,-32 1.8,-45.6 -33.8,-40.8 -4.1,-10.2 -8.3,-20.5 -12.5,-30.7 98.5,38.8 205.5,92 211,211.5 1.2,26.9 -40.6,26.9 -41.8,0 -4.5,-98.1 -101.4,-140.1 -180.3,-171.2 -13,-5.1 -19.1,-17.7 -12.5,-30.7 22.9,-45.2 85.9,-40.6 107.1,4.3 14.2,29.7 7.4,62.2 -5.8,90.8 -26.6,57.7 -56.3,101.2 -43.1,168.2 -13.6,1.8 -27.3,3.7 -41,5.5 -0.9,-22.6 -3,-44.8 -9.2,-66.6 -1.8,-7.9 -4.4,-15.5 -7.7,-22.9 -6.7,-26.1 -14.3,-17.3 -22.9,26.4 3.9,26.2 -35.8,37.8 -40.3,11.1 -8.5,-51 -24.9,-99.2 -53.4,-142.7 -12.9,-19.8 -32,-59.5 -30.1,-13.6 1.4,34.3 16.1,62.5 38.8,87.2 -11.7,6.8 -23.3,13.5 -35,20.3 -19.7,-97.7 -74.4,-180.4 -149.9,-244.5 -36,-30.6 -82.8,-68.6 -128.4,-84.2 -17.6,-6 -46.1,-7.5 -61.7,7.6 -6.2,6 -8.4,29.5 -10.2,37.9 -7.1,33.1 -9.4,67.1 -8.6,100.9 2.3,106.7 32.1,218.5 69.8,317.9 18.1,47.7 42.6,95.2 80.1,130.6 47.6,44.9 47.8,-26.4 40.9,-59 -6.7,-31.4 -21.8,-59.4 -40.3,-85.4 -15.6,-22 20.6,-42.9 36.1,-21.1 v 0" /><g
         transform="scale(1.77235)"
         id="g234"><path
           id="path236"
           style="fill:#2e3552;fill-opacity:1;fill-rule:nonzero;stroke:none"
           d="M 16283.2,1436.29 H 1140.61 c -9.24,0 -16.8,7.56 -16.8,16.81 v 4.8 c 0,9.25 7.56,16.81 16.8,16.81 H 16283.2 c 9.2,0 16.8,-7.56 16.8,-16.81 v -4.8 c 0,-9.25 -7.6,-16.81 -16.8,-16.81" /></g><g
         transform="scale(1.20031)"
         id="g238"><path
           id="path240"
           style="fill:#ffb27d;fill-opacity:1;fill-rule:nonzero;stroke:none"
           d="m 16154.4,2267.91 c -6.3,-85.31 -126.7,-86.23 -263.2,-70.4 -136.6,15.83 -100.3,-18.75 -291.5,-21.41 -191.2,-2.67 -257.1,60.57 -266.4,87.89 -8.2,24.25 83.8,44.66 182.4,68.65 12.3,3 24.8,6.08 37.2,9.25 111.1,28.24 184.7,111.39 279.7,183.95 90.1,68.82 206.2,317.75 206.2,317.75 l 261.2,11.75 c 0,0 -110,-223.11 -151.3,-319.25 -24.3,-56.57 -14,-126.14 -3.4,-179.46 5.7,-29.07 11.3,-58.73 9.1,-88.72" /></g><g
         transform="scale(1.18975)"
         id="g242"><path
           id="path244"
           style="fill:#233862;fill-opacity:1;fill-rule:nonzero;stroke:none"
           d="m 16032.2,2217.01 c -137.7,15.97 -101.2,-18.91 -294.1,-21.6 -192.9,-2.69 -259.4,61.11 -268.7,88.67 -8.3,24.46 84.6,45.06 184,69.26 l 1.2,-1.85 c 0,0 124.2,-66.65 283.1,-50.68 129.4,12.95 261.5,66.99 350.9,76.74 5.7,-29.33 11.4,-59.26 9.1,-89.52 -6.3,-86.06 -127.7,-86.99 -265.5,-71.02" /></g><g
         transform="scale(1.32261)"
         id="g246"><path
           id="path248"
           style="fill:#ffb27d;fill-opacity:1;fill-rule:nonzero;stroke:none"
           d="m 16298,2042.1 c -5.6,-77.42 -114.9,-78.33 -238.8,-64.04 -124,14.22 -91,-17.08 -264.6,-19.73 -173.5,-2.57 -233.4,54.74 -241.8,79.54 -7.4,22 76.1,40.6 165.5,62.45 11.2,2.72 22.5,5.6 33.8,8.39 100.8,25.79 167.4,101.32 253.6,167.25 81.7,62.53 0.1,432.48 0.1,432.48 l 260.8,25.4 c 0,0 -12.5,-311.5 -12.3,-453.19 0,-55.88 25.7,-109.56 35.3,-158.02 5.3,-26.32 10.4,-53.23 8.4,-80.53" /></g><g
         transform="scale(1.32261)"
         id="g250"><path
           id="path252"
           style="fill:#233862;fill-opacity:1;fill-rule:nonzero;stroke:none"
           d="m 16059.2,1978.06 c -124,14.22 -91,-17.08 -264.6,-19.73 -173.5,-2.57 -233.4,54.74 -241.8,79.54 -7.4,22 76.1,40.6 165.5,62.45 l 1,-1.66 c 0,0 111.9,-59.88 254.8,-45.37 116.4,11.8 235.2,60.57 315.5,69.34 5.3,-26.32 10.4,-53.23 8.4,-80.53 -5.6,-77.42 -114.9,-78.33 -238.8,-64.04" /></g><g
         transform="scale(1.38564)"
         id="g254"><path
           id="path256"
           style="fill:#a9453d;fill-opacity:1;fill-rule:nonzero;stroke:none"
           d="m 14830.1,8053.18 c -42.8,176.22 19.3,258.29 75.4,301.99 26.5,64.86 56.9,111.61 87.9,129.24 56.6,32.15 124.3,35.66 171.7,32.85 -12.1,12.61 -36.2,17.2 -36.2,17.2 29.5,4.37 95.1,-24.79 95.1,-24.79 408.9,157.58 473.2,-444.59 464.6,-584.5 -8.5,-139.88 -7.4,-304.65 205.4,-414.87 406,-210.32 -134.9,-1002.86 -134.9,-1002.86 10.3,113.02 -511.3,709.65 -783.5,888.32 -66.2,97.53 -89.7,269.83 -91.5,283.39 11.4,-136.62 34.7,-213.24 55.7,-256.39 -124.1,114.16 -142.5,388.29 -109.7,630.42" /></g><g
         transform="scale(1.30729)"
         id="g258"><path
           id="path260"
           style="fill:#ffb27d;fill-opacity:1;fill-rule:nonzero;stroke:none"
           d="m 15890.2,7829.58 c -1.4,-0.65 139.3,-73.71 245.2,-44.76 99.5,27.15 164.6,156.24 163.2,156.53 -42.2,8.37 -54.3,66.32 -53.4,315.31 l -19.1,-3.76 -320.5,-63.46 c 0,0 7.3,-100.87 7.5,-195.88 0.2,-79.79 -4.6,-155.45 -22.9,-163.98" /></g><g
         transform="scale(1.30137)"
         id="g262"><path
           id="path264"
           style="fill:#ed975d;fill-opacity:1;fill-rule:nonzero;stroke:none"
           d="m 15978,8226.74 c 0,0 7.3,-101.34 7.6,-196.78 180.2,5.07 275.4,169.43 314.4,260.52 l -322,-63.74" /></g><g
         transform="scale(1.31912)"
         id="g266"><path
           id="path268"
           style="fill:#2a4e96;fill-opacity:1;fill-rule:nonzero;stroke:none"
           d="m 14470.7,2461.57 c -15.6,-48.74 19.5,-99.08 70.6,-101.51 l 124.1,-5.76 131.3,-4.01 c 32.8,-0.99 64.2,13.26 85,38.73 104.8,128.57 427.4,557.12 623.1,1179.66 5.5,17.51 11.3,35.17 17.4,53.06 129.3,376.77 397.2,849.74 538.3,1277.9 22.5,68.16 42.7,132.36 60.7,193.09 5.9,19.48 11.5,38.58 16.9,57.38 104.1,361.53 134.2,598.89 161.9,852.47 l -1019.4,-8.19 c 0,0 -214.6,-1668.09 -809.9,-3532.82" /></g><g
         transform="scale(1.34975)"
         id="g270"><path
           id="path272"
           style="fill:#ffffff;fill-opacity:1;fill-rule:nonzero;stroke:none"
           d="m 15073.3,6430.83 c 2.5,-474.09 -69.5,-677.46 -69.5,-677.46 0,0 426.5,-216.78 933.5,-57.2 6,1.85 362.7,102.84 362.7,102.84 -8.4,19.26 -79,336.43 -87.2,354.06 -107.1,229.82 -136.3,326.36 -148.9,397.04 -23.6,131.95 -24.1,268.42 -12.4,397.18 31,340.81 123,623.78 123,623.78 -138.2,31.43 -267.5,86.65 -411.3,140.57 -33.1,-41.18 -134.2,-84.27 -221.9,-82.29 -100.9,2.22 -133.7,45.45 -128.5,92.65 -107.6,-59.88 -193.4,-116.45 -193.4,-116.45 -91.5,-158.88 -277.1,-313.16 -290.5,-556.9 -3.3,-59.94 144.3,-604.56 144.4,-617.82" /></g><g
         transform="scale(1.34684)"
         id="g274"><path
           id="path276"
           style="fill:#5f9aa8;fill-opacity:1;fill-rule:nonzero;stroke:none"
           d="m 15964.5,6391.77 c 43.6,-61.77 127.3,-437.24 335.5,-484.46 -107.3,267.59 -188.7,384.97 -201.4,467.24 -23.6,153.54 -24.2,312.51 -12.4,462.34 -69.7,122.14 -121.7,205.89 -121.7,205.89 -5.4,19.75 -110.7,345.25 -144.5,54.35 -33.6,-291.05 95.8,-636.31 144.5,-705.36" /></g><g
         transform="scale(1.30935)"
         id="g278"><path
           id="path280"
           style="fill:#ffb27d;fill-opacity:1;fill-rule:nonzero;stroke:none"
           d="m 15820.8,8086.75 c 0,0 423.7,-6.99 424,256.92 0.3,263.9 55.2,440.73 -215.3,456.36 -270.5,15.61 -323.2,-85.02 -344.7,-173.09 -21.5,-88.06 25.8,-531.57 136,-540.19" /></g><g
         transform="scale(1.31624)"
         id="g282"><path
           id="path284"
           style="fill:#a9453d;fill-opacity:1;fill-rule:nonzero;stroke:none"
           d="m 15753.6,8760.4 c 0,0 115.4,-307.99 292.5,-353.54 177.1,-45.54 253.9,1.92 253.9,1.92 0,0 -135.8,107.9 -164,296.27 0,0 -295.3,201.94 -382.4,55.35" /></g><g
         transform="scale(1.27443)"
         id="g286"><path
           id="path288"
           style="fill:#a9453d;fill-opacity:1;fill-rule:nonzero;stroke:none"
           d="m 16300,9021.97 c 0,0 -89,-71.02 -110.7,-140.06 -21.8,-69.04 -31.5,-211.18 -72.9,-206.35 0,0 -89.8,216.21 11.1,338.52 107,129.7 172.5,7.89 172.5,7.89" /></g><g
         transform="scale(1.23698)"
         id="g290"><path
           id="path292"
           style="fill:#ffb27d;fill-opacity:1;fill-rule:nonzero;stroke:none"
           d="m 16040.8,6658.06 -211.9,-645.76 120.9,-48.51 350.2,570.59 -259.2,123.68" /></g><g
         transform="scale(1.26065)"
         id="g294"><path
           id="path296"
           style="fill:#f99746;fill-opacity:1;fill-rule:nonzero;stroke:none"
           d="m 16300,8180.4 c 0,0 -245.1,-97.26 -316,-248.86 -70.9,-151.59 -178.3,-1168.6 -221.1,-1272.99 -42.8,-104.47 -75,-187.13 -75,-187.13 0,0 123.6,-104.15 247.9,-111.77 124.2,-7.69 364.2,1820.75 364.2,1820.75" /></g><g
         transform="scale(1.27628)"
         id="g298"><path
           id="path300"
           style="fill:#f99746;fill-opacity:1;fill-rule:nonzero;stroke:none"
           d="m 16300,8166.5 c 0,0 -251.4,-621.22 -258.9,-746.98 -7.3,-125.68 -29.5,-2055.97 -29.5,-2055.97 0,0 14.8,-88.7 -155.3,-51.72 -170.1,36.91 -214.5,73.89 -214.5,73.89 0,0 162.7,1190.72 118.3,1604.9 -44.4,414.09 340.3,1089.58 340.3,1089.58 l 199.6,86.3" /></g><g
         transform="scale(1.30601)"
         id="g302"><path
           id="path304"
           style="fill:#1e3d70;fill-opacity:1;fill-rule:nonzero;stroke:none"
           d="m 14812.6,2377.93 144,-4.44 c 25.7,-0.77 50.4,10.33 66.8,30.17 96.8,117.22 434.3,555.96 636.9,1200.82 5.6,17.69 11.5,35.53 17.7,53.6 130.5,380.55 401.1,858.26 543.7,1290.72 22.7,68.84 43.1,133.69 61.3,195.03 5.9,19.68 11.6,38.97 17,57.96 l -151.6,115.08 c 0,0 -455.3,-737.2 -596.2,-1430.92 -122.4,-602.6 -612.7,-1327.7 -739.6,-1508.02" /></g><g
         transform="scale(1.35579)"
         id="g306"><path
           id="path308"
           style="fill:#2a4e96;fill-opacity:1;fill-rule:nonzero;stroke:none"
           d="m 15540.2,3681.02 c -2.3,-307.42 12.3,-992.7 49.7,-1327.63 3.4,-30.69 29.3,-53.77 60.2,-53.77 h 103.4 c 43.7,0 76.3,0.29 98,0.59 18.7,0.29 34.8,13.71 38.4,32.15 102.9,523.68 176.6,958.78 230.5,1334.72 45.1,314.73 85.2,584.46 116,816.72 31.1,233.74 52.7,429.42 60.4,594.78 1.2,26.04 2.1,51.34 2.5,75.9 0.6,24.71 0.7,48.75 0.5,72.06 l -857,83.57 c 10.8,-569.41 98.8,-1440.19 97.4,-1629.09" /></g><g
         transform="scale(1.35552)"
         id="g310"><path
           id="path312"
           style="fill:#1e3d70;fill-opacity:1;fill-rule:nonzero;stroke:none"
           d="m 15756.7,2300.07 c 39.2,0 69.5,0.23 91,0.52 22.8,0.3 42.3,16.6 46.7,38.95 102.2,520.84 175.5,953.88 229.2,1328.27 45.1,314.79 85.2,584.58 116.1,816.89 31,233.78 52.6,429.5 60.3,594.9 l -314.5,-185.03 c 0,0 200.7,-70.82 124.2,-607 -76.6,-536.17 -246.4,-1911.66 -353,-1987.5" /></g><g
         transform="scale(1.37144)"
         id="g314"><path
           id="path316"
           style="fill:#f99746;fill-opacity:1;fill-rule:nonzero;stroke:none"
           d="m 15533.8,5025.81 c 0,0 59.6,-215.62 266.1,-188.05 206.5,27.49 500.1,151.37 500.1,151.37 0,0 -88.2,278.83 -198,645.09 -132.7,443.47 -297.2,1015.06 -374.7,1375.63 -21.7,101.06 -36.6,185.42 -42.1,245.87 l -171.3,332.35 c 0,0 -255.4,-573.26 -269.2,-717.78 -13.7,-144.52 289.1,-1844.48 289.1,-1844.48" /></g><g
         transform="scale(1.35851)"
         id="g318"><path
           id="path320"
           style="fill:#ffb27d;fill-opacity:1;fill-rule:nonzero;stroke:none"
           d="m 15889.8,6957.48 -228.3,702.83 c 0.7,-0.29 288.3,-85.59 433,-158.68 0,0 90.4,-116.6 146.4,-385.6 0,0 59.1,-645.85 -72.9,-882.06 0,0 -416.8,-83.4 -1083.9,145.89 v 152.89 c 0,0 729.6,-38.2 878.9,-55.58 l -73.2,480.31" /></g><g
         transform="scale(1.35479)"
         id="g322"><path
           id="path324"
           style="fill:#ed7d2b;fill-opacity:1;fill-rule:nonzero;stroke:none"
           d="m 15734,6648.21 c 9.4,-236.86 65.1,-696.71 562.1,-942.8 1.2,-0.67 2.6,-1.33 3.9,-1.92 -134.4,448.92 -300.9,1027.54 -379.3,1392.54 -91.3,-136.4 -191.8,-317.39 -186.7,-447.82" /></g><g
         transform="scale(1.36025)"
         id="g326"><path
           id="path328"
           style="fill:#f99746;fill-opacity:1;fill-rule:nonzero;stroke:none"
           d="m 15641.5,7650.53 c 0,0 422.6,-29.77 524.4,-256.45 101.8,-226.7 134.1,-980.75 4.6,-1202.77 0,0 -178.3,-50.8 -493.8,8.24 -3.8,0.66 -7.7,1.39 -11.6,2.2 0,0 -100.6,246.28 -10.4,294.87 0,0 266,-13.89 238.2,74.03 -27.7,87.93 -251.4,1079.88 -251.4,1079.88" /></g><g
         transform="scale(1.27656)"
         id="g330"><path
           id="path332"
           style="fill:#a9453d;fill-opacity:1;fill-rule:nonzero;stroke:none"
           d="m 15538.1,6851.63 13.2,-42.62 738.8,229.76 c 0,0 9.9,11.28 5,26.16 -5.3,16.45 -18.2,16.53 -18.2,16.53 l -738.8,-229.83" /></g><g
         transform="scale(1.21793)"
         id="g334"><path
           id="path336"
           style="fill:#a9453d;fill-opacity:1;fill-rule:nonzero;stroke:none"
           d="m 16230.1,7139.18 56,42.29 13.9,-44.67 -69.9,2.38" /></g><g
         transform="scale(1.21337)"
         id="g338"><path
           id="path340"
           style="fill:#ffb27d;fill-opacity:1;fill-rule:nonzero;stroke:none"
           d="m 16167.7,6147.27 c 0,0 -197.2,-108.96 -223.2,-192.03 -25.8,-82.99 -8,-256.8 23.3,-254.25 31.3,2.64 77.9,186.84 103.9,199.77 26,13.03 62.2,51.93 62.2,23.33 0,-28.52 -25.8,-80.36 -12.9,-88.19 12.9,-7.74 54.5,72.61 83,88.19 28.6,15.66 40.5,143.89 68.3,178.34 27.7,34.45 -104.6,44.84 -104.6,44.84" /></g><g
         transform="scale(1.26927)"
         id="g342"><path
           id="path344"
           style="fill:#ffb27d;fill-opacity:1;fill-rule:nonzero;stroke:none"
           d="m 16144.6,6992.05 c 0,0 -168.5,103.76 -239.2,87.85 -70.8,-16 -251,-146.54 -164.3,-174.75 86.7,-28.28 156.9,1.34 190.3,-19.15 33.3,-20.56 57.9,-58.06 213.2,-57.59 155.4,0.55 0,163.64 0,163.64" /></g><path
         id="path346"
         style="fill:#c3d2ff;fill-opacity:1;fill-rule:nonzero;stroke:none"
         d="M 12686.5,7521.8 V 2998.2 H 8892.78 v 4523.6 h 3793.72" /><path
         id="path348"
         style="fill:#b0c3f4;fill-opacity:1;fill-rule:nonzero;stroke:none"
         d="m 11080.9,3855 829.7,399.7 -496.7,1030.8 -829.7,-399.7 496.7,-1030.8" /><path
         id="path350"
         style="fill:#b0c3f4;fill-opacity:1;fill-rule:nonzero;stroke:none"
         d="M 12686.5,5163.4 V 3842.1 l -164.4,95 -191,110.2 -153.9,88.9 -47.8,27.5 -98.4,56.9 61.9,107.3 345.3,597.9 164.9,285.7 83.4,-48.1" /><path
         id="path352"
         style="fill:#b0c3f4;fill-opacity:1;fill-rule:nonzero;stroke:none"
         d="m 11833.5,3439.1 348.1,852.6 -1059.4,432.5 -348,-852.7 1059.3,-432.4" /><path
         id="path354"
         style="fill:#b0c3f4;fill-opacity:1;fill-rule:nonzero;stroke:none"
         d="m 10383.5,3268.2 747.1,538.6 -669.2,928.1 -747.07,-538.6 669.17,-928.1" /><path
         id="path356"
         style="fill:#b0c3f4;fill-opacity:1;fill-rule:nonzero;stroke:none"
         d="M 12686.5,4541.6 V 3364.5 l -180.9,-144.1 -503.2,632.2 -20.9,26.2 -46.4,58.3 -3.1,3.9 157.6,125.5 0.1,0.1 87.5,69.6 463.6,369 45.7,36.4" /><path
         id="path358"
         style="fill:#b0c3f4;fill-opacity:1;fill-rule:nonzero;stroke:none"
         d="m 12686.5,4410.4 v -191.9 l -355.4,-171.2 -228.8,-110.2 -81.5,-39.3 -39.3,-19 -49.6,-23.9 -39.6,82.2 -120.8,250.6 -162.8,337.9 -173.5,360.2 139,67 690.6,332.7 173.4,-359.7 202.6,-420.6 45.7,-94.8" /><path
         id="path360"
         style="fill:#b0c3f4;fill-opacity:1;fill-rule:nonzero;stroke:none"
         d="M 12686.5,3937.1 V 3003.7 H 9714.37 v 933.4 h 2972.13" /><path
         id="path362"
         style="fill:#d7e1ff;fill-opacity:1;fill-rule:nonzero;stroke:none"
         d="M 7964.5,2998.2 H 11651 V 7521.7 H 7964.5 V 2998.2" /><path
         id="path364"
         style="fill:#e3ebff;fill-opacity:1;fill-rule:nonzero;stroke:none"
         d="M 9331.04,3855 10160.8,4254.7 9664.11,5285.5 8834.39,4885.8 9331.04,3855" /><path
         id="path366"
         style="fill:#e3ebff;fill-opacity:1;fill-rule:nonzero;stroke:none"
         d="m 10086.3,4247.1 716.4,-578.8 719.1,890 -716.4,578.8 -719.1,-890" /><path
         id="path368"
         style="fill:#e9efff;fill-opacity:1;fill-rule:nonzero;stroke:none"
         d="m 10083.7,3439.1 348.1,852.6 -1059.41,432.5 -348.07,-852.7 1059.38,-432.4" /><path
         id="path370"
         style="fill:#e9efff;fill-opacity:1;fill-rule:nonzero;stroke:none"
         d="m 8633.66,3268.2 747.09,538.6 -669.16,928.1 -747.09,-538.6 669.16,-928.1" /><path
         id="path372"
         style="fill:#e9efff;fill-opacity:1;fill-rule:nonzero;stroke:none"
         d="m 10182.1,3941 573.6,-720.6 895.3,712.6 -573.6,720.6 -895.3,-712.6" /><path
         id="path374"
         style="fill:#e9efff;fill-opacity:1;fill-rule:nonzero;stroke:none"
         d="m 10182,3855 829.7,399.7 -496.6,1030.8 L 9685.34,4885.8 10182,3855" /><path
         id="path376"
         style="fill:#e9efff;fill-opacity:1;fill-rule:nonzero;stroke:none"
         d="M 7964.5,3937 H 11651 V 3003.7 H 7964.5 V 3937" /><path
         id="path378"
         style="fill:#e3ebff;fill-opacity:1;fill-rule:nonzero;stroke:none"
         d="m 11651.1,4989.8 -215.9,-104 215.8,-447.9 z" /><path
         id="path380"
         style="fill:#f99746;fill-opacity:1;fill-rule:nonzero;stroke:none"
         d="M 11651,6736.6 H 7964.5 v 785.1 H 11651 v -785.1" /><path
         id="path382"
         style="fill:#ed7d2b;fill-opacity:1;fill-rule:nonzero;stroke:none"
         d="M 12699.7,6736.6 H 11651 v 785.1 h 1048.7 v -785.1" /><path
         id="path384"
         style="fill:#ffffff;fill-opacity:1;fill-rule:nonzero;stroke:none"
         d="m 9000.42,7299.6 h 82.79 l 89.11,-240.1 89.13,240.1 h 80.84 l -137.82,-343.3 h -66.23 l -137.82,343.3" /><path
         id="path386"
         style="fill:#ffffff;fill-opacity:1;fill-rule:nonzero;stroke:none"
         d="m 9641.82,7129.2 c 0,58.4 -42.85,107.1 -103.24,107.1 -60.39,0 -102.27,-47.7 -102.27,-107.1 0,-58.5 42.86,-107.2 103.25,-107.2 60.38,0 102.26,47.7 102.26,107.2 z m -283.91,0 c 0,96.9 76.46,176.3 181.65,176.3 105.19,0 180.67,-78.4 180.67,-176.3 0,-96.9 -76.46,-176.3 -181.65,-176.3 -105.19,0 -180.67,78.4 -180.67,176.3" /><path
         id="path388"
         style="fill:#ffffff;fill-opacity:1;fill-rule:nonzero;stroke:none"
         d="m 9851.76,7230.5 h -103.73 v 69.1 h 282.47 v -69.1 h -103.74 v -271.8 h -75 v 271.8" /><path
         id="path390"
         style="fill:#ffffff;fill-opacity:1;fill-rule:nonzero;stroke:none"
         d="m 10088,7299.6 h 257.1 v -66.7 h -182.6 v -69.2 h 160.7 V 7097 h -160.7 v -71.6 h 185.1 v -66.7 H 10088 v 340.9" /><path
         id="path392"
         style="fill:#2b478b;fill-opacity:1;fill-rule:nonzero;stroke:none"
         d="m 11651.1,2612.1 h -187 v 391.6 h 187 v -391.6" /><path
         id="path394"
         style="fill:#2b478b;fill-opacity:1;fill-rule:nonzero;stroke:none"
         d="m 12686.9,2612.1 h -187 v 391.6 h 187 v -391.6" /><path
         id="path396"
         style="fill:#2b478b;fill-opacity:1;fill-rule:nonzero;stroke:none"
         d="m 8151.73,2612.1 h -187 v 391.6 h 187 v -391.6" /><path
         id="path398"
         style="fill:#ffffff;fill-opacity:1;fill-rule:nonzero;stroke:none"
         d="m 9398.59,7908.1 1294.71,106.7 -140.5,1704.3 -1294.67,-106.7 140.46,-1704.3" /><path
         id="path400"
         style="fill:#e7edff;fill-opacity:1;fill-rule:nonzero;stroke:none"
         d="m 9453.64,7972.9 1176.36,97 -130.9,1588.2 -1176.36,-97 130.9,-1588.2" /><path
         id="path402"
         style="fill:#aec3ff;fill-opacity:1;fill-rule:nonzero;stroke:none"
         d="m 9482.3,8808.9 613.2,50.6 -0.8,10 -613.23,-50.5 0.83,-10.1" /><path
         id="path404"
         style="fill:#aec3ff;fill-opacity:1;fill-rule:nonzero;stroke:none"
         d="m 9486.17,8762 613.23,50.5 -0.8,10.1 -613.25,-50.6 0.82,-10" /><path
         id="path406"
         style="fill:#aec3ff;fill-opacity:1;fill-rule:nonzero;stroke:none"
         d="m 9490.09,8714.4 613.21,50.6 -0.8,10 -613.24,-50.5 0.83,-10.1" /><path
         id="path408"
         style="fill:#aec3ff;fill-opacity:1;fill-rule:nonzero;stroke:none"
         d="m 9483.96,8964 330.14,27.2 -1.82,22.2 -330.15,-27.2 1.83,-22.2" /><path
         id="path410"
         style="fill:#aec3ff;fill-opacity:1;fill-rule:nonzero;stroke:none"
         d="m 9483.96,8906.3 402.05,33.1 -1.83,22.2 -402.05,-33.2 1.83,-22.1" /><path
         id="path412"
         style="fill:#ffffff;fill-opacity:1;fill-rule:nonzero;stroke:none"
         d="m 10221.8,8773.8 282.1,23.2 -23.2,282.1 -282.1,-23.2 23.2,-282.1" /><path
         id="path414"
         style="fill:#233862;fill-opacity:1;fill-rule:nonzero;stroke:none"
         d="m 10431.9,8964.4 -67.3,-110.9 -104.3,159.9 112.9,-86.8 58.7,37.8" /><path
         id="path416"
         style="fill:#aec3ff;fill-opacity:1;fill-rule:nonzero;stroke:none"
         d="m 9528.08,8248.9 613.22,50.5 -0.8,10.1 -613.25,-50.5 0.83,-10.1" /><path
         id="path418"
         style="fill:#aec3ff;fill-opacity:1;fill-rule:nonzero;stroke:none"
         d="m 9531.95,8201.9 613.25,50.6 -0.9,10 -613.18,-50.5 0.83,-10.1" /><path
         id="path420"
         style="fill:#aec3ff;fill-opacity:1;fill-rule:nonzero;stroke:none"
         d="m 9535.86,8154.4 613.24,50.6 -0.8,10 -613.27,-50.5 0.83,-10.1" /><path
         id="path422"
         style="fill:#aec3ff;fill-opacity:1;fill-rule:nonzero;stroke:none"
         d="m 9529.73,8404 330.15,27.2 -1.82,22.1 -330.15,-27.2 1.82,-22.1" /><path
         id="path424"
         style="fill:#aec3ff;fill-opacity:1;fill-rule:nonzero;stroke:none"
         d="m 9529.73,8346.3 402.06,33.1 -1.83,22.1 -402.05,-33.1 1.82,-22.1" /><path
         id="path426"
         style="fill:#ffffff;fill-opacity:1;fill-rule:nonzero;stroke:none"
         d="m 10267.6,8213.8 282.1,23.2 -23.2,282.1 -282.1,-23.2 23.2,-282.1" /><path
         id="path428"
         style="fill:#233862;fill-opacity:1;fill-rule:nonzero;stroke:none"
         d="m 10477.7,8404.4 -67.3,-111 -104.3,159.9 112.8,-86.8 58.8,37.9" /><path
         id="path430"
         style="fill:#aec3ff;fill-opacity:1;fill-rule:nonzero;stroke:none"
         d="m 9425.33,9263.7 613.17,50.5 -0.8,10.1 -613.2,-50.6 0.83,-10" /><path
         id="path432"
         style="fill:#aec3ff;fill-opacity:1;fill-rule:nonzero;stroke:none"
         d="m 9429.19,9216.7 613.21,50.6 -0.8,10 -613.24,-50.5 0.83,-10.1" /><path
         id="path434"
         style="fill:#aec3ff;fill-opacity:1;fill-rule:nonzero;stroke:none"
         d="m 9433.11,9169.2 613.19,50.6 -0.8,10 -613.22,-50.5 0.83,-10.1" /><path
         id="path436"
         style="fill:#aec3ff;fill-opacity:1;fill-rule:nonzero;stroke:none"
         d="m 9426.98,9418.8 330.14,27.2 -1.82,22.1 -330.14,-27.2 1.82,-22.1" /><path
         id="path438"
         style="fill:#aec3ff;fill-opacity:1;fill-rule:nonzero;stroke:none"
         d="m 9426.98,9361.1 402.05,33.1 -1.82,22.1 -402.05,-33.1 1.82,-22.1" /><path
         id="path440"
         style="fill:#ffffff;fill-opacity:1;fill-rule:nonzero;stroke:none"
         d="m 10164.8,9228.6 282.2,23.2 -23.3,282.1 -282.1,-23.2 23.2,-282.1" /><path
         id="path442"
         style="fill:#233862;fill-opacity:1;fill-rule:nonzero;stroke:none"
         d="m 10374.9,9419.2 -67.3,-111 -104.3,159.9 112.9,-86.8 58.7,37.9" /><path
         id="path444"
         style="fill:#ffb27d;fill-opacity:1;fill-rule:nonzero;stroke:none"
         d="m 9155.51,9376.6 c 22.43,15.8 39.88,51.1 62.91,77.4 17.11,19.5 49.6,38.4 49.6,38.4 0,0 3.34,-45.8 6.82,-82.8 68.01,25.4 170.28,48.8 333.56,17.4 32.7,-6.3 62.34,-24.8 80.33,-52.9 16.64,-25.9 22.87,-58.3 -18.79,-84.2 -83.33,-51.8 -59.17,-20.8 -174.97,-96.2 -115.8,-75.5 -257.59,-94.7 -342.3,-41.8 l -113.67,19 -14.1,187 c 0,0 64.79,7.7 130.61,18.7" /><path
         id="path446"
         style="fill:#ffb27d;fill-opacity:1;fill-rule:nonzero;stroke:none"
         d="m 6176.59,10944.9 c 0,0 267.99,-318 609.29,-184.9 0,0 73.42,177.5 74.46,308.4 0.11,16.1 0.31,31.7 0.56,46.6 1.83,147.4 6.8,230.1 6.8,230.1 0,0 -0.1,0 -0.35,0.1 -15.52,6.4 -521.72,214.3 -521.3,197 8.68,-398.7 -169.46,-597.3 -169.46,-597.3" /><path
         id="path448"
         style="fill:#ed975d;fill-opacity:1;fill-rule:nonzero;stroke:none"
         d="m 6396.88,11447.2 c 48.81,-90.5 216.3,-267.5 464.02,-332.2 1.83,147.4 6.8,230.1 6.8,230.1 0,0 -0.1,0 -0.35,0.1 -14.01,3.7 -485,128.6 -470.47,102" /><path
         id="path450"
         style="fill:#ffb27d;fill-opacity:1;fill-rule:nonzero;stroke:none"
         d="m 6973.71,11360.4 c 0,0 -569.27,-133.8 -647.16,222 -77.88,355.8 -203.82,578.1 156.36,678.6 360.17,100.5 460.74,-19.7 515.63,-132.2 54.88,-112.4 121.25,-724.4 -24.83,-768.4" /><path
         id="path452"
         style="fill:#a9453d;fill-opacity:1;fill-rule:nonzero;stroke:none"
         d="m 6346.03,11485.4 c -7.77,-4.9 -130.26,-42.6 -362.24,419.5 -36.41,72.6 -61.22,229.5 23.66,368.2 84.88,138.7 385.87,247.7 635.93,295.1 250.07,47.5 310.11,-93.3 369,-234.7 61.81,-148.4 240.34,-270.6 240.34,-270.6 -215.64,-120.5 -475.36,51.8 -565.34,23.5 -89.98,-28.4 -121.76,-170.2 -128.51,-215.6 -6.75,-45.5 -17.13,-83.3 -130.27,-42.7 -113.15,40.6 -51.17,-160.3 -33.05,-198.7 0,0 15.38,-102.4 -49.52,-144" /><path
         id="path454"
         style="fill:#2c3a64;fill-opacity:1;fill-rule:nonzero;stroke:none"
         d="m 4879.57,2612.7 h -344.7 c -72.26,0 -152.56,72.3 -172.65,204.8 -20.11,132.6 -168.64,204.8 -200.79,313.3 -32.17,108.4 132.55,261 132.55,261 l 27.53,35.4 28.65,36.9 273.05,-64.2 c 0,0 6.73,-65 10.95,-147.8 2.92,-59.8 4.52,-129 1.1,-189.6 -8.04,-144.6 40.51,-300.3 168.94,-328.4 128.53,-28.1 75.37,-121.4 75.37,-121.4" /><path
         id="path456"
         style="fill:#2c3a64;fill-opacity:1;fill-rule:nonzero;stroke:none"
         d="m 7279.23,2612.7 h -913.72 c -8.74,1.7 -15.37,3.6 -19.39,5.6 -61,30.6 -41.91,264.1 -34.57,336.3 1.4,13.3 2.41,21.2 2.41,21.2 0,0 321.28,257 365.5,60.2 1.41,-6.1 3.02,-12.2 4.73,-18.1 v -0.1 c 55.77,-184.1 305.1,-267.7 449.12,-291 110.04,-17.9 138.58,-82.1 145.92,-114.1" /><path
         id="path458"
         style="fill:#f99746;fill-opacity:1;fill-rule:nonzero;stroke:none"
         d="m 7095.06,7881.8 c 0,0 -48.79,-608.8 -106.14,-1340.6 -77.95,-994.1 -171.69,-2215.2 -180.97,-2446.5 -16.02,-401.7 -80.36,-1044.2 -80.36,-1044.2 0,0 -152.52,-152.7 -457.82,-88.3 0,0 -272.05,917.2 -349.76,1887.7 -1.21,15.9 -2.41,31.9 -3.61,47.9 -72.29,988 -184.7,3068.3 -184.7,3068.3 l 1363.36,-84.3" /><path
         id="path460"
         style="fill:#ed7d2b;fill-opacity:1;fill-rule:nonzero;stroke:none"
         d="m 7095.06,7881.8 c 0,0 -48.79,-608.8 -106.14,-1340.6 L 5920.01,4849.9 c -1.21,15.9 -2.41,31.9 -3.61,47.9 -72.29,988 -184.7,3068.3 -184.7,3068.3 l 1363.36,-84.3" /><path
         id="path462"
         style="fill:#f99746;fill-opacity:1;fill-rule:nonzero;stroke:none"
         d="m 6872.23,7809.5 c 0,0 -879.51,-2204.8 -1457.82,-3241 -578.31,-1036.1 -759.03,-1325.3 -759.03,-1325.3 0,0 -331.32,132.6 -361.44,222.9 0,0 221.14,2000.3 608.42,2488 218.84,275.5 475.91,1102.4 487.95,1391.5 12.05,289.2 78.32,861.5 78.32,861.5 l 1403.6,-397.6" /><path
         id="path464"
         style="fill:#ffb27d;fill-opacity:1;fill-rule:nonzero;stroke:none"
         d="m 4866.48,8210.1 -9.3,-141.8 c 0,0 93.52,-251.9 -168.51,-381.2 0,0 -112.16,-45.2 -116.71,42.1 -4.54,87.3 9.81,54.5 0.7,177.5 -9.12,122.9 39.22,239.1 120.55,278.3 l 66.73,77 106.54,-51.9" /><path
         id="path466"
         style="fill:#1e3d70;fill-opacity:1;fill-rule:nonzero;stroke:none"
         d="m 4764.14,8106.8 c 97.35,-31.2 112.94,-24.2 112.94,-24.2 0,0 473.82,862.7 521.82,941.7 47.98,78.9 1006,967.3 1006,967.3 l -246.2,918.1 c 0,0 -1089.62,-1411 -1207.29,-1613.5 -194.44,-334.6 -308.37,-1111.6 -308.37,-1111.6 0,0 44.64,-53.2 121.1,-77.8" /><path
         id="path468"
         style="fill:#2a4e96;fill-opacity:1;fill-rule:nonzero;stroke:none"
         d="m 7280.73,9631.2 c -3.42,-188.6 -14.37,-400.5 -29.14,-615.8 -0.91,-12.7 -1.81,-25.5 -2.71,-38.3 -9.45,-133.3 -49.95,-598.4 -52.06,-617.2 -48.04,-488.2 -98.39,-873.9 -107.73,-879.9 -11.16,-7.4 -23.72,-11.1 -37.49,-9.5 -128.03,16.1 -510.02,-13 -822.76,55.1 -263.91,55.6 -491.13,161.2 -731.92,303.5 -31.95,18.8 -104.82,68.9 -98.89,106.3 5.83,41.1 16.58,100.5 30.25,175.1 47.44,259.7 129.34,706.4 157.28,1229.2 5.43,97.4 13.37,193.6 23.61,288.2 26.84,246.3 69.85,480.2 127.53,688 107.24,386.2 264.81,681.8 462.49,797.5 25.83,14.5 164.81,-74 292.45,-155.9 117.88,-75.6 241.99,-96.5 362.69,-85.9 l 106.22,-117.5 c 128.64,-149.5 265.61,-348.6 303,-631.6 2.81,-20.9 5.22,-43.1 7.24,-66.7 10.35,-115.3 12.86,-261.2 9.94,-424.6" /><path
         id="path470"
         style="fill:#1e3d70;fill-opacity:1;fill-rule:nonzero;stroke:none"
         d="m 7280.73,9631.2 c -3.42,-188.6 -14.37,-400.5 -29.14,-615.8 -0.91,-12.7 -1.81,-25.5 -2.71,-38.3 -731.32,457.8 -843.97,1295.4 -843.97,1295.4 359.77,-15.7 645.59,-98.4 865.88,-216.7 10.35,-115.3 12.86,-261.2 9.94,-424.6" /><path
         id="path472"
         style="fill:#2a4e96;fill-opacity:1;fill-rule:nonzero;stroke:none"
         d="m 9128.52,9270.6 c 7.53,108.4 -48.63,126.5 -48.63,126.5 0,0 -1102.64,199.8 -1196.38,229.3 -93.73,29.5 -895.24,863.3 -895.24,863.3 0,0 -307.22,346.5 -558.78,269.9 -218.6,-66.4 -304.05,-236.9 -333.13,-399.4 -34.67,-193.6 54.56,-388.4 222.19,-491.2 376.29,-230.8 1129.62,-685.5 1307.04,-737.5 394.87,-115.8 1455.81,-9.3 1455.81,-9.3 0,0 41.19,63.2 47.12,148.4" /><path
         id="path474"
         style="fill:#afcdfb;fill-opacity:1;fill-rule:nonzero;stroke:none"
         d="m 8388.89,10811 h 897.76 v 897.8 h -897.76 z m 938.44,-40.7 H 8348.2 v 979.1 h 979.13 v -979.1" /><path
         id="path476"
         style="fill:#afcdfb;fill-opacity:1;fill-rule:nonzero;stroke:none"
         d="m 8512.28,11376.2 318.47,-439 379.37,701.6 -440.22,-400.2 -257.62,137.6" /><path
         id="path478"
         style="fill:#afcdfb;fill-opacity:1;fill-rule:nonzero;stroke:none"
         d="m 9833.72,11994.7 h 897.78 v 897.8 h -897.78 z m 938.48,-40.7 h -979.16 v 979.2 h 979.16 V 11954" /><path
         id="path480"
         style="fill:#afcdfb;fill-opacity:1;fill-rule:nonzero;stroke:none"
         d="m 9957.11,12559.9 318.49,-439 379.4,701.6 -440.3,-400.2 -257.59,137.6" /><g
         transform="scale(1.60012)"
         id="g482"><path
           id="path484"
           style="fill:#ffb27d;fill-opacity:1;fill-rule:nonzero;stroke:none"
           d="m 16148.8,5503.54 c 0,0 -14.1,139.55 58.9,134.74 73,-4.75 92.3,-38.25 84.2,-65.06 -8.2,-26.81 -79.2,-115.55 -79.2,-115.55 l -63.9,45.87" /></g><g
         transform="scale(1.59398)"
         id="g486"><path
           id="path488"
           style="fill:#f99746;fill-opacity:1;fill-rule:nonzero;stroke:none"
           d="m 16096.5,4779.94 c -127.8,-5.15 -384,69.95 -480.6,109.66 -91.8,37.64 -171.2,78.04 -239,117.57 -18.3,10.54 -35.6,21.08 -52.1,31.49 -174.3,109.98 -255.5,205.34 -255.5,205.34 0,0 326.9,282.56 458.7,208.59 154.7,-86.89 421.4,-367.44 466.4,-338.65 50.7,32.44 192.2,430.12 192.2,430.12 93.2,17.76 113.4,-52.76 113.4,-52.76 0,0 -22.1,-704.09 -203.5,-711.36" /></g><g
         transform="scale(1.56418)"
         id="g490"><path
           id="path492"
           style="fill:#233862;fill-opacity:1;fill-rule:nonzero;stroke:none"
           d="m 15853,1845.12 c 0,0 -13.6,-157.91 19.7,-174.34 l 427.3,0.83 c 0,0 0,49.36 -68.6,60.29 -68.7,11 -189.2,51.15 -209.6,140.65 -20.4,89.44 -168.8,-27.43 -168.8,-27.43" /></g><g
         transform="scale(1.55189)"
         id="g494"><path
           id="path496"
           style="fill:#2a4e96;fill-opacity:1;fill-rule:nonzero;stroke:none"
           d="m 16294.7,3786.42 c -2.1,-104.07 -7.1,-211.49 -16.9,-307.95 -46.6,-457.89 -62.9,-1011.16 -69.6,-1117.8 -11.6,-185.13 -48.2,-480.96 -48.2,-480.96 0,0 -72.5,-68.89 -213.9,-36.02 0,0 -117.1,426.06 -143.3,874.67 -0.5,7.35 -0.8,14.76 -1.2,22.17 -3.1,59.28 -6.2,127.14 -9.5,200.21 -21.5,489.79 -44.9,1217.42 -44.9,1217.42 l 540.4,126.94 c 0,0 12.4,-239.19 7.1,-498.68" /></g><g
         transform="scale(1.55189)"
         id="g498"><path
           id="path500"
           style="fill:#233862;fill-opacity:1;fill-rule:nonzero;stroke:none"
           d="m 16294.7,3786.42 c -137,-236.3 -398,-671.64 -502.6,-845.68 -21.5,489.79 -44.9,1217.42 -44.9,1217.42 l 540.4,126.94 c 0,0 12.4,-239.19 7.1,-498.68" /></g><g
         transform="scale(1.45623)"
         id="g502"><path
           id="path504"
           style="fill:#ffb27d;fill-opacity:1;fill-rule:nonzero;stroke:none"
           d="m 16163.8,4117.13 c 0,0 -35.7,-140.16 -29.8,-171.26 5.8,-31.18 40.7,-136.66 62.4,-162.82 21.8,-26.23 22.7,113.72 37.2,135.76 14.5,21.97 6.7,-52.26 18.2,-58.37 11.6,-6.04 31,56.24 39.5,78.35 8.7,22.05 -30.9,98.96 -34.5,154.1 -3.6,55.07 -93,24.24 -93,24.24" /></g><g
         transform="scale(1.44746)"
         id="g506"><path
           id="path508"
           style="fill:#233862;fill-opacity:1;fill-rule:nonzero;stroke:none"
           d="m 15981.2,2187.9 c 0,0 -82.2,-75.03 -66.2,-128.29 16.1,-53.27 90.2,-88.85 100.2,-153.93 10,-65.14 50.1,-100.66 86.2,-100.66 36.1,0 172,0 172,0 0,0 26.6,45.81 -37.6,59.63 -64.1,13.81 -88.3,90.36 -84.3,161.38 4,71.09 -6,165.81 -6,165.81 l -136.3,31.57 -28,-35.51" /></g><g
         transform="scale(1.5426)"
         id="g510"><path
           id="path512"
           style="fill:#2a4e96;fill-opacity:1;fill-rule:nonzero;stroke:none"
           d="m 16300,4172.04 c 0,0 -508.9,-1088.87 -779.8,-1566.63 -270.8,-477.77 -355.4,-611.11 -355.4,-611.11 0,0 -155.2,61.12 -169.3,102.74 0,0 103.6,922.41 284.9,1147.22 102.5,127.06 222.9,508.36 228.5,641.71 5.7,133.28 124.6,451.57 124.6,451.57 l 666.5,-165.5" /></g><g
         transform="scale(1.5534)"
         id="g514"><path
           id="path516"
           style="fill:#f99746;fill-opacity:1;fill-rule:nonzero;stroke:none"
           d="m 16280.8,4199.29 c 0,0 -164.6,-177.09 -444.2,-230.59 -122.7,-23.5 -371.9,-46.15 -433.7,41.2 -14.4,20.54 -14.6,50.86 -11.4,98.3 8.3,123.28 39.4,361.53 -100.6,840.41 -13,44.55 -21.8,87.3 -26.9,127.98 -30.6,245.01 72.8,418.89 194,496.46 295.9,189.2 440.5,58.52 440.5,58.52 0,0 169.4,-79.19 246.7,-309.84 154.8,-461.37 135.6,-1122.44 135.6,-1122.44" /></g><g
         transform="scale(1.51527)"
         id="g518"><path
           id="path520"
           style="fill:#ffb27d;fill-opacity:1;fill-rule:nonzero;stroke:none"
           d="m 15937.4,5764.06 c 0,0 173.6,-56.36 332,8.77 0,0 30.6,16.04 5.5,50.42 2.7,33.2 2.2,30.16 2.6,54.45 1.9,56.09 -0.9,87.57 -0.9,87.57 l -116.7,76.03 -110.7,72.86 c 28.7,-230.06 -111.8,-350.1 -111.8,-350.1" /></g><g
         transform="scale(1.51336)"
         id="g522"><path
           id="path524"
           style="fill:#ed985f;fill-opacity:1;fill-rule:nonzero;stroke:none"
           d="m 16075.5,6033.35 c 0,0 83.2,-123.97 222.6,-148.22 1.9,56.17 -1.8,113.66 -1.8,113.66 l -116,50.15 -104.8,-15.59" /></g><g
         transform="scale(1.52937)"
         id="g526"><path
           id="path528"
           style="fill:#ffb27d;fill-opacity:1;fill-rule:nonzero;stroke:none"
           d="m 16229.2,5939.55 c 0,0 -278.5,-103.89 -340.4,67.68 -62,171.57 -139.7,273.7 35.5,347.33 175.2,73.56 233.5,20.47 268.4,-31.71 34.9,-52.25 107.3,-351.85 36.5,-383.3" /></g><g
         transform="scale(1.5348)"
         id="g530"><path
           id="path532"
           style="fill:#2c3a64;fill-opacity:1;fill-rule:nonzero;stroke:none"
           d="m 15659.7,6312.86 c -3.2,2.48 -9.7,3.65 -23.2,1.76 0,0 9.4,8.79 23.6,11.99 -0.9,19.09 2.5,53.94 32.9,68.28 0,0 -15.4,-12.57 -13.7,-32.77 29.5,45.34 103.4,88.74 326.6,114.8 294.1,34.34 235.3,-169.92 202.2,-199.44 -33.1,-29.52 -139.5,12.45 -208.3,-6.91 -68.7,-19.35 -62.1,-122.94 -83,-141.45 -21,-18.57 -16.5,7.82 -51.4,15.97 -35,8.14 -27.5,-45.61 -11.5,-78.32 16.1,-32.71 -18.9,-86.98 -18.9,-86.98 0,0 0,0 -54,39.16 -54,39.15 -136.1,233.97 -124.4,281.27 1,4.17 2,8.4 3.1,12.64" /></g><g
         transform="scale(1.48689)"
         id="g534"><path
           id="path536"
           style="fill:#ed7d2b;fill-opacity:1;fill-rule:nonzero;stroke:none"
           d="m 16080.1,4291.98 c 8.7,128.79 41.1,377.7 -105.2,878.01 -13.6,46.54 -22.7,91.19 -28.1,133.7 v 0.07 c 108.7,35.78 306.7,-43.92 306.7,-43.92 0,0 46.5,-661.31 -173.4,-967.86" /></g><g
         transform="scale(1.51709)"
         id="g538"><path
           id="path540"
           style="fill:#f99746;fill-opacity:1;fill-rule:nonzero;stroke:none"
           d="m 15840.8,5714.44 c 0,0 -219.8,-124.51 -294.9,-402.28 -61.7,-227.54 -157,-566.15 -168.4,-672.01 -11.5,-105.86 116.2,-725.74 116.2,-725.74 0,0 18,-13.11 62.1,-4.28 42.3,8.44 61.9,37.04 61.9,37.04 0,0 30.5,413.1 22.7,608.14 -3.3,81.08 375.1,593.57 579.4,659.56 80.2,25.97 -379,499.57 -379,499.57" /></g><g
         transform="scale(1.50863)"
         id="g542"><path
           id="path544"
           style="fill:#ed7d2b;fill-opacity:1;fill-rule:nonzero;stroke:none"
           d="m 16082.8,5894.77 c 0,0 -36.9,-18.03 -108.5,-113.22 0,0 133.3,-167.17 325.7,-145.36 0,0 -23.7,86.63 -22.5,141.65 0,0 -160.8,17.9 -194.7,116.93" /></g><g
         transform="scale(1.52035)"
         id="g546"><path
           id="path548"
           style="fill:#ed7d2b;fill-opacity:1;fill-rule:nonzero;stroke:none"
           d="m 16151.9,5733.29 c 0,0 102.1,-26.64 126.5,-99.92 0,0 21.6,63.02 2.6,98.67 -19.1,35.58 -60.5,71.76 -60.5,71.76 0,0 14,-45.06 -68.6,-70.51" /></g><g
         transform="scale(1.63745)"
         id="g550"><path
           id="path552"
           style="fill:#ffffff;fill-opacity:1;fill-rule:nonzero;stroke:none"
           d="m 16300,5703.33 c 0,0 -350.9,9.95 -755.8,-64.56 l -42.3,106.57 -46.4,116.83 c 0,0 406.5,174.97 650.8,418.69 l 193.7,-577.53" /></g><g
         transform="scale(1.64225)"
         id="g554"><path
           id="path556"
           style="fill:#f99746;fill-opacity:1;fill-rule:nonzero;stroke:none"
           d="m 16053.7,6268.13 200.9,-592.93 v 0 c 29.3,8.7 45.4,40.24 35.2,69.11 l -176.8,498.2 c -8.6,24.14 -35.9,35.92 -59.3,25.62 v 0" /></g><g
         transform="scale(1.63745)"
         id="g558"><path
           id="path560"
           style="fill:#d7e1ff;fill-opacity:1;fill-rule:nonzero;stroke:none"
           d="m 16300,5703.33 c 0,0 -350.9,9.95 -755.8,-64.56 l -42.3,106.57 c 380.4,77.75 798.1,-42.01 798.1,-42.01" /></g><g
         transform="scale(1.57277)"
         id="g562"><path
           id="path564"
           style="fill:#f99746;fill-opacity:1;fill-rule:nonzero;stroke:none"
           d="m 16300,5892.99 -114.1,-20.09 c 1.7,-0.06 -106.1,-20.98 -141.4,74.58 -3.2,6.48 -5.3,12.97 -6.8,20.6 -27.4,119.09 38,140.96 38,140.96 l 146.9,57.29 46.6,-165.19 c 0,0 0,0 0,-0.57 l 30.8,-107.58" /></g><g
         transform="scale(1.57277)"
         id="g566"><path
           id="path568"
           style="fill:#ed7d2b;fill-opacity:1;fill-rule:nonzero;stroke:none"
           d="m 16300,5892.99 -114.1,-20.09 c 1.7,-0.06 -106.1,-20.98 -141.4,74.58 64.6,46.92 224.7,53.66 224.7,53.66 0,0 0,0 0,-0.57 l 30.8,-107.58" /></g><g
         transform="scale(1.60463)"
         id="g570"><path
           id="path572"
           style="fill:#d7e1ff;fill-opacity:1;fill-rule:nonzero;stroke:none"
           d="m 16233.8,5368.33 v 0 c -39.9,-8.03 -79.2,18.14 -87.2,58.15 l -70.8,354.16 c -7.9,39.95 18.2,79.21 58.2,87.19 v 0 c 40,7.97 79.3,-18.2 87.2,-58.15 l 70.8,-354.16 c 8,-40.01 -18.2,-79.21 -58.2,-87.19" /></g><g
         transform="scale(1.60278)"
         id="g574"><path
           id="path576"
           style="fill:#ffb27d;fill-opacity:1;fill-rule:nonzero;stroke:none"
           d="m 16243,5717.88 c 0,0 -54.7,-21.84 -44.7,-45.98 10,-24.15 79.7,-57.34 90.7,-38.25 11,19.03 -11.5,104.57 -46,84.23" /></g><g
         transform="scale(1.58677)"
         id="g578"><path
           id="path580"
           style="fill:#ffb27d;fill-opacity:1;fill-rule:nonzero;stroke:none"
           d="m 16283.6,5571.96 c 0,0 -10.5,56.66 -11.1,82.68 -0.7,25.97 -8.2,45.63 -2.1,46.39 6.1,0.75 9.5,-3.79 12,-12.17 2.5,-8.38 17.6,-58.92 17.6,-58.92 l -4.8,-50.04 -11.6,-7.94" /></g></g></g></svg>