<svg xmlns="http://www.w3.org/2000/svg" width="484" height="798" fill="none" viewBox="0 0 484 798">
  <path fill="#F3F5F7" d="M36 30h411v411H36z"/>
  <path fill="#FFAE73" d="M242.237 132.542h-35.843v28.982h35.843v-28.982z"/>
  <path fill="#FFAE73" fill-rule="evenodd" d="M223.978 146.303h-.281c-3.595 0-5.393-.056-7.359-.843-1.91-.786-2.809-2.639-5.394-5.167-2.191-2.134-6.179-4.269-7.135-6.628-1.179-2.808-.898-5.897-1.404-9.997-2.022 1.123-4.27-4.718-4.663-6.684-.618-2.865-2.697-7.639-3.315-10.896-.337-1.854-.168-3.314.506-3.82 1.348-1.011 2.697-.449 4.663 2.247.112-2.303.281-4.662.225-7.133-.113-4.662-.281-8.594.281-11.851.561-3.314 1.91-6.066 4.606-8.481a22.057 22.057 0 015.057-3.37h.056l.337-.169c.056-.056.112-.056.225-.112.112-.056.224-.112.28-.112.113-.057.169-.113.281-.113.113-.056.225-.112.337-.112.113-.056.169-.112.281-.112.113-.057.281-.113.394-.169.056 0 .112-.056.168-.056.169-.056.393-.169.562-.225 4.944-1.797 10.506-2.303 15.787-1.516 5.28.786 10.224 2.864 13.932 6.122 2.697 2.415 3.989 5.167 4.551 8.481.562 3.258.449 7.133.337 11.795-.056 2.527.112 4.886.225 7.189 1.966-2.64 3.314-3.145 4.606-2.19.618.449.843 1.966.506 3.819-.618 3.258-2.697 8.088-3.315 10.896-.449 1.91-2.584 7.639-4.606 6.684-.45 3.988-.225 6.965-1.349 9.717-.955 2.303-4.887 4.549-7.078 6.684-2.585 2.527-3.484 4.381-5.394 5.223-1.854.786-3.595.899-6.91.899z" clip-rule="evenodd"/>
  <path fill="#632404" fill-rule="evenodd" d="M206.956 82.049c-1.686 2.021-5.956 15.838-5.394 29.038-5.674-20.614-8.764-35.33 3.596-44.597 16.18-12.188 35.787-4.324 37.36.338 12.977 4.549 7.752 25.05 4.213 41.394-.112-8.2-1.854-18.366-5.955-25.5-.955-.954-5.169 4.494-6.124 4.438-9.606-.674-12.977-2.809-27.696-5.111z" clip-rule="evenodd"/>
  <path fill="#BFD8DB" fill-rule="evenodd" d="M200.776 156.02l22.865 2.864 23.09-3.033-2.135 181.361h-41.461l-10.73-149.402 8.371-31.79z" clip-rule="evenodd"/>
  <path fill="#D8EBED" fill-rule="evenodd" d="M242.293 147.707c.562 3.988 1.798 5.841 4.438 7.863l-11.404 19.49-12.079-16.906c6.011-3.314 16.741-7.414 19.045-10.447z" clip-rule="evenodd"/>
  <path fill="#D8EBED" fill-rule="evenodd" d="M204.708 147.707c-.561 3.988-1.797 5.841-4.438 7.863l11.405 19.49 12.078-16.906c-5.955-3.314-16.685-7.414-19.045-10.447z" clip-rule="evenodd"/>
  <path fill="#D44B40" fill-rule="evenodd" d="M224.203 159.446l7.753 11.401-.169 2.921-6.404 6.459 7.135 11.514-8.933 92.562-.056-1.235-.056 1.235-8.989-92.562 7.191-11.514-6.405-6.459-.168-2.921 7.696-11.401h1.405z" clip-rule="evenodd"/>
  <path fill="#1B3F7E" fill-rule="evenodd" d="M153.978 177.419c-4.775 1.91-1.517 5.841-.393 10.728 10.505 43.697 18.314 70.095 20.337 96.718 1.91 24.77-1.461 49.651-5.843 92.731l46.629.393 2.809-85.204c.169-4.381-.112-8.818-.674-13.312l-16.18-123.285c-9.663 8.874-20.337 10.784-46.685 21.231zM293.136 177.419c4.775 1.91 1.348 5.841.393 10.728-5.225 25.724-16.18 65.546-17.641 94.696-1.348 26.792 2.472 66.221 3.933 93.63h-48.483l-1.742-83.744a88.85 88.85 0 01.674-13.312l16.18-123.285c9.663 8.931 20.394 10.84 46.686 21.287z" clip-rule="evenodd"/>
  <path fill="#FFAE73" fill-rule="evenodd" d="M351.788 195.898l19.27-3.37 16.797-24.713-2.752-4.55-18.315 16.738-17.416-3.258-9.551 8.987-7.921 9.436 12.978 3.426 6.91-2.696z" clip-rule="evenodd"/>
  <path fill="#BFD8DB" fill-rule="evenodd" d="M329.653 194.55l2.64-4.887 23.652 5.505-2.64 3.37-23.652-3.988z" clip-rule="evenodd"/>
  <path fill="#1B3F7E" fill-rule="evenodd" d="M279.54 176.071h8.034c7.584 0 11.405 7.47 13.764 15.783l17.416 61.671c9.045 32.127-10.674 40.215-21.405 33.194-4.719-3.089-7.696-9.717-9.269-16.625l-24.888-78.184c-2.023-8.481 8.764-15.839 16.348-15.839z" clip-rule="evenodd"/>
  <path fill="#1E3865" fill-rule="evenodd" d="M327.967 192.977l-36.854 75.825c-7.191 14.772 20.281 26.904 29.832 6.571l36.011-76.386-28.989-6.01z" clip-rule="evenodd"/>
  <path fill="#1B3F7E" fill-rule="evenodd" d="M153.528 177.7c-3.595-.112-6.966 11.739-8.258 17.299l-17.191 73.578c-1.405 5.448-1.91 7.976-1.629 11.458 2.584 16.962 25.449 12.974 28.033 1.179-.168-3.313.281-4.717 2.36-10.503l14.944-40.046c-2.079-10.728-5.955-52.74-18.259-52.965z" clip-rule="evenodd"/>
  <path fill="#FFAE73" fill-rule="evenodd" d="M225.664 288.967l16.292-1.068c1.854-.112 3.146-1.685 3.033-3.538l-.955-18.254c-.112-1.91-4.157-3.089-5.955-2.808l-13.708.898c-1.854.281-3.146 1.797-4.213 3.258l-14.157 2.415c1.292 4.493 2.415 11.57 3.707 16.007l11.854.337c1.18 2.079 3.371 2.809 4.102 2.753z" clip-rule="evenodd"/>
  <path fill="#FFAE73" fill-rule="evenodd" d="M243.023 281.889l-9.775-.113c-2.472-.056-4.719 2.472-4.607 4.606.112 2.134 7.191 1.348 9.663 1.404l5.112.112c4.944.056 6.405-5.953-.393-6.009z" clip-rule="evenodd"/>
  <path fill="#FFAE73" fill-rule="evenodd" d="M244.147 275.654l-9.326-.112c-2.36-.057-4.551 2.583-4.438 4.83.112 2.247 6.854 1.404 9.269 1.46l4.888.113c4.719 0 6.124-6.235-.393-6.291z" clip-rule="evenodd"/>
  <path fill="#FFAE73" fill-rule="evenodd" d="M244.54 269.419l-8.034-.056c-2.078 0-3.595 2.584-3.202 4.831.393 2.246 6.067 1.348 8.146 1.404l4.214.056c4.045.056 4.494-6.178-1.124-6.235z" clip-rule="evenodd"/>
  <path fill="#FFAE73" fill-rule="evenodd" d="M245.214 263.578l-6.685-.337c-1.686-.056-3.09 2.303-2.809 4.381.224 2.078 5.056 1.461 6.741 1.573l3.484.168c3.426.169 3.932-5.56-.731-5.785z" clip-rule="evenodd"/>
  <path fill="#1E3865" fill-rule="evenodd" d="M149.54 258.973c15.337-.731 54.831 5.897 70.168 6.234-.561 6.01-1.404 13.817.394 22.916-30.562 3.595-54.944 7.358-83.484 1.573-11.124-2.247-11.461-13.256-7.359-21.007 4.438-8.088 12.584-9.155 20.281-9.716z" clip-rule="evenodd"/>
  <g>
    <path fill="#1C1C1C" fill-rule="evenodd" d="M248.529 231.058c3.202 11.738 5.618 21.174 7.472 30.554 1.404 6.852 2.528 13.705 3.539 21.568l2.584.674c-1.067-8.313-2.247-15.558-3.707-22.691-1.967-9.605-4.326-18.984-7.529-30.723l-2.359.618z" clip-rule="evenodd"/>
    <path fill="#1C1C1C" d="M272.293 281.495h-21.686v6.066h21.686v-6.066z"/>
    <path fill="#292929" d="M261.45 281.495h-10.843v6.066h10.843v-6.066z"/>
    <path fill="#1C1C1C" fill-rule="evenodd" d="M242.068 213.422l-.281.112c-3.314 1.404-4.887 5.336-3.427 8.649l3.09 7.246c1.405 3.314 5.337 4.886 8.652 3.426l.281-.112c3.314-1.404 4.887-5.336 3.427-8.65l-3.09-7.245c-1.405-3.314-5.337-4.831-8.652-3.426z" clip-rule="evenodd"/>
    <g>
      <path fill="#292929" fill-rule="evenodd" d="M202.349 231.058c-3.202 11.739-5.618 21.175-7.472 30.554-1.405 6.853-2.528 13.761-3.54 21.568l-2.528.393c1.012-8.2 2.191-15.333 3.652-22.466 1.966-9.605 4.326-18.984 7.528-30.723l2.36.674z" clip-rule="evenodd"/>
      <path fill="#292929" d="M200.214 281.495h-21.685v6.066h21.685v-6.066z"/>
      <path fill="#1C1C1C" d="M200.214 281.495h-10.843v6.066h10.843v-6.066z"/>
      <path fill="#292929" fill-rule="evenodd" d="M208.753 213.422l.281.112c3.315 1.404 4.888 5.336 3.427 8.649l-3.146 7.246c-1.404 3.314-5.337 4.886-8.652 3.426l-.28-.112c-3.315-1.404-4.888-5.336-3.427-8.65l3.146-7.245c1.46-3.314 5.337-4.831 8.651-3.426z" clip-rule="evenodd"/>
    </g>
  </g>
  <path fill="#823008" fill-rule="evenodd" d="M124.933 300.086h186.911l-28.259 374.967H153.191l-4.213-56.166-24.045-318.801z" clip-rule="evenodd"/>
  <path fill="#823008" fill-rule="evenodd" d="M225.439 300.086h100.45L297.63 675.053h-72.191V300.086z" clip-rule="evenodd"/>
  <path fill="#9B3B0B" fill-rule="evenodd" d="M106.112 287.674h224.552l-10.73 55.941H116.843l-10.731-55.941z" clip-rule="evenodd"/>
  <path fill="#9B3B0B" fill-rule="evenodd" d="M225.439 287.674h119.27l-10.73 55.941h-108.54v-55.941zM96 675.053h268.597l-64.27-35.216H150.551L96 675.053z" clip-rule="evenodd"/>
</svg>
