<svg xmlns="http://www.w3.org/2000/svg" width="396" height="496" fill="none" viewBox="0 0 396 496">
  <path fill="#5E6C78" d="M371.67 35H114.049v204.512H371.67V35z"/>
  <path fill="#F7FCFC" d="M360.83 45.408H124.833v183.696H360.83V45.408z"/>
  <path fill="#E59055" fill-rule="evenodd" d="M133.627 156.246l4.314-.886 1.383.277.608 3.93-1.548 3.987-2.157 6.145-3.097 2.99s-4.038-.942-4.314-1.108c-.277-.166-.664-5.536-.553-5.813.166-.332 5.309-9.744 5.364-9.522z" clip-rule="evenodd"/>
  <path fill="#CE7B42" fill-rule="evenodd" d="M134.457 159.512l.276-.277 1.715-.498.111 2.104-2.434 3.488-1.327-1.827 1.659-2.99z" clip-rule="evenodd"/>
  <path fill="#FFAE73" fill-rule="evenodd" d="M128.318 162.723c.387-1.937 1.217-4.539 1.88-5.813.553-.996 1.383-1.55 2.323-2.436.94-.941 1.991-2.325 3.706-4.097 3.373-3.432 5.199-5.702 6.084-5.148.719.387.165 2.269-2.489 5.757l-4.48 5.924c-.166.886-.553 1.772-.719 2.768a161.187 161.187 0 01-.609 3.599l-4.203 10.74-2.931-.996c.498-4.097.774-6.81 1.438-10.298z" clip-rule="evenodd"/>
  <path fill="#FFAE73" fill-rule="evenodd" d="M132.411 165.048l4.867-4.982c2.046-2.99 2.71-5.98 4.258-6.755 1.051-.498 2.379 1.052 1.549 3.101-.94 1.495-2.71 5.591-3.208 6.588-.995 1.938-.276 2.879-1.383 5.536-1.604 3.765-2.765 4.374-5.033 5.924l-6.526 4.374 1.383-5.038c.055-.056 4.203-8.803 4.093-8.748z" clip-rule="evenodd"/>
  <path fill="#451903" fill-rule="evenodd" d="M71.24 72.703c7.965 0 14.38 5.647 14.38 12.678 0 6.976-6.415 12.678-14.38 12.678-7.963 0-14.379-5.647-14.379-12.678 0-7.031 6.416-12.678 14.38-12.678z" clip-rule="evenodd"/>
  <path fill="#FFAE73" fill-rule="evenodd" d="M73.785 318.294l1.493 31.779c.885 15.28-2.157 34.768-1.493 49.273.94 19.543 4.259 40.249 3.319 59.737-.111 2.159-.166 6.09-.443 9.523-.332 3.155-1.05 5.702-.996 7.197l3.761 9.412 11.891 3.377 2.434-13.343c-.166-2.491-.885-4.761-1.549-7.086a34.723 34.723 0 01-.94-3.986c-1.604-8.637-.995-17.163.332-26.353 2.268-15.391 6.14-32.997 6.747-43.405.72-11.848-.94-24.028-2.433-43.184l2.876-33.107-24.999.166z" clip-rule="evenodd"/>
  <path fill="#29343D" fill-rule="evenodd" d="M76.108 472.758l-1.438 11.239 10.176 11.626h6.471l5.863-10.907-4.038-13.785-2.322 14.062-7.19.111-7.522-12.346z" clip-rule="evenodd"/>
  <path fill="#FFAE73" fill-rule="evenodd" d="M68.641 318.294l-1.493 31.779c-.885 15.28 2.157 34.768 1.493 49.273-.94 19.543-4.258 40.249-3.318 59.737.11 2.159.166 6.09.442 9.523.277 3.155 1.051 5.702.996 7.197L63 485.215l-11.891 3.377-2.489-13.398c.166-2.491.885-4.761 1.549-7.087.387-1.273.719-2.712.94-3.986 1.604-8.636.995-17.107-.332-26.353-2.268-15.391-6.14-32.996-6.747-43.405-.72-11.847.94-24.027 2.433-43.183l-2.876-33.107 25.054.221z" clip-rule="evenodd"/>
  <path fill="#44515C" fill-rule="evenodd" d="M66.318 472.758l1.438 11.239-10.176 11.626h-6.416l-5.918-10.907 4.093-13.785 2.323 14.062 7.135.111 7.521-12.346z" clip-rule="evenodd"/>
  <path fill="#FFAE73" fill-rule="evenodd" d="M69.582 200.426l-.332-1.218H93.585c2.876-1.052 5.641-9.91 8.296-11.35.277-2.104.553-3.986.83-4.816.442-1.384 2.433-3.211 3.429-6.865.995-3.821.94-9.412-4.646-10.63-9.568-1.993-11.504 1.993-18.251-6.699-2.71-3.488-2.987-11.239-1.051-18.602H59.46c1.936 7.363 1.66 15.114-1.05 18.602-2.71 3.598-13.883 4.374-14.657 4.484-3.816.554-6.526 2.215-7.798 4.928-4.535 9.744 2.6 21.204 4.812 31.003l28.815 1.163z" clip-rule="evenodd"/>
  <path fill="#E9F5F5" fill-rule="evenodd" d="M97.733 193.782c1.383-2.547 2.765-5.149 4.093-5.869.276-2.104.553-3.986.829-4.816.443-1.384 2.434-3.211 3.429-6.865.996-3.82.941-9.412-4.645-10.63-8.905-1.827-11.172 1.439-16.814-4.983L71.351 180.55l-14.048-20.595c-1.935 1.384-5.254 2.214-8.075 2.713l-.055-.111c-3.705.553-7.853.775-8.185.83-3.816.554-6.526 2.215-7.799 4.928.609 1.273 1.162 2.491 1.604 3.709-1.05 5.592.885 11.626 2.876 17.439.056 2.436.11 4.872.222 7.253l-.554.498 8.85 38.312c-3.264 7.695-13.606 28.789-13.385 36.041.387 13.398 2.82 40.028 9.624 70.533H96.46c6.803-30.505 9.236-57.135 9.623-70.533.222-7.252-12.389-28.346-15.652-36.041l11.117-38.312-3.816-3.432z" clip-rule="evenodd"/>
  <path fill="#E59055" fill-rule="evenodd" d="M59.405 140.246c.719 2.823 1.161 5.702 1.217 8.36 5.365 4.595 14.435 7.861 22.344 9.965-2.544-3.599-2.71-11.128-.83-18.325H59.405z" clip-rule="evenodd"/>
  <path fill="#FFAE73" fill-rule="evenodd" d="M91.483 114.17c1.936-2.879 4.204-.886 3.485 2.602-.553 2.879-1.88 6.145-2.655 9.412-.498 2.214-1.272 3.82-3.263 3.432-.83 2.934-1.825 5.038-3.484 7.696-2.268 3.654-4.093 5.647-6.472 7.806-3.54 3.156-5.862 4.761-8.13 4.761-2.212 0-4.369-1.55-8.351-4.983-1.936-1.716-3.43-3.543-5.42-6.256-1.991-2.768-3.208-5.481-4.203-8.968-1.826.276-2.6-1.274-3.042-3.433-.72-3.266-2.047-6.533-2.655-9.412-.609-3.155 1.106-5.038 2.876-3.377-.11-2.934.055-6.035.664-9.744 1.825-11.848 7.853-16.775 20.242-16.83 11.172-.056 18.085 7.972 19.91 18.491.664 2.824.72 5.813.498 8.803z" clip-rule="evenodd"/>
  <path fill="#632404" fill-rule="evenodd" d="M51.883 120.924C53.93 109.021 77.546 112.73 82.8 95.9c7.19 3.266 7.743 17.494 7.798 25.854 7.024-18.159 2.544-40.194-19.246-40.027-21.736.166-27.765 23.031-19.469 39.197z" clip-rule="evenodd"/>
  <path fill="#D8E6E8" fill-rule="evenodd" d="M96.737 163.111c1.604.166 2.821.221 2.987.221 3.816.554 6.526 2.215 7.798 4.928-.165.277-.387.609-.553.886 2.987 7.695-.829 16.442-3.595 24.47a60.29 60.29 0 01-.276 3.267l.276.276-8.904 38.312c3.263 7.695 13.606 28.789 13.44 36.041-.388 13.398-2.821 40.028-9.624 70.533h-27.93V200.038l.387-19.377 14.546-20.816c2.71 2.048 8.351 2.878 11.448 3.266z" clip-rule="evenodd"/>
  <path fill="#D8E6E8" fill-rule="evenodd" d="M111.062 173.796l7.19 46.726c.719 5.426-2.489 12.955-4.757 14.173-1.991 1.108-7.853-1.494-10.01-6.809l-6.084-30.782c-1.715-12.346 5.42-29.454 9.955-29.454 2.047.056 3.263 5.094 3.706 6.146z" clip-rule="evenodd"/>
  <path fill="#D8E6E8" fill-rule="evenodd" d="M136.835 173.464l-10.674-2.491c-3.54 9.633-15.707 35.82-19.966 47.003-.719 1.938-2.931 6.81-2.323 10.962.387 2.823 3.263 6.533 5.254 7.308 3.706 1.439 9.679-2.27 12.61-9.799l15.099-52.983z" clip-rule="evenodd"/>
  <path fill="#F7FCFC" fill-rule="evenodd" d="M56.806 159.512l-4.757 2.27 9.79 21.481 6.194-7.862-11.227-15.889z" clip-rule="evenodd"/>
  <path fill="#E9F5F5" fill-rule="evenodd" d="M85.344 159.678l4.812 2.326-9.845 21.425-6.139-7.806 11.172-15.945z" clip-rule="evenodd"/>
  <path fill="#1B3F7E" fill-rule="evenodd" d="M46.076 235.637c-3.263 7.695-13.606 28.789-13.385 36.041.388 13.398 2.821 40.028 9.624 70.533H96.35c6.803-30.505 12.997-62.782 9.624-70.533l-15.652-36.041H46.076z" clip-rule="evenodd"/>
  <path fill="#1E3865" fill-rule="evenodd" d="M94.415 235.637c3.263 7.695 13.605 28.789 13.439 36.041-.387 13.398-2.82 40.028-9.623 70.533H85.84l11.284-71.253-12.998-35.377 10.288.056z" clip-rule="evenodd"/>
  <path fill="#E9F5F5" fill-rule="evenodd" d="M30.977 173.131l-6.14 46.672c-.663 5.204 1.107 11.515 3.264 12.733 1.88 1.052 9.568-1.716 11.614-6.809l4.425-30.118c1.66-11.848-5.254-28.346-9.623-28.346-1.88-.055-3.098 4.817-3.54 5.868z" clip-rule="evenodd"/>
  <path fill="#FFAE73" fill-rule="evenodd" d="M40.656 279.318c.498 1.107 1.549 1.938 2.268 4.651.276 1.107.608 3.709.11 5.315-.885 2.934-1.217 5.425-1.272 7.64l-12.665 1.55c-1.383-2.879-2.434-5.094-2.434-5.149.11-1.218-.166-3.1.498-4.817 1.106-2.768 1.549-3.875 2.268-5.259 1.88-3.543 2.71-2.99 2.378-7.474-.774-9.855-6.25-33.993-7.356-45.398-.166-1.993-.94-7.031.608-10.74 1.107-2.547 4.701-5.205 6.748-5.426 3.816-.388 6.194 4.872 6.969 12.567.995 10.076-1.494 45.121 1.88 52.54z" clip-rule="evenodd"/>
  <path fill="#E9F5F5" fill-rule="evenodd" d="M41.43 279.595l-10.564-.443c-.774-9.854-5.42-37.259-6.526-48.72-.166-1.993-.94-7.031.609-10.74 1.106-2.547 4.7-5.204 6.747-5.426 3.816-.387 7.467.997 8.24 8.637l1.494 56.692z" clip-rule="evenodd"/>
  <path fill="#1E3865" fill-rule="evenodd" d="M193.802 103.761v117.26h-44.246v-117.26h-11.615l33.738-49.273 33.737 49.273h-11.614zM340.2 156.079v64.942h-44.301v-64.942h-11.615l33.793-49.273 33.738 49.273H340.2zM266.973 135.152v85.868h-44.246v-85.868h-11.614l33.737-49.273 33.738 49.273h-11.615z" clip-rule="evenodd"/>
  <path fill="#DBF1FF" d="M196.235 163.055h-49.113v58.021h49.113v-58.021z"/>
  <path fill="#E59055" d="M179.145 197.436h-15.707v12.457h15.707v-12.457z"/>
  <path fill="#FFAE73" fill-rule="evenodd" d="M171.458 203.36h-.111c-1.604 0-2.434 0-3.318-.388-.83-.332-1.273-1.163-2.434-2.214-.996-.942-2.765-1.827-3.208-2.824-.553-1.218-.387-2.547-.608-4.318-.94.498-1.936-2.049-2.102-2.879-.276-1.218-1.217-3.322-1.493-4.706-.166-.775-.055-1.44.221-1.606.608-.443 1.217-.166 2.102.997.055-.997.11-1.993.11-3.1-.055-1.994-.11-3.71.111-5.094.277-1.439.83-2.602 2.046-3.654a10.5 10.5 0 012.268-1.439h.055c.056 0 .111-.056.166-.056.055 0 .055-.055.111-.055.055 0 .11-.055.11-.055.056 0 .056-.056.111-.056s.111-.055.166-.055c.055 0 .055-.055.111-.055.055 0 .11-.056.165-.056.056 0 .056 0 .111-.055.111-.056.166-.056.277-.111 2.212-.775 4.756-.996 7.134-.664 2.378.332 4.646 1.218 6.305 2.657 1.217 1.052 1.77 2.215 2.047 3.654.276 1.44.221 3.1.166 5.094-.056 1.107.055 2.103.11 3.1.885-1.107 1.494-1.329 2.102-.941.276.221.387.83.221 1.605-.276 1.384-1.217 3.488-1.493 4.706-.221.831-1.162 3.322-2.102 2.879-.221 1.716-.11 2.99-.608 4.208-.443.996-2.213 1.937-3.208 2.879-1.162 1.107-1.549 1.882-2.434 2.269-.884.277-1.714.333-3.207.333z" clip-rule="evenodd"/>
  <path fill="#632404" fill-rule="evenodd" d="M164.71 176.564c-1.714-.055-2.655 6.477-2.599 11.682l-2.268-3.544c-2.157-8.47.166-18.38 12.61-17.218 11.67-.609 13.495 8.969 10.619 17.717l-1.936 3.045c-.055-3.821-.331-10.243-2.101-11.516-1.549-1.163-3.927 1.938-7.245 1.882-2.711-.055-5.365-2.048-7.08-2.048z" clip-rule="evenodd"/>
  <path fill="#BFD8DB" fill-rule="evenodd" d="M161.557 206.571l9.735 1.162 9.9-1.273-.166 14.561h-22.898l-.11-1.495 3.539-12.955z" clip-rule="evenodd"/>
  <path fill="#D8EBED" fill-rule="evenodd" d="M179.311 203.194c.221 1.605.774 2.38 1.881 3.211l-4.867 7.972-5.144-6.865c2.544-1.439 7.135-3.1 8.13-4.318z" clip-rule="evenodd"/>
  <path fill="#D8EBED" fill-rule="evenodd" d="M163.272 203.194c-.221 1.605-.774 2.38-1.88 3.211l4.867 7.972 5.143-6.865c-2.599-1.439-7.134-3.1-8.13-4.318z" clip-rule="evenodd"/>
  <path fill="#D44B40" fill-rule="evenodd" d="M171.568 207.955l3.319 4.65-.111 1.163-2.71 2.658 2.987 4.595h-7.578l2.987-4.595-2.71-2.658-.055-1.163 3.263-4.65H171.568z" clip-rule="evenodd"/>
  <path fill="#1E3865" fill-rule="evenodd" d="M163.549 221.021l-1.991-14.45c-3.485 3.045-6.803 3.986-14.436 6.754v7.696h16.427z" clip-rule="evenodd"/>
  <path fill="#032747" fill-rule="evenodd" d="M196.18 221.02l.055-.055v.055h-.055z" clip-rule="evenodd"/>
  <path fill="#1E3865" fill-rule="evenodd" d="M179.035 221.021l1.991-14.45c3.705 3.211 6.747 4.208 15.209 7.363v7.087h-17.2z" clip-rule="evenodd"/>
  <path fill="#084478" fill-rule="evenodd" d="M163.549 221.021l-1.992-14.45c-1.714 1.495-3.429 2.491-5.586 3.432l-1.493 10.353 1.936.609h7.135v.056z" clip-rule="evenodd"/>
  <path fill="#05345E" fill-rule="evenodd" d="M179.145 221.021l1.991-14.45c1.715 1.495 3.429 2.491 5.586 3.432l1.494 10.353-1.936.609h-7.135v.056z" clip-rule="evenodd"/>
  <path fill="#DBF1FF" d="M268.909 164.273h-48.062v56.748h48.062v-56.748z"/>
  <path fill="#E59055" d="M252.317 197.824h-13.55v10.962h13.55v-10.962z"/>
  <path fill="#FFAE73" fill-rule="evenodd" d="M245.403 203.083h-.11c-1.383 0-2.047 0-2.766-.332-.719-.277-1.05-.996-2.046-1.938-.83-.775-2.323-1.605-2.71-2.491-.443-1.052-.332-2.215-.553-3.765-.774.443-1.604-1.771-1.77-2.546-.221-1.052-.996-2.879-1.272-4.153-.166-.719-.055-1.273.166-1.439.498-.388.995-.166 1.77.83.055-.885.11-1.771.055-2.712-.055-1.772-.111-3.267.111-4.485.221-1.273.719-2.325 1.714-3.211a7.825 7.825 0 011.936-1.273c.055 0 .111-.056.166-.056.055 0 .055 0 .055-.055.055 0 .055-.055.111-.055.055 0 .055-.056.11-.056.056 0 .056-.055.111-.055s.055-.056.111-.056c.055 0 .11-.055.166-.055 0 0 .055 0 .055-.055.055-.056.166-.056.221-.056 1.881-.664 3.982-.885 5.973-.553 1.991.277 3.872 1.052 5.254 2.325.996.941 1.494 1.938 1.715 3.211.221 1.218.166 2.713.111 4.485-.056.941.055 1.827.055 2.712.719-.996 1.272-1.162 1.77-.83.221.166.332.72.166 1.439-.222 1.218-.996 3.045-1.272 4.153-.166.719-.996 2.878-1.715 2.546-.166 1.495-.055 2.658-.498 3.71-.387.885-1.825 1.716-2.71 2.546-.995.942-1.327 1.661-2.046 1.993-.553.222-1.162.277-2.434.277z" clip-rule="evenodd"/>
  <path fill="#632404" fill-rule="evenodd" d="M238.932 178.723c-.663.775-2.267 5.98-2.046 10.962-2.157-7.806-3.319-13.398 1.383-16.886 6.139-4.595 13.495-1.661 14.103.111 4.922 1.716 2.931 9.467 1.604 15.668-.055-3.1-.719-6.976-2.268-9.633-.387-.388-1.936 1.716-2.323 1.661-3.595-.166-4.867-.997-10.453-1.883z" clip-rule="evenodd"/>
  <path fill="#BFD8DB" fill-rule="evenodd" d="M236.61 206.737l8.627 1.107 8.794-1.162-.221 14.339h-20.187l-.166-2.215 3.153-12.069z" clip-rule="evenodd"/>
  <path fill="#D8EBED" fill-rule="evenodd" d="M252.317 203.581c.221 1.495.663 2.215 1.659 2.99l-4.314 7.363-4.591-6.422c2.323-1.218 6.361-2.768 7.246-3.931z" clip-rule="evenodd"/>
  <path fill="#D8EBED" fill-rule="evenodd" d="M238.103 203.581c-.222 1.495-.664 2.215-1.66 2.99l4.314 7.363 4.591-6.422c-2.323-1.218-6.36-2.768-7.245-3.931z" clip-rule="evenodd"/>
  <path fill="#000" fill-rule="evenodd" d="M245.459 208.066l2.931 4.318-.055 1.107-2.434 2.436 2.71 4.319-.055.775h-6.692l-.056-.775 2.711-4.319-2.434-2.436-.055-1.107 2.931-4.318h.498z" clip-rule="evenodd"/>
  <path fill="#1E3865" fill-rule="evenodd" d="M238.49 221.021l-1.881-14.229c-3.429 3.156-7.19 3.987-15.762 7.308v6.921h17.643z" clip-rule="evenodd"/>
  <path fill="#29343D" fill-rule="evenodd" d="M267.969 221.021c.276-.554.553-1.163.94-1.827v1.827h-.94z" clip-rule="evenodd"/>
  <path fill="#1E3865" fill-rule="evenodd" d="M251.985 221.021l1.88-14.229c3.319 3.045 6.969 3.931 15.044 7.032v7.252h-16.924v-.055zM223.004 221.021c-.609-1.993-1.328-3.765-2.157-4.817v4.817h2.157z" clip-rule="evenodd"/>
  <path fill="#DBF1FF" d="M342.081 164.273h-48.062v56.748h48.062v-56.748z"/>
  <path fill="#632404" fill-rule="evenodd" d="M326.926 175.9c2.876 3.709 3.042 8.858 2.6 14.837-.055 1.052 2.378 3.82 2.544 6.976.111 2.547-.111 4.761.719 6.478 2.268 4.539 6.028 6.034 4.425 16.885h-4.536c-4.645-2.546-11.448-6.311-11.725-6.754-2.986-4.983-12.942-13.121-15.652-23.142-2.433-9.135 2.544-21.37 12.223-20.872 2.102-.111 6.526 1.882 9.402 5.592z" clip-rule="evenodd"/>
  <path fill="#FFAE73" fill-rule="evenodd" d="M327.811 221.021c1.217-.72 2.323-4.263 3.429-4.872.111-.941.221-1.717.332-2.104.166-.609 1.051-1.384 1.493-2.99.443-1.661.388-4.097-2.046-4.595-4.148-.886-4.978.831-7.909-2.934-1.161-1.495-1.272-4.872-.442-8.083h-9.9c.829 3.211.719 6.588-.443 8.083-1.161 1.55-6.028 1.882-6.36 1.938-1.659.221-2.821.996-3.374 2.159-1.936 4.207 1.106 9.19 2.102 13.398h23.118z" clip-rule="evenodd"/>
  <path fill="#E4ECED" fill-rule="evenodd" d="M327.811 221.021c1.217-.72 2.323-4.263 3.429-4.872.111-.941.221-1.716.332-2.104.166-.609 1.051-1.384 1.493-2.989.443-1.661.388-4.097-2.046-4.596-3.871-.83-4.867.609-7.301-2.159-1.493 1.55-3.539 2.492-5.807 2.492-2.433 0-4.59-1.108-6.084-2.769-1.659 1.163-5.586 1.44-5.917 1.495-1.66.222-2.821.997-3.374 2.159-1.936 4.208 1.106 9.191 2.101 13.398h23.174v-.055z" clip-rule="evenodd"/>
  <path fill="#D6E1E3" fill-rule="evenodd" d="M317.966 221.021v-14.228c2.434 0 4.591-1.108 6.084-2.769 1.659 1.163 5.586 1.44 5.918 1.495 1.659.222 2.821.997 3.374 2.159 1.936 4.208-1.106 9.191-2.102 13.398h-13.274v-.055z" clip-rule="evenodd"/>
  <path fill="#E59055" fill-rule="evenodd" d="M312.823 195.498c.332 1.218.498 2.492.553 3.654 2.323 1.993 6.25 3.433 9.734 4.319-1.106-1.551-1.161-4.817-.387-7.973h-9.9z" clip-rule="evenodd"/>
  <path fill="#FFAE73" fill-rule="evenodd" d="M326.76 184.149c.83-1.273 1.826-.388 1.549 1.107-.276 1.274-.83 2.658-1.161 4.097-.222.997-.553 1.661-1.383 1.495-.332 1.273-.774 2.215-1.493 3.322-.996 1.605-1.77 2.436-2.821 3.377-1.549 1.384-2.544 2.048-3.54 2.048-.94 0-1.88-.664-3.595-2.159-.829-.719-1.493-1.55-2.323-2.713-.885-1.218-1.382-2.38-1.825-3.875-.774.111-1.106-.554-1.327-1.495-.332-1.439-.885-2.823-1.162-4.097-.276-1.384.498-2.214 1.273-1.439-.056-1.274.055-2.602.276-4.208.774-5.149 3.429-7.308 8.794-7.308 4.867 0 7.854 3.488 8.683 8.028.111 1.218.166 2.547.055 3.82z" clip-rule="evenodd"/>
  <path fill="#752A05" fill-rule="evenodd" d="M309.56 187.083c.885-5.149 11.172-3.543 13.439-10.907 3.098 1.44 3.374 7.585 3.374 11.239 3.042-7.917 1.106-17.495-8.351-17.384-9.458.111-12.057 10.076-8.462 17.052z" clip-rule="evenodd"/>
  <path fill="#1E3865" fill-rule="evenodd" d="M328.032 217.09c0-3.1.277-7.419 3.042-10.575-2.101-.442-3.318-.221-4.424-.387l-8.462 14.948h13.052l.221-.83-3.429-3.156zm-10.287 3.931l-8.96-15.89c-1.603.277-3.429.333-3.539.388-1.659.221-2.821.997-3.374 2.159 2.212 4.595 1.881 8.471 2.046 12.346l-.221.222.166.83h13.882v-.055z" clip-rule="evenodd"/>
  <path fill="#1E3865" fill-rule="evenodd" d="M327.203 205.131c1.659.277 3.374.333 3.54.388 1.659.221 2.82.997 3.373 2.159-2.599 4.208-1.382 8.471-1.936 12.457l.111.111-.166.83h-13.937l9.015-15.945z" clip-rule="evenodd"/>
  <path fill="#E4ECED" fill-rule="evenodd" d="M301.54 208.232l-3.208 12.789h7.577l.222-.776c1.88-4.373-3.208-15.39-4.591-12.013zM334.614 208.232l3.208 12.789h-7.577l-.222-.776c-1.935-4.373 3.153-15.39 4.591-12.013z" clip-rule="evenodd"/>
</svg>
