<svg xmlns="http://www.w3.org/2000/svg" width="436" height="508" fill="none" viewBox="0 0 436 508">
  <path fill="#FFAE73" fill-rule="evenodd" d="M290.768 113.267c-2.801 9.866-3.593 17.112-6.698 27.099l-6.82 34.833 13.396 16.747c1.096-.974 1.584-1.462 1.949-2.436 2.375-6.455 11.57-29.109 18.146-46.586 9.622-25.637 8.343-38.121 2.497-42.567-6.637-5.054-18.938.548-22.47 12.91z" clip-rule="evenodd"/>
  <path fill="#DBDBDB" fill-rule="evenodd" d="M44.026 266.545h252.527L259.591 216H80.989l-36.963 50.545z" clip-rule="evenodd"/>
  <path fill="#DBDBDB" fill-rule="evenodd" d="M93.594 504.529h153.452l36.902-238.472H56.631l36.963 238.472z" clip-rule="evenodd"/>
  <path fill="#EDEDED" d="M296.553 266.544H44.026v40.375h252.527v-40.375z"/>
  <path fill="#FFAE73" fill-rule="evenodd" d="M300.146 69.544c1.644 4.323 2.314 9.256 2.436 14.371.121 6.455-.731 13.276-1.645 19.609l.549 30.57 28.559-42.018-5.542-5.055-1.826-21.192 3.227-15.894-19.425 13.64-6.333 5.969z" clip-rule="evenodd"/>
  <path fill="#1B3F7E" fill-rule="evenodd" d="M288.941 154.251l13.58 27.769 2.801 21.74 50.724 7.247-.487-2.497c-2.253-11.023-5.237-16.321-5.419-28.743-.548-31.971 4.14-67.291-4.08-79.532-3.228-4.81-8.221-6.76-10.413-12.3-.792-2.071-4.811-2.436-10.23 1.217-2.862 1.949-17.051 33.92-21.191 34.163-5.663.244-.731-38.974-1.523-38.121-3.653 4.08-8.89 4.202-11.874 7.856-4.263 5.48-5.298 16.807-8.403 24.785-4.324 11.144-6.699 11.753-6.759 17.66-.183 10.048 4.932 12.605 13.274 18.756z" clip-rule="evenodd"/>
  <path fill="#1E3865" fill-rule="evenodd" d="M291.377 154.251l12.605 2.314 20.46 5.298 11.57 30.326L349.165 216l6.881-4.994-.487-2.496c-2.253-11.023-5.237-16.321-5.419-28.744-.548-31.97 4.14-67.29-4.08-79.531l-15.102-2.01c-.791-2.07-.548 49.205-5.967 52.859-2.862 1.949-15.224.974-21.8 1.766l-11.814 1.401z" clip-rule="evenodd"/>
  <path fill="#FFAE73" fill-rule="evenodd" d="M297.223 72.832c-3.654 1.096-6.577 1.462-7.794-.426-1.584-2.375-1.097-5.481-1.218-6.455-.061-.548-.67-.914-1.644-2.07-1.827-2.62 1.461-3.35 3.47-4.203-3.531.061-5.236.305-5.48-2.923l1.096-.791c.487-1.584.122-3.106-.122-3.776-.548-1.766-4.323-2.497-3.653-5.785 2.435-1.949 5.237-5.237 6.394-9.013 1.217-4.019-1.523-6.82 1.096-14.493 2.07-6.029 6.637-11.023 13.335-13.337 11.388-3.836 29.534-3.105 36.05 4.933 18.024 22.105-14.189 48.535-14.676 48.84-7.003 4.688-17.233 6.637-26.854 9.499z" clip-rule="evenodd"/>
  <path fill="#632404" fill-rule="evenodd" d="M293.508 15.346c3.898-7.673 34.223-17.721 47.924 2.557 12.788 22.106 10.169 53.468 1.705 68.205-4.08 7.064-34.588 10.413-44.879 12.3 4.08-3.105 7.673-5.663 10.535-9.621a38.556 38.556 0 01-2.923 1.827c8.586-16.016 13.64-22.166 8.281-36.843-8.829-9.256-41.468-28.56-20.643-38.425z" clip-rule="evenodd"/>
  <path fill="#E59055" fill-rule="evenodd" d="M307.331 213.625l3.897 114.121c1.827 33.797 15.407 118.017 12.484 138.905-2.436 17.66-45.853 30.387-47.132 38.304 3.714 1.705 23.748 2.314 31.543.974 10.291-1.827 15.771-6.089 24.54-6.516l.061 4.933 10.535-.122 1.096-9.987c2.131-19-3.532-18.513-3.897-27.586-1.097-26.186 6.759-71.554 9.925-99.323l-13.214-43.662 11.144-108.823-40.982-1.218z" clip-rule="evenodd"/>
  <path fill="#1E3865" fill-rule="evenodd" d="M291.986 493.75c-8.221 4.446-14.919 8.221-15.345 11.266 3.714 1.705 23.748 2.314 31.543.974 10.291-1.827 15.771-6.089 24.54-6.516l.061 4.933 10.535-.122.913-9.987c1.096-6.577 1.827-10.718-.609-17.112-7.246 9.744-37.267 20.461-51.638 16.564z" clip-rule="evenodd"/>
  <path fill="#FFAE73" fill-rule="evenodd" d="M318.597 214.295l10.047 114.79c1.827 33.798 15.406 118.018 12.483 138.906-2.435 17.66-45.853 30.387-47.131 38.304 3.714 1.705 23.687 2.314 31.543.974 10.291-1.827 15.771-6.09 24.54-6.516l.061 4.933 11.752-.122 1.096-9.987c2.132-19-3.532-18.513-3.897-27.586-1.096-26.186 6.759-71.554 9.926-99.323l-13.214-43.724 9.56-109.492-46.766-1.157z" clip-rule="evenodd"/>
  <path fill="#1B3F7E" fill-rule="evenodd" d="M309.402 495.029c-8.221 4.445-14.919 8.221-15.346 11.266 3.715 1.705 23.688 2.314 31.544.974 10.291-1.827 15.771-6.09 24.54-6.516l.061 4.933 11.752-.122.914-9.987c1.096-6.577 1.826-10.718-.609-17.112-7.186 9.743-38.424 20.461-52.856 16.564zM305.139 202.907c1.401-8.464 37.572-12.971 46.097-9.439 4.019 6.943 16.441 17.721 15.771 27.039l-7.672 103.889c-3.593.122-1.705-.122-5.359-.061l-48.045-.243c.913-15.894-1.888-70.762-.792-121.185z" clip-rule="evenodd"/>
  <path fill="#1E3865" fill-rule="evenodd" d="M335.647 192.068c3.166.304 10.656-3.715 16.015 1.4 3.106 5.359 11.204 12.362 14.371 19.426 9.621 21.253-4.506 85.256-6.759 110.954l-13.945.487 1.096-72.284c.731-51.762-8.281-49.083-10.778-59.983z" clip-rule="evenodd"/>
  <path fill="#B3B1B1" fill-rule="evenodd" d="M100.17 245.413h140.3l-3.654-6.029H103.824l-3.654 6.029z" clip-rule="evenodd"/>
  <path fill="#E59055" fill-rule="evenodd" d="M191.877 187.379l7.55-2.984c.731-.305 7.856 7.977 4.385 8.038l-5.115.122-6.09 4.384c-.67.487-5.967.183-6.637-.365-.67-.548-.792-1.522-.244-2.192 1.157-1.34 4.628-6.394 6.151-7.003z" clip-rule="evenodd"/>
  <path fill="#FFAE73" fill-rule="evenodd" d="M183.23 194.199l5.724-7.125.182-.182c.183-.244.609-.548 1.157-.792l7.917-3.106c.913-.365 2.618.122 2.74 1.096.182 1.766 3.227 3.715-1.157 4.324l-8.221 1.035-5.602 6.943c-1.462 1.887-4.263-.366-2.74-2.193zM286.993 193.346l-70.15 4.629c0-5.968-.548-5.664-3.288-10.17 0 0 51.09-12.119 64.182-15.103 3.897-.487 16.137 12.18 14.249 18.026-.609 1.827-2.618 2.375-4.993 2.618z" clip-rule="evenodd"/>
  <path fill="#EDF8FC" fill-rule="evenodd" d="M176.897 187.257l54.134 22.593-14.858 35.564h-63.512l24.236-58.157z" clip-rule="evenodd"/>
  <path fill="#FFAE73" fill-rule="evenodd" d="M186.457 197.792a2.115 2.115 0 011.888-2.314c3.775-.365 7.916-.183 11.691-.731l3.471-.67c1.157-.243 2.192.731 2.314 1.888.122 1.157-1.4 1.279-1.887 2.314l-1.036 2.193-14.127-.792c-1.157-.061-2.192-.731-2.314-1.888z" clip-rule="evenodd"/>
  <path fill="#FFAE73" fill-rule="evenodd" d="M198.94 198.888l.122-3.654c0-.548 5.724-4.141-.853-6.637-1.096-.427-1.035-5.542.183-5.664 2.436-.243 5.115-.426 7.003 0 3.045.609 5.602 3.045 7.977 4.689l10.596-.243-2.193 8.586-6.393 2.314c-1.097.426-2.68 2.68-4.385 2.68l-8.708-.122c-1.217-.061-3.41-.731-3.349-1.949zM320.484 113.511c-1.826 10.109-1.887 17.356-3.958 27.586l-3.41 35.32 14.98 15.407c.974-1.035 1.462-1.583 1.705-2.618 1.766-6.638 8.647-30.083 13.458-48.109 7.063-26.49 4.567-38.73-1.705-42.567-7.064-4.384-18.756 2.375-21.07 14.981z" clip-rule="evenodd"/>
  <path fill="#FFAE73" fill-rule="evenodd" d="M312.751 175.687l-30.447 70.579c5.663 2.01 4.689 3.167 8.769 1.888 0 0 37.693-56.999 38.241-58.156 4.506-8.77-10.656-26.247-16.563-14.311z" clip-rule="evenodd"/>
  <path fill="#FFAE73" fill-rule="evenodd" d="M260.869 252.721c-3.288 2.74-5.906 6.638-10.595 8.647-3.654 1.583-2.558 4.263 1.339 3.045 4.385-1.34 6.821-3.045 10.596-5.115 5.359-2.862 5.176-3.411 9.682-2.193 12.788 3.959 12.727-2.496 19.608-9.195l-8.403-2.436c-2.497 3.837-13.032 1.462-16.076 2.923-2.314 1.035-3.654 2.314-6.151 4.324z" clip-rule="evenodd"/>
</svg>
